<svg id="Layer_1" data-name="Layer 1" xmlns="http://www.w3.org/2000/svg" viewBox="0 0 427.5 129.4"><defs><style>.cls-1{fill:#020102;}.cls-2{fill:#080606;}.cls-3{fill:#120b0e;}.cls-4{fill:#171111;}.cls-5{fill:#6784b5;}.cls-6{fill:#100d0d;}.cls-7{fill:#120f0f;}.cls-8{fill:#161515;}.cls-9{fill:#191414;}.cls-10{fill:#1e1d1d;}.cls-11{fill:#181717;}.cls-12{fill:#5b7cb0;}.cls-13{fill:#2c2424;}.cls-14{fill:#3d0303;}.cls-15{fill:#28171b;}.cls-16{fill:#313636;}.cls-17{fill:#100e12;}.cls-18{fill:#2f1d1d;}.cls-19{fill:#a5bcd4;}.cls-20{fill:#442b2b;}.cls-21{fill:#feffff;}.cls-22{fill:#4d70a8;}.cls-23{fill:#fdfefe;}.cls-24{fill:#4c6ea7;}.cls-25{fill:#5c7cb0;}.cls-26{fill:#567aae;}.cls-27{fill:#eef2f5;}.cls-28{fill:#221818;}.cls-29{fill:#5376ab;}.cls-30{fill:#3f64a0;}.cls-31{fill:#6e8bb7;}.cls-32{fill:#5f74a3;}.cls-33{fill:#443d3d;}.cls-34{fill:#9cbfcf;}.cls-35{fill:#1e3354;}.cls-36{fill:#373838;}.cls-37{fill:#5576ac;}.cls-38{fill:#cfbebe;}.cls-39{fill:#080707;}.cls-40{fill:#331b1b;}.cls-41{fill:#403636;}.cls-42{fill:#381f1f;}.cls-43{fill:#453939;}.cls-44{fill:#211d1d;}.cls-45{fill:#6b8cb9;}.cls-46{fill:#7b9ac2;}.cls-47{fill:#6485b5;}.cls-48{fill:#5476ab;}.cls-49{fill:#1d1316;}.cls-50{fill:#4a6fa7;}.cls-51{fill:#6182b2;}.cls-52{fill:#728eb8;}.cls-53{fill:#89a8ca;}.cls-54{fill:#7392bd;}.cls-55{fill:#aeb1ca;}.cls-56{fill:#141111;}.cls-57{fill:#0c0c0c;}.cls-58{fill:#d1d7dc;}.cls-59{fill:#0f0e0e;}.cls-60{fill:#181414;}.cls-61{fill:#211f1f;}.cls-62{fill:#231e1e;}.cls-63{fill:#748686;}.cls-64{fill:#5879ae;}.cls-65{fill:#3d62a0;}.cls-66{fill:#4669a5;}.cls-67{fill:#202020;}.cls-68{fill:#707b7b;}.cls-69{fill:#2a2f2f;}.cls-70{fill:#1d1d1d;}.cls-71{fill:#1c1818;}.cls-72{fill:#1d1919;}.cls-73{fill:#050404;}.cls-74{fill:#272c2c;}.cls-75{fill:#7b3636;}.cls-76{fill:#1a2525;}.cls-77{fill:#434040;}.cls-78{fill:#292222;}.cls-79{fill:#2f2a2a;}.cls-80{fill:#353c3c;}.cls-81{fill:#0a0202;}.cls-82{fill:#121111;}.cls-83{fill:#100e0e;}.cls-84{fill:#beb6b6;}.cls-85{fill:#a7a6a6;}.cls-86{fill:#292929;}.cls-87{fill:#3e3838;}.cls-88{fill:#0a0b0e;}.cls-89{fill:#6786b7;}.cls-90{fill:#7f9ac3;}.cls-91{fill:#5e7caf;}.cls-92{fill:#7494be;}.cls-93{fill:#0a0909;}.cls-94{fill:#171414;}.cls-95{fill:#231417;}.cls-96{fill:#3d0304;}.cls-97{fill:#5e7daf;}.cls-98{fill:#0f0c0e;}.cls-99{fill:#222;}.cls-100{fill:#312f2f;}.cls-101{fill:#161414;}.cls-102{fill:#0f0d0d;}.cls-103{fill:#151212;}.cls-104{fill:#5477ae;}.cls-105{fill:#4468a3;}.cls-106{fill:#6989b9;}.cls-107{fill:#141212;}.cls-108{fill:#413e3e;}.cls-109{fill:#131010;}.cls-110{fill:#030404;}.cls-111{fill:#3d1616;}.cls-112{fill:#242323;}.cls-113{fill:#1b1818;}.cls-114{fill:#dedede;}.cls-115{fill:#ebefef;}.cls-116{fill:#1c1515;}.cls-117{fill:#191717;}.cls-118{fill:#171515;}.cls-119{fill:#effdfd;}.cls-120{fill:#427b7b;}.cls-121{fill:#430a0a;}.cls-122{fill:#1a1818;}.cls-123{fill:#676c6c;}.cls-124{fill:#929c9c;}.cls-125{fill:#1e1c1c;}.cls-126{fill:#151414;}.cls-127{fill:#1d1a1a;}.cls-128{fill:#100c0c;}.cls-129{fill:#0f0b0b;}.cls-130{fill:#181616;}.cls-131{fill:#bdbcbc;}.cls-132{fill:#372727;}.cls-133{fill:#070303;}.cls-134{fill:#634444;}.cls-135{fill:#342a2a;}.cls-136{fill:#acb2b2;}.cls-137{fill:#121010;}.cls-138{fill:#676565;}.cls-139{fill:#131313;}.cls-140{fill:#c4c7c7;}.cls-141{fill:#292e2e;}.cls-142{fill:#361d23;}.cls-143{fill:#221f1f;}.cls-144{fill:#111010;}.cls-145{fill:#6b1e1e;}.cls-146{fill:#1d4949;}.cls-147{fill:#581211;}.cls-148{fill:#080503;}.cls-149{fill:#bef1f3;}.cls-150{fill:#9cd7e0;}.cls-151{fill:#809cc3;}.cls-152{fill:#67bbba;}.cls-153{fill:#6c8cb8;}.cls-154{fill:#140d0d;}.cls-155{fill:#8eaacb;}.cls-156{fill:#7c99c1;}.cls-157{fill:#90abcd;}.cls-158{fill:#809fc6;}.cls-159{fill:#88a4c8;}.cls-160{fill:#7290bc;}.cls-161{fill:#5373aa;}.cls-162{fill:#372a2a;}.cls-163{fill:#93b0cf;}.cls-164{fill:#c7dde5;}.cls-165{fill:#6c89b7;}.cls-166{fill:#6181b3;}.cls-167{fill:#4a3939;}.cls-168{fill:#a6c0da;}.cls-169{fill:#d1e5ea;}.cls-170{fill:#3c1d1d;}.cls-171{fill:#232627;}.cls-172{fill:#0d0404;}.cls-173{fill:#312426;}.cls-174{fill:#c5d7e1;}.cls-175{fill:#7e98c0;}.cls-176{fill:#aac3da;}.cls-177{fill:#3c3434;}.cls-178{fill:#0f0c0c;}.cls-179{fill:#d0e0e4;}.cls-180{fill:#4f3032;}.cls-181{fill:#423434;}.cls-182{fill:#6584b5;}.cls-183{fill:#4468a4;}.cls-184{fill:#080404;}.cls-185{fill:#0e0404;}.cls-186{fill:#6683b3;}.cls-187{fill:#819bc2;}.cls-188{fill:#7993be;}.cls-189{fill:#728ebb;}.cls-190{fill:#0d0e10;}.cls-191{fill:#20191a;}.cls-192{fill:#708cb8;}.cls-193{fill:#6180b3;}.cls-194{fill:#bbb7c9;}.cls-195{fill:#4866a1;}.cls-196{fill:#312626;}.cls-197{fill:#e3e9e9;}.cls-198{fill:#6584b3;}.cls-199{fill:#7392be;}.cls-200{fill:#6e8fbc;}.cls-201{fill:#c5d5d5;}.cls-202{fill:#433b3b;}.cls-203{fill:#100707;}.cls-204{fill:#d0d2d2;}.cls-205{fill:#4a6b9f;}.cls-206{fill:#7591bc;}.cls-207{fill:#5071a9;}.cls-208{fill:#41609a;}.cls-209{fill:#e5e6e6;}.cls-210{fill:#96abab;}.cls-211{fill:#6283b4;}.cls-212{fill:#839cc3;}.cls-213{fill:#758bb5;}.cls-214{fill:#a9c0d1;}.cls-215{fill:#cfdada;}.cls-216{fill:#b8c2c2;}.cls-217{fill:#c9cbcc;}.cls-218{fill:#c8dbdb;}.cls-219{fill:#7a7c7c;}.cls-220{fill:#d3d6d6;}.cls-221{fill:#999f9f;}.cls-222{fill:#e0e0e0;}.cls-223{fill:#bdc9c9;}.cls-224{fill:#060303;}.cls-225{fill:#9fa3a3;}.cls-226{fill:#8b9393;}.cls-227{fill:#7fa2a2;}.cls-228{fill:#d3dfdf;}.cls-229{fill:#e4d1e1;}.cls-230{fill:#8ea9cb;}.cls-231{fill:#5a78ad;}.cls-232{fill:#6a89b8;}.cls-233{fill:#6b87b7;}</style></defs><title>aujourdhui-orig</title><path class="cls-1" d="M383.8,2.9c4,1,8,2.1,11.4,4.6h.2c1.2.8,2.8.7,3.6,2.1h0c3.9,1,5.8,4.4,8.5,6.8l.3-.2-.3.2c.7,0,1,.3,1,1l.2-.2-.2.2a51.1,51.1,0,0,1,4.8,4.5,49.4,49.4,0,0,1,7.1,11.9c3,6.6,4.1,13.6,4.9,20.7A17.1,17.1,0,0,1,425,59c-.8,2.3-.5,4.7-.9,7a31.5,31.5,0,0,1-1,3.8l-.3,1.1a9.5,9.5,0,0,0-.7,2.9l-.3,1.1c-.3.6-.5,1.2-.8,1.7a3.4,3.4,0,0,0-.4,1.2C415.7,89.9,407.5,99,396.7,106l-4.2,2c-1.6.8-3.1,1.6-4.8,2.3l-2.7,1a70.4,70.4,0,0,1-15.7,3.1,53.3,53.3,0,0,1-19.4-3.1l-7.3-3.1-1.9-1c-3.3-2.7-6.9-5.1-9.9-8.1-1.3-1.3-2.3-2.7-.9-4.1s2.6-.6,3.9.3,3.8,4,6.8,3.9a2.5,2.5,0,0,1,1.9.9c3.7,3.7,8.3,5.1,13.4,5.1a4.2,4.2,0,0,1,3,1.2c1.6,1.6,3.5.4,5.3.7h4.3c5,.4,9.8-1,14.5-2.2,12-3.7,20.9-11.3,27.7-21.7a24.3,24.3,0,0,0,2-3.5c2.1-2.1,2.4-5.2,3.9-7.7h-.1c.9-1.2-.3-2.9,1.1-3.9h0c.2-2.9-1.4-4.3-4-3.9-8.2,1.1-15.5-2.6-23.3-3.8-1.6-.3-3.4-.8-4-2.9s1.5-1.9,3-1.7,4.2.3,6,1.6l.3.3.3-.2c1.3.8,3-.1,4.2.9l.2.3.3-.2c1.7.6,3.6-.2,5.2.9h.1c1.3.8,2.7.4,4.1.4,9.9.1,9.9.1,8.4-10.2h.1c-1.3-1.5-.1-3.4-1-5h.1c-3.5-8.4-7.1-16.7-13.2-23.6l-.8-1.1-.4-.5-1-.9-.5-.4-1.2-.8c-11.1-8.9-24-12.2-37.8-12.2" transform="translate(-4.4)"/><path class="cls-1" d="M362.7,5.4a27.5,27.5,0,0,0-12.3,2.9l-2.7.6-1.3.4a2.2,2.2,0,0,1-2.2-.9,1.1,1.1,0,0,1,.2-1.1" transform="translate(-4.4)"/><path class="cls-2" d="M391.5,77.7l.2.3.3-.2c1.4.5,3-.1,4.3.9l.2.2.3-.2c3.5.9,7.1.2,10.7.4,1.5.2,3.2-.5,4.5.9a3.3,3.3,0,0,1-.1,2.4c-3.9,3.2-8.4,2.5-12.8,2a81.9,81.9,0,0,1-24.3-6.6C367,74.6,360,70,353.2,65h0c-2.4-2.1-6.2-3-5.7-7.3h-.1c4.2-2,4.9,2.6,7.4,3.9h0c1.8.6,3.6,1.1,4.7,2.9h.1a2.4,2.4,0,0,1,1.1.6h.2c1.1.8,2.6.9,3.6,2h.1c.5.5,1.4.3,1.8,1h0c.6.4,1.5.2,1.9,1h0a11.3,11.3,0,0,1,3.9,1.7h.2c1.7,1,4,.2,5.4,2.1h.1a8.1,8.1,0,0,1,3.9,1.7h.2c.7.9,2,0,2.6,1.1h.1c.8.7,2.1,0,2.8.9h.1C388.8,77.8,390.4,76.6,391.5,77.7Z" transform="translate(-4.4)"/><path class="cls-3" d="M251.4,109.5a.6.6,0,0,0,.8,0h.1c2.1-1.5,4.7,0,6.9-.9h1.7c3-1.2,6.2.2,9.1-.9h2.4c4.2-.8,8.5-1.3,12.8-1.8l.4.2.3-.3c1.3-1.4,5.4-.3,3.9-4.3V99.3c.8-1.2-.3-3.1,1.1-4.2h-.1c2.7-1.8,5.4.4,8.1-.1s2,1.5,3.4,1.3h5a8.5,8.5,0,0,0,2.2.4,15.5,15.5,0,0,1,4.3.2c2.5,1.3,6.1-.6,8.1,2.4a3.2,3.2,0,0,1-.2,1.4c-2.4,2.4-4.8-.8-7.1.1a8.4,8.4,0,0,1-2.7-.4,14,14,0,0,0-4.1-.5l-2.7-.4a12.4,12.4,0,0,0-4.7-.6,10.7,10.7,0,0,1-2.5-.3c-1.1-.3-2.1-.8-3.2-.5s-.9.9-1,1.6,1,3.5,1.4,5.3-2.1,2.5-3.6,3.2-6.1,1.2-9.1,2.1a42.7,42.7,0,0,1-13,1.3c-8.3.3-16.4,2.1-24.6,2-3.1-.2-6.3-.4-9.3.6-5.6.7-11.3.1-16.9.3H196.8c-3.3-.5-6.8,1-9.8-1.5.7-2.7,2.9-2,4.7-2.1,13.7-.4,27.3.2,41-.1C238.9,109.4,245.2,110.3,251.4,109.5Z" transform="translate(-4.4)"/><path class="cls-4" d="M358.8,107.2l-3-.9c1.5-3.1,4.9-2.3,7.3-3.6s3-1,4.4-1.8,1.6-.9.9-2.2c-2-3.8-10.6-8.1-14.8-7.3a2.3,2.3,0,0,1-1.7-1c-.2-1.4.8-3-.5-4.3h-.2a6.2,6.2,0,0,1-3.8-1.8h0a5.1,5.1,0,0,0-2.4-.4c-2.9-.6-2.6-1.7-.5-3.2h1.4c1,.6,2.4-.2,3.1,1.1h.1c.6.2,1.5.1,1.9.8h.1c1.3.6,2.9.5,3.8,1.9h0c2.9,1.1,3.4-1.9,5.1-2.8h0c0-.5.4-.8.8-1.1h0a1.1,1.1,0,0,1,1.2-.5,1.6,1.6,0,0,1,1.2,1.5c-2.9,4.4-.8,7,3.2,9.2s5,4.4,7.8,6.3a3.9,3.9,0,0,0,1.5.2l.9-.4.8-.4.4-.3a2.4,2.4,0,0,1,.9-.6,1.7,1.7,0,0,1,1-.3,1.5,1.5,0,0,1,1.4.7,1.7,1.7,0,0,1,0,1l-.6,1c-.1.1-.3.2-.4.4l-.8.6-.9.6-.9.6-.4.3-.8.8-.5.3c-1.1.8-2.5,1.1-3.6,2a30.3,30.3,0,0,1-6.4,2.8,13,13,0,0,1-3.9.9C360.9,107.2,359.8,108.2,358.8,107.2Z" transform="translate(-4.4)"/><path class="cls-5" d="M424.1,54.6c-.5-3.2-.8-6.6-1.6-9.8s-2.1-7.5-3.2-11.3c-.4-1.8.9-2.4,2.1-3.1a17.9,17.9,0,0,1,8.4,13c-.2.3-.2.5,0,.7a1.4,1.4,0,0,1,.3,1.8c-.9.8-1.7-.3-2.7-.1.3,3.2,2.1,6.7-1.5,9.3A1.7,1.7,0,0,1,424.1,54.6Z" transform="translate(-4.4)"/><path class="cls-6" d="M270.3,73.2c.2,2,.5,4,.6,6.1a4.1,4.1,0,0,1-.5,1.8,1.7,1.7,0,0,1-1.2.5c-.3,0-.9-.5-.9-.8s-.3-3.1-.5-4.7a2.3,2.3,0,0,0-.6-1.2,1.3,1.3,0,0,0-1.2.1,5.1,5.1,0,0,0-.7,1.7c-.2.9-.2,1.9-.4,2.8a1.3,1.3,0,0,1-1.5,1.3h-.1a2.6,2.6,0,0,1-1.4-1.7c-.2-1.1.1-2.2,0-3.3s-.5-1-.7-1.5-.9.4-1.2.7a4.1,4.1,0,0,0-1.2,3.5h0c-.4.8-.2,2.3-1.5,2.5s-1.8-.8-2.1-1.9h0a9.6,9.6,0,0,0,0-5.8h.1c.5-2.9,3.6-.5,4.7-2.3h0a2.1,2.1,0,0,1,2.8,0h0c1.8,1.5,3.8-2.1,5.6.2h0c.5,0,.8.4,1.1.8h0a1.5,1.5,0,0,1,.8,1.1Z" transform="translate(-4.4)"/><path class="cls-7" d="M393.5,67.4a5.6,5.6,0,0,1,.9-1.7,1,1,0,0,1,1.4-.3,1,1,0,0,1,.4.5l.6,2.7c.4-.1.8,0,1-.2s2.2-.5,2.7.9l.9,2.5c1.6,0,1.9-1.2,2.4-2.1l2-3.7a1,1,0,0,1,.9-.2c.3.2.8.5.9.8a6.1,6.1,0,0,1,0,1.9c-.3,1.1-.7,2.1-1,3.2h0c-1.7,2.8-3.2,6-7.3,2.9h0c-3.2,0-5.8-.8-5.8-4.8h0a1,1,0,0,1-.5-1.3l.5-.5.2-.4Z" transform="translate(-4.4)"/><path class="cls-8" d="M357.3,46.1h.2a1.9,1.9,0,0,1,1.3,1h-.1c.7,1.8.6,4,3.8,3.8s1.3,2.8,2.2,4.2c1.4-.2,2-1.5,3-2h0c.8-1.2,1.6-1,2.5-.1h0c1.2,3.2-1.5,4.5-3,6.4-4,2.6-4.6,2.4-6.3-1.8h0c-1.1-1.1-2.9-.7-3.9-1.9h0c-1.3-2.7-.3-5.6-.8-8.4h-.1A1.3,1.3,0,0,1,357.3,46.1Z" transform="translate(-4.4)"/><path class="cls-9" d="M161.4,40.4h.9a2.6,2.6,0,0,1,1.1.7,2.7,2.7,0,0,1,.3,1.2c.9,1.5-3.3,3,0,4.4h1l.5-.2.8-.5.3-.3a4.4,4.4,0,0,0,.8-1.1,2.2,2.2,0,0,1,.5-.8l.7-.8.3-.3.8-.7,1-.4,1.1.2a2.7,2.7,0,0,1,.7.8,3.2,3.2,0,0,1,.1,1.7,1.7,1.7,0,0,1-.3,1,5.2,5.2,0,0,1-1,1.1,1.7,1.7,0,0,1-.6.6c-.3.1-.5.2-.5.5l.5.6.7.5c0-.1.4.1.4.1h1.4a1.1,1.1,0,0,1,.9.5,1.7,1.7,0,0,1-.1,1.7c-1.2,1.2-2.5.4-3.8.4l-2-.6c-1.5-.9-3-.3-4.5,0s-4.9,0-6-2.8h0a2.2,2.2,0,0,1-.5-3.1,1.2,1.2,0,0,1,.5-.5h0A4,4,0,0,1,161.4,40.4Z" transform="translate(-4.4)"/><path class="cls-10" d="M227.5,38.4H229c2.3,1.7,3.8,6.5,2.4,9s-4.6,2.6-7.1,2.6-3.4-3-.8-6.2c.4-.4,1.1-.5,1.6-.8s-1.3-.3-1.8-.8C223.4,39.5,225.5,39.1,227.5,38.4Z" transform="translate(-4.4)"/><path class="cls-11" d="M341.9,36.5h1.4c3.9,1.6,4.8,3.8,3.8,8.4h0c-.5,1.1-1.1,2.2-2.6.9h.1c-.8-.5-.6-1.4-.6-2.1s-.1-2-1.4-2.2-1.3.6-1.6,1.4-1.2,2.9-2.9,2.2-1.5-4.1-1.8-6.2.8-2.3,2.4-1.9S340.8,36.8,341.9,36.5Z" transform="translate(-4.4)"/><path class="cls-12" d="M431,70.2l-1.2,11.3a.6.6,0,0,0-.1.7l-.8.3-.5-.2c-1.5-1.4-1.1-3.4-1.9-5a2.8,2.8,0,0,1,.4-1.2c1.3-1.9.8-4.7,3-6.2A.9.9,0,0,1,431,70.2Z" transform="translate(-4.4)"/><path class="cls-13" d="M141.8,105.6l2-.2,1,.2.7.8,1.5,1.1a1.7,1.7,0,0,1-.4,1.2,2.5,2.5,0,0,1-1.7.3l-2.4-.5a4.8,4.8,0,0,1-2.3-.7,1.8,1.8,0,0,1-.5-1.2C140.1,105.8,141.2,106.2,141.8,105.6Z" transform="translate(-4.4)"/><path class="cls-14" d="M146.8,108.3a2.8,2.8,0,0,1-.1-.9,3.8,3.8,0,0,1,3.3-.1h3.4l1.6.3.6.7c-1.2,1.5-2.9,1.2-4.5,1.6a6.7,6.7,0,0,1-3.4-.7A2,2,0,0,1,146.8,108.3Z" transform="translate(-4.4)"/><path class="cls-15" d="M164,109.5l2.8-.2,2.8.2.3.6C167.7,111.8,165.7,112.6,164,109.5Z" transform="translate(-4.4)"/><path class="cls-16" d="M189.9,65.3c.4.5,1.4,1,.7,1.8s-1.2,1-1.9.4-.1-1.5.3-2.2A1.4,1.4,0,0,0,189.9,65.3Z" transform="translate(-4.4)"/><path class="cls-17" d="M299.6,96.3l1.6-.3c.3.3.5.3.9.1a1.4,1.4,0,0,0,.2.6C301.4,96.8,300.4,97.1,299.6,96.3Z" transform="translate(-4.4)"/><path class="cls-18" d="M135.1,103.7l3,.8,2.1.8a3.8,3.8,0,0,1-2.6,1.4h-3l-1.3-.3a13.4,13.4,0,0,0-4-.6,11.2,11.2,0,0,1-5.1-1.1l-2.3-.8-1.8-.5-1-.7a4.1,4.1,0,0,1-.7-1.1,1.6,1.6,0,0,1,.5-1.1,2.8,2.8,0,0,1,1.8,0,6.3,6.3,0,0,0,1.9.3,4.8,4.8,0,0,1,2.9,1l.3.2h.3l1.8.6c1.2.4,2.5.2,3.7.7a5.7,5.7,0,0,1,2.6.4Z" transform="translate(-4.4)"/><path class="cls-19" d="M295.4,114.2l-.2-.9c-1.8-.4-3.7,1.2-5.6,0-1.4-5.2,2.8-4.2,5.4-4.9h1.4a4.6,4.6,0,0,1,2.3,1.6,2.7,2.7,0,0,1,.1,2,8,8,0,0,1-2.2,2.3A1,1,0,0,1,295.4,114.2Z" transform="translate(-4.4)"/><path class="cls-20" d="M111.8,98a1.8,1.8,0,0,0,.5.7c-1.1.7-2,1-2.1-.8l.9-.2C111.3,98,111.5,98.1,111.8,98Z" transform="translate(-4.4)"/><path class="cls-20" d="M113.1,98.9l.9-.2c.2.3.4.4.7.2s.7.6.3,1.1S113,100.6,113.1,98.9Z" transform="translate(-4.4)"/><path class="cls-20" d="M115.9,99.8l1-.2,1,.2a1.9,1.9,0,0,1,.2.7,1.6,1.6,0,0,1-1.9.6.8.8,0,0,1-.3-1.2Z" transform="translate(-4.4)"/><path class="cls-21" d="M364.4,80.5c1-.1,1.8-.4,2-1.6s-.6-3.2,1.2-3.7,2.4.7,3.6.9l3.2.4c2,.7,3.9,1.3,5.8,2.1,6.9,2.8,14.1,4,21.4,4.7a22.3,22.3,0,0,0,9.9-1.1c.6.4.6.8.1,1.3-6,10.7-15.2,17.7-26.6,22.1h-.9c-2,.4-3.9.6-5.6-.8s-2.9-2-2.4-4.2h0l.9-1h.1a2.6,2.6,0,0,1,1.1-.7l.8-.5a1.6,1.6,0,0,0,.8-.6l.2-.2.9-.7h.1c2-3.8,6.4-5.5,8.5-9.2v-.2c-.1-.3-.3-.3-.4.1-3.2,3-5.6,6.9-10,8.3l-.3.2-.9.7h-.1a1.5,1.5,0,0,1-1.1.8c-.3-.1-.5,0-.7.3h0a2.1,2.1,0,0,0-1,.6c-1.3.3-2-.6-2.9-1.3a70.7,70.7,0,0,0-13.3-10.5l3.9-5.2C363,80.9,363.4,80.3,364.4,80.5Z" transform="translate(-4.4)"/><path class="cls-22" d="M368.4,128.5c-.7-2.8-2.9-4.1-5.1-5.5s-1.2-5.7-4.5-6.7l-1.2-.3c-1.6-.1-3.2.3-4.8,0s-5-1.9-5.4,2.8c-.2,2.7-3.2,1.9-5.5-1.9a3.1,3.1,0,0,1,.2-2.1c2-2.2,3.1-6.1,7.4-4.6l7.3,1.8a66.5,66.5,0,0,0,12.6,1.3c-.4,1.8.5,2.2,2.2,2.2a6.7,6.7,0,0,0,3.7-.5c3.3-1.8,6.8-3,10.6-1.3,3.7-4.1,8.4-3.9,13.3-3a3.6,3.6,0,0,0,.7,1c.4-.5,0-1,0-1.5v-1.3c1.5-5.7,2-6.1,6.3-4.4,1.2,1,3.2.8,3.7,2.7a2.5,2.5,0,0,1-2.1,1.6c-4.7,1.2-4.9,1.6-2.9,6.3l-1.2,1.7c-1.9,1.3-3.8,2.6-5.8,3.8l-3.4,1.4c-2-1.7-1.6-4.7-3.6-6.4-.8,4.4-3.6,5.1-9.4,2.4-4,.1-5,.7-6.9,4.7,3.4-1.7,6.3,1.5,9.5,1a2.5,2.5,0,0,1,1.7,1.1c-4.3,1.5-8.5,3.2-13.2,3" transform="translate(-4.4)"/><path class="cls-12" d="M405.9,105.5l-1.2-.7c-1.5-.9-2-.8-2.6.5a27.3,27.3,0,0,0-1,4.1c-2.9,1.4-4.8.7-5.5-2.5a3.9,3.9,0,0,1,.6-1.5c3.2-2.6,6.5-5.1,9.6-7.8a56.2,56.2,0,0,0,13.1-18.5l1.3-2.5c1.9,1.1,3.1,3.1,5.2,3.9a15,15,0,0,1,3.3,1.8l.2.2A23.6,23.6,0,0,1,424.1,96c-1-2.3-3-3.7-4.9-5.2.5-1.9,1.9-2.9,4.2-3.4-2.8-.5-3,1.7-4.2,2.8s-2.3,1-3.1,2.7c3.6-1,4.8,3.5,8.1,3.1a12.3,12.3,0,0,1-3.7,5.8c-1.2,1-2.5,1.6-2.9-.7s-.8-3.2-3.3-3.8c1.4,2.1,4.3,3.9.5,6-.5.2.7,1.5.2,2.5s-2.2,1.6-3,.4S408.1,104.3,405.9,105.5Z" transform="translate(-4.4)"/><path class="cls-23" d="M353.1,91.1c3.8-2.6,3.8-2.6,7.7,0a77.1,77.1,0,0,1,10.9,8.9c-2.4,1.9-5,2.6-7.4,3.5s-5.7,1.9-8.5,2.8c-5.4.8-9.7-1.8-14-4.6-.2-.1-.1-.6-.1-.9.7-2.1,3.1-2.7,4.3-4.5s3.9-2.6,5.4-4.4a4.1,4.1,0,0,1,1.1-.7Z" transform="translate(-4.4)"/><path class="cls-24" d="M341,128.1c-6.5-2.8-8.8-6.9-7.2-13.9,0-.3.1-.6.1-.9l3.9-3.8,3.7-3,1.2.6c-.1,2.7-2.7,5.3-.2,8V117c0,2.5.1,4.9,3.7,4,1.5-.4,2.1.5,2.5,1.6a3.9,3.9,0,0,0,3.8,2.6c4.2-.1,3,2.1,1.5,4.2" transform="translate(-4.4)"/><path class="cls-25" d="M425.1,81.5c-2.3-1-4.4-2.1-4.9-4.9h0c.7-.6.6-1.5.9-2.3s-.1-.4.1-.6.2-2.1.9-2.9h0c1.2-1.1.1-2.8.9-4.1l.9-7.6c1.9,1.8-.1,4.1.8,6s1-.1.4.2-.2-5.2,1.7-7.4c1.5-.2,2.6.7,3.7,1.5a4.1,4.1,0,0,1,.7,1.1c.1.6.1,1.3.6,1.7.1,2.7.2,5.3-.8,7.9l-.3-.2c-3.4-2.8-4.9-.8-5.8,2.4l-.6,2.4a6.6,6.6,0,0,0,.4,2.8,24.5,24.5,0,0,1,.8,2.9A1.5,1.5,0,0,1,425.1,81.5Z" transform="translate(-4.4)"/><path class="cls-26" d="M386.7,115.1l-2.1,1.1c-.8.5-1.2-.1-1.4-.6a3.3,3.3,0,0,1,0-1.4c0-.4-1-1.1-1.3-.8-2.2,2-5.7,1.3-7.7,3.5a1.7,1.7,0,0,1-1.7-.1,2.2,2.2,0,0,0-3.1.2l-.2.2a1.3,1.3,0,0,1-1.2,0,2.1,2.1,0,0,1-.5-1.3c-.1-1.4,1.3-1.7,1.9-2.6a144.6,144.6,0,0,0,16.2-3,2,2,0,0,1,2.1-.2A21.1,21.1,0,0,1,386.7,115.1Z" transform="translate(-4.4)"/><path class="cls-27" d="M378.7,103.8a8.1,8.1,0,0,0,5.4,1.9c-5.2,1.7-10.3,3.4-15.9,2.6-.2-1.5-5.3,1.5-2.5-2.8l6.5-3C374.8,100.9,376.4,104.1,378.7,103.8Z" transform="translate(-4.4)"/><path class="cls-28" d="M369.3,46h1l6.6,4,3.8,2,1.9,1,2,.9,4.7,1.9c.1.2.1.5.2.7s-2.3-.1-2.9,1.1c-4.3-1-7.8-3.6-11.5-5.5l-4.6-2.5L367.3,47C367.3,45.4,368.1,45.3,369.3,46Z" transform="translate(-4.4)"/><path class="cls-29" d="M386.7,115.1a8,8,0,0,1,.9-4.8q-.5-.3-.3-.6t.3-.3l4.7-2,4-.9a2.6,2.6,0,0,0,2.4,2.8h2.4v.9c-.6.6-1.1,1.1-2,1s-.9-.6-1.2-.5a14.7,14.7,0,0,1-3.3,1.2c-1.1.1-2.4-.5-3.5-.4S387.7,113.4,386.7,115.1Z" transform="translate(-4.4)"/><path class="cls-30" d="M342.5,115.1c-2.2.6-2.3.5-2.2-1.3v-.4c-.1-1.2-.6-2.6-.2-3.6s1.6-1.8,2.5-2.7l6.8,3.1c-1.4.1-2.7.2-3.6,1.7A14.4,14.4,0,0,1,342.5,115.1Z" transform="translate(-4.4)"/><path class="cls-31" d="M427.9,58.5c-.8.1-1.6.3-1.8,1.2s-1,4.3-1.8,7.3c-.1-3.2-.2-5.5-.4-7.8a20.8,20.8,0,0,1,.2-4.6H426a1,1,0,0,1,1-.3l.5.7a1.1,1.1,0,0,1,0-.8,1.2,1.2,0,0,1,.5-1,7.5,7.5,0,0,1,2-1,1.1,1.1,0,0,1,.9.5l.8,8.7a.8.8,0,0,1-.9,0v-1C429.9,59.8,429.6,58.1,427.9,58.5Z" transform="translate(-4.4)"/><path class="cls-32" d="M412.6,22.3c1.2-.7,2.2,0,2.9.9l5.7,7.4c.2,1.5-1.3,1.9-1.9,2.9Z" transform="translate(-4.4)"/><path class="cls-33" d="M346.5,97l-4.8,3.8-1.1-1a2.8,2.8,0,0,1,.1-.9l1.1-.8,3.5-2.3h.4c.3.1.5.4.7.6Z" transform="translate(-4.4)"/><path class="cls-34" d="M365.7,105.5c-.5.9-1,1.7.6,1.9a6.6,6.6,0,0,1,1.9.9h-4.5c-.5-.8-2.6.2-1.9-1.8Z" transform="translate(-4.4)"/><path class="cls-35" d="M361.8,106.5a8.3,8.3,0,0,0,.8,1.2l1.1.6c-1.5,0-3.1.1-4.6,0s-.2-.7-.3-1.1Z" transform="translate(-4.4)"/><path class="cls-22" d="M396.3,106.5a2.8,2.8,0,0,0-.9,1c-.3.7-.4,1.6-1.4.6a3.6,3.6,0,0,0-1.7-.7l3.9-2Z" transform="translate(-4.4)"/><path class="cls-36" d="M343.6,7.7h.9l1.9.9-2.1,1.5c-.6,0-1.5.1-1.8-.2s.3-1.3.8-1.9Z" transform="translate(-4.4)"/><path class="cls-37" d="M423,66.8c0,1.5.7,3.1-.9,4.1Z" transform="translate(-4.4)"/><path class="cls-38" d="M411.6,83.5a5.7,5.7,0,0,0-.1-1.3,9.9,9.9,0,0,0,.2-1.7h1.7Z" transform="translate(-4.4)"/><path class="cls-12" d="M422.1,70.9c.1,1.1.3,2.2-.9,2.9Z" transform="translate(-4.4)"/><path class="cls-36" d="M349.2,7.7l-1.9.7a1.4,1.4,0,0,1,1.8-.7Z" transform="translate(-4.4)"/><path class="cls-22" d="M387.6,109.4v.9h-2Z" transform="translate(-4.4)"/><path class="cls-12" d="M421.1,74.4c.1.9.1,1.8-.9,2.3Z" transform="translate(-4.4)"/><path class="cls-39" d="M402.9,18.2H402a2.8,2.8,0,0,1-.1-.9Z" transform="translate(-4.4)"/><path class="cls-39" d="M403.9,19.1l-.9-.9Z" transform="translate(-4.4)"/><path class="cls-39" d="M404.8,20.1l-.8-.9Z" transform="translate(-4.4)"/><path class="cls-36" d="M346.3,6.8l-1.1.6,1.1-.6" transform="translate(-4.4)"/><path class="cls-39" d="M388.3,39.1,385.6,44l-1.1,1.5c-1,1.3-2.1,2-2.6,1.4s.3-1.7.6-2.5l3.2-6.5c1-2.2,1-2.2-1.7-3.7a82.7,82.7,0,0,1-13.8-13.3,2.5,2.5,0,0,0-2.6-.6c-1,.1-1.3-.3-1.2-1.3s1.4-1.1.8-2.3-1.2-2.7-1.9-4.1-.1-1.5-.6-2.1v-1a3.6,3.6,0,0,0,.7-1V8.3c.9,0,1.4.3,1.1,1.3l2.7,5.8c.6,2,3.5.4,4,2.6-.2.2-.5.4-.6.7a1.6,1.6,0,0,0,.3.9c4.3,4.9,9,9.4,15.1,12.7.6-.9,1.1-1.8,1.6-2.7,1.8-4.3,3.4-8.6,3.3-13.4a2,2,0,0,1,.9-1.3c1-.2,1.4.7,1.4,1.5a36.6,36.6,0,0,1-.5,5.7c-.9,3.2-2,6.3-3.1,9.5s-.7,2.3,1.5,3.1,5.5,2.4,8.7,2.6c.4-5-.5-9.6-1.3-14.3l-.7-2.8c-.2-1.6,0-1.7,2.2-2.1,0,.3-.2.7-.1.9a74,74,0,0,1,2.6,17.5c0,1.1.5,1.8,1.7,1.8l5.2.4a1.6,1.6,0,0,1,.8,1c0,.2-.3.7-.6.7a45.4,45.4,0,0,1-5.1.9c-1.8.2-1.8.2-2.1,1.9l-.6,3.8c-.8.8-.2,2.1-.8,3a1.1,1.1,0,0,1-.3.8,1.8,1.8,0,0,1-.8.9h0c-1,.1-1.5-.2-1.1-1.2a1.1,1.1,0,0,1,.3-.8c.5-.6.2-1.4.7-2l.2-1.8a5.4,5.4,0,0,0-.1-4.8l-11.5-3.7C389.1,37.1,388.5,37.7,388.3,39.1Z" transform="translate(-4.4)"/><path class="cls-40" d="M373.3,18l-2.2-.7a1.9,1.9,0,0,1-1.8-1.9,3.2,3.2,0,0,0,3.5.6c2.1-.8,4.3-1.5,6.6-2.2a18,18,0,0,1,3.2-.6c.9-.5,2.1,0,3.1-.7h2.9a1,1,0,0,1,.2.9h0a2.4,2.4,0,0,0-1.1.6l-2.7.3-2.1.6Z" transform="translate(-4.4)"/><path class="cls-41" d="M366.4,19l1.2,1.3-3.7,3.3c-.5.5-1.1.9-1.6.3s-.2-1.1-.3-1.7l.7-1.1,1-.9,1.1-.8Z" transform="translate(-4.4)"/><path class="cls-42" d="M385.7,12.5c-.9,1.1-2,.8-3.1.7Z" transform="translate(-4.4)"/><path class="cls-43" d="M366.6,9.6a6.9,6.9,0,0,1-1.1-1.3c.3-.9,1-.8,1.4-.3S366.7,9,366.6,9.6Z" transform="translate(-4.4)"/><path class="cls-43" d="M364.7,10.5a1.6,1.6,0,0,1,.6,2.1A1.6,1.6,0,0,1,364.7,10.5Z" transform="translate(-4.4)"/><path class="cls-42" d="M382.9,15.1l2.1-.6Z" transform="translate(-4.4)"/><path class="cls-42" d="M388.8,13.5l-.2-.9C389.5,12.9,389.5,12.9,388.8,13.5Z" transform="translate(-4.4)"/><path class="cls-42" d="M387.7,14.2l1.1-.6Z" transform="translate(-4.4)"/><path class="cls-43" d="M365.4,8.5l-.7,1C364.5,8.9,364.7,8.5,365.4,8.5Z" transform="translate(-4.4)"/><path class="cls-44" d="M201.6,8.8l1.7-.2,4.2-.2a.6.6,0,0,1,.6.6c.1.2-.1.6-.3.8a2.4,2.4,0,0,1-1.2.7c-1.2.2-1.5.9-1.4,2s.2,4.7.2,7.1a8.7,8.7,0,0,1-.6,3.2,2.3,2.3,0,0,1-2.3,1.4,2,2,0,0,1-2-1.7,8.5,8.5,0,0,1,.3-3.2l.2.2.3-.2c.3-.1,1-.2,1-.4s.1-3.5.1-5.3A2.6,2.6,0,0,0,201,11C199.8,10.2,200.9,9.4,201.6,8.8Z" transform="translate(-4.4)"/><path class="cls-10" d="M287.7,11.9l-.2.3.2.2c.5,2.6,1.6,5,1.5,7.7,0,.9,0,1.9-1.2,2.2a1.7,1.7,0,0,1-2-1.3h.1c-1.8-2.6-1.6-5.7-2.2-8.6-.3-1.3.2-2.8,1.7-3S287.2,10.9,287.7,11.9Z" transform="translate(-4.4)"/><path class="cls-45" d="M244.8,112.4l19-1.6,5.7-.4a6.5,6.5,0,0,1-5.3,4c-6.1,1-11.9,3.9-18.3,3.2a5.9,5.9,0,0,0-5.7,2.6c-3.1,2.7-4.8-.7-7.1-1.6s-2-2.6-1.1-4.1,2.7-.5,3.7.3c2.8,2,2.9-1.2,4.3-2S243.3,113.1,244.8,112.4Z" transform="translate(-4.4)"/><path class="cls-46" d="M239.8,119.9c-.1-2.2,1.9-2.7,3.1-3.9a1.1,1.1,0,0,1,.8-.1c1.9,1.8,3.9-.1,5.9.1h5.7c.4,0,1.1-.2,1.2-.5,1.4-2.6,3.5-2,5.7-1.7a3.6,3.6,0,0,0,3.7-1.5c.7-1,2.4-1.3,3.6-1.9l13.4-1.2a1,1,0,0,1,.3,1,1.6,1.6,0,0,1-.8.8,7.9,7.9,0,0,0-2.3,1.4l-.7.9a6.4,6.4,0,0,1-1.3,1.9c-5.3-1-10.1,0-15,1.9-7.1,2.6-14.7,2.2-22.1,3.3A1.1,1.1,0,0,1,239.8,119.9Z" transform="translate(-4.4)"/><path class="cls-17" d="M297.6,117.8l-1.4-3.6c.4-1.8.4-1.8,2.1-1.7,4.1,4.2,4.1,4.2,8.6-.1,1.5-1.4,2.8-3.1,4.2-4.5a30.4,30.4,0,0,0,3.9-4.1c.9-1.1.7-1.9-.3-2.8a.9.9,0,0,1-.3-.7c0-.3,0-.4.1-.4,2-.2,3.9-.3,5.7,1.1.2.2.8-.1,1.3-.2a32.6,32.6,0,0,1-2.4,4c-3.6,4-7.2,7.9-10.9,11.8a20.6,20.6,0,0,1-3.7,2.9c-3,2.1-3.6,1.9-6.2-1.1Z" transform="translate(-4.4)"/><path class="cls-47" d="M239.8,113.3a17.5,17.5,0,0,1-.4,3.2,1.3,1.3,0,0,1-1.7,1l-.6-.3-3.7-3c-1.2,1.3-.8,2.6-.3,3.8-1,4.2-4.7,3.9-7.7,4.4s-3-1.7-3.1-3.7a3.3,3.3,0,0,1,1.1-3.1c-1.6-.5-3.3-.1-4.6-1.1s-.4-.8.2-1.1l17-.4C237.3,112.7,238.6,112.3,239.8,113.3Z" transform="translate(-4.4)"/><path class="cls-48" d="M298.3,110.4l-1.9-1.1a2,2,0,0,0-.8-.4l-.4-.2a4,4,0,0,0-1.5-.3l-1.5-.3a1.8,1.8,0,0,1-.7-.8,7.2,7.2,0,0,1,2-.9,1.7,1.7,0,0,0,1-1.8,2.7,2.7,0,0,1,2.1-1.9c2.4-.3,4.7-.9,7.1-.6,2.2,2.6,6.3,1,8.3,3.8-.6,1.6-2.1,1.7-3.4,1.8a6.4,6.4,0,0,0-5.1,2.6A4.1,4.1,0,0,1,298.3,110.4Z" transform="translate(-4.4)"/><path class="cls-49" d="M182.7,111.2l2.4-.2c14.7.8,29.4.5,44.1.3H233c-1.3,1.4-3,.9-4.5.9H191.6c-1.6,0-3.3-.5-4.6.7l-.5.6a4.9,4.9,0,0,1-2.3.8c-4-.6-8.2-.1-11.8-2.2a1,1,0,0,1,.4-1.2h.3C176.3,111,179.6,110.4,182.7,111.2Z" transform="translate(-4.4)"/><path class="cls-50" d="M311.8,105.5c-1.7.2-3.3-.8-5-.1s-1.5-.4-1.8-1.1l-.9-1.7c-1-1.2-.7-2.5-.3-3.8a1.1,1.1,0,0,1,1.2-.2l2.6.3c1.3.7,2.9,0,4.2.8l2.7.2a2.5,2.5,0,0,1,.4.7C313.2,101.8,312.7,103.8,311.8,105.5Z" transform="translate(-4.4)"/><path class="cls-51" d="M304.1,98.9c1.1,1.2,0,2.5,0,3.7a18.4,18.4,0,0,1-7.7,1c.2-2.2-2.1-3.8-1.6-6.1a3.4,3.4,0,0,1,2.6.3l2.5.2C301.2,98.8,302.9,97.7,304.1,98.9Z" transform="translate(-4.4)"/><path class="cls-52" d="M294.5,97.8l.3.4c.6.8,2.4.5,2.4,1.8a15.5,15.5,0,0,1-.8,3.6l-1.9,1a2.6,2.6,0,0,1-1.9-2.5c0-1.1.1-2.2.1-3.3s.4-1,.9-1.3A.8.8,0,0,1,294.5,97.8Z" transform="translate(-4.4)"/><path class="cls-49" d="M219,113.4l-.6.6a2.2,2.2,0,0,1-1,.9,3.2,3.2,0,0,1-1.4.3l-2.9.2h-6c-3.1-.2-6.3.3-9.4-.4a3.8,3.8,0,0,1-1.3-.9,2.2,2.2,0,0,0-.1-.8Z" transform="translate(-4.4)"/><path class="cls-53" d="M291.5,107.3l1,.3c-2.6,3-5.5,4.7-9.5,2.7,0-.4-.1-.7-.1-1.1Z" transform="translate(-4.4)"/><path class="cls-17" d="M322.1,98.1c0,.8.1,1.7.1,2.5l-.7.2c-.2-1-.6-1.8-1.8-1.9h-3.8a9,9,0,0,1-2.1-.8Z" transform="translate(-4.4)"/><path class="cls-54" d="M196.3,113.4a.9.9,0,0,1,.3.7c-3.3,1.8-6.6,2.8-9.6-.7V113Z" transform="translate(-4.4)"/><path class="cls-49" d="M239.8,113.3,236,113a8.1,8.1,0,0,1,2.2-.7c2.2-.1,4.4,0,6.6.1Z" transform="translate(-4.4)"/><path class="cls-17" d="M304.1,98.9l-4.2-.9c1.7,0,3.6-.7,5.1.6Z" transform="translate(-4.4)"/><path class="cls-17" d="M294.5,97.8l-.4-.2h-.5l-.2-.6c1.4,0,2.9-.6,4,.8Z" transform="translate(-4.4)"/><path class="cls-17" d="M311.8,99.7c-1.5,0-2.9.1-4.2-.8C309,98.9,310.6,98.3,311.8,99.7Z" transform="translate(-4.4)"/><path class="cls-55" d="M293.4,97a1.4,1.4,0,0,1,.2.6l-.9,1.2A1.4,1.4,0,0,1,293.4,97Z" transform="translate(-4.4)"/><path class="cls-17" d="M308.3,97.4l.8.3h-.4Z" transform="translate(-4.4)"/><path class="cls-56" d="M388.3,68.8l-.9.9c-1.9.7-3.7,1.1-4.7-1.4-.4-1-1.1-.5-1.9-.4s-2.8-.2-3.2-1.8-1.6-4.8-1.2-7.3a1.9,1.9,0,0,1,2.3,1.1c.6,1.3,1,2.6,1.5,4s.6.2.8.1c3.2-1.9,3.2-1.9,5.2,1.9l2.5-2.7c.3-.3,1.2-.4,1.3-.2s.7,1.2.5,1.6A27.8,27.8,0,0,1,388.3,68.8Z" transform="translate(-4.4)"/><path class="cls-57" d="M58.3,46c0,5.6,0,11.2.1,16.7.2,9-.5,17.9-1.1,26.8a1.7,1.7,0,0,1-.3,1.4,1.9,1.9,0,0,1-1.1.7c-.1.1-.6-.3-.7-.5a5.8,5.8,0,0,1-.4-1.8c0-2.1.1-4.2.1-6.2.1-11.2.3-22.4.3-33.6,0-3-.4-6-.6-9h.1c1.4-1.5,2-.2,2.6.8h0c1.1,1.3.1,2.9.9,4.2V46Z" transform="translate(-4.4)"/><path class="cls-58" d="M56.4,34.6l-.9-.2a.8.8,0,0,1-.4-.7c.1-.3.1-.4.2-.4a5.2,5.2,0,0,1,1.8-1l2-.6c1.7-.1,3.4-.6,4.3,1.5-1,2.5-3.3,2.6-5.4,2.8S56.9,35.1,56.4,34.6Z" transform="translate(-4.4)"/><path class="cls-59" d="M246.7,37.6a2.6,2.6,0,0,1,2.4,0c0,2-.1,3.9,2.4,4.5.6.1,1,.7,1.5,1.2a3.5,3.5,0,0,1,0,4.3c-.3.4-.7.9-1.1,1-3.3.8-3.5,3.4-3.6,6.2a25.5,25.5,0,0,1-1.1,5.5c0,.4-.7.7-1.1.7a1.2,1.2,0,0,1-1.1-.7,4.1,4.1,0,0,1-.4-2.2c.1-1.9.6-3.7.8-5.6s.3-2.8-.7-4.1.2-1.8.9-2.4.8-.8-.1-1-1.7-1.4-.9-2S246.7,39.6,246.7,37.6Z" transform="translate(-4.4)"/><path class="cls-60" d="M263.6,40.6c.1,1.6.1,3.1.3,4.7s.3.5.5.6a1.5,1.5,0,0,0,.9-.2l2.6-3.4c.4-.5,1.8-.1,1.9.6a12.3,12.3,0,0,1,.2,1.9,2.3,2.3,0,0,0,1.5,2.6c.6.2,1.1.8.5,1.5a3.5,3.5,0,0,1-1.6.8,2.1,2.1,0,0,1-1.3-.5c-1.3-1.3-2.3-1.5-4-.4s-3.4.1-4-1.9a8.9,8.9,0,0,1,.9-6.4h.1c.5-.7,1-.9,1.4.1Z" transform="translate(-4.4)"/><path class="cls-61" d="M255.3,40.6c.3-2.2.6-4.3,1-6.4s1.2-1.7,2.5-1.4c-.2,5.2-.4,10.4-.7,15.6,0,.3-.6.5-1,.6a.8.8,0,0,1-.8-.3,6.4,6.4,0,0,1-.6-1.8c-.2-1.6-.3-3.2-.5-4.7Z" transform="translate(-4.4)"/><path class="cls-62" d="M275.5,39.4H279c-.2.6-.1,1.5-.5,1.6a1.5,1.5,0,0,0-.4,2.2,9.1,9.1,0,0,1,1.8,2.1,2.3,2.3,0,0,1-.9,3.1h-.2a4.6,4.6,0,0,1-4.9-.2,2.4,2.4,0,0,1-.7-1.6,1,1,0,0,1,1.2-.8h.2l.9.3c.3,0,.7-.1.8-.3a1.1,1.1,0,0,0-.1-.8c-.4-.6-.8-1-1.2-1.5a6,6,0,0,1-.5-3.2h0a1.4,1.4,0,0,1,1-1.1Z" transform="translate(-4.4)"/><path class="cls-63" d="M245.5,45l.8-.2c.2.6.1,1.1-.7,1.2A3.4,3.4,0,0,1,245.5,45Z" transform="translate(-4.4)"/><path class="cls-64" d="M351.4,126.5a7.9,7.9,0,0,1-2.6-.8,2.6,2.6,0,0,1-1.1-2.9c.1-.3-.3-.8-.5-1.2l-.9.8c-1.1,1.5-1.9,1.6-2.8.3a11.3,11.3,0,0,1-1.2-2.1c-.5-.8-2.3-.3-1.8-1.7s1.3-1.2,2-1.9l1.5,1.8a1.5,1.5,0,0,0,2,.6h.1a2.1,2.1,0,0,0,1-2.4c-.1-.1-.1-.3-.2-.4s-1.7-1.3-.9-2.3,1.8-.3,2.7-.2l3.3.5,5.9.5c-1.6,2.7-4.5,4.6-4.8,8.3,1.2-.8,2.7-.6,4.1-1s3.2-1.3,1-3.2-.1-2.8.6-4.1a3.7,3.7,0,0,1,3.6,2.7,40.5,40.5,0,0,1,1.2,5c-.2,1.9-1.5,3-3,4" transform="translate(-4.4)"/><path class="cls-64" d="M354,129.4l.2-3.5a6.7,6.7,0,0,1-2.8.6" transform="translate(-4.4)"/><path class="cls-65" d="M385.8,124.8h-2c-4-2.8-4.6-5-1.9-7.7,2.3,1.8,4.9,1.8,7.5.8a.9.9,0,0,0,.7-1.2.4.4,0,0,0-.1-.3c-.1-.3-.4-.5-.5-.8s-.6-1.2.1-1.6,1,0,1.3.2a9.3,9.3,0,0,1,3.6,7.9h-.1c-1.6.4-3.5.4-4.8,1.8h0c-.9.7-2.1.1-2.9.8A1,1,0,0,1,385.8,124.8Z" transform="translate(-4.4)"/><path class="cls-66" d="M358.4,126.7c2.1-.9,3.6-2.5,5.2-3.9l2.3.6c2.7,1,3,1.6,2.5,5.1" transform="translate(-4.4)"/><path class="cls-22" d="M389.6,123.8c1.7-2.6,1.7-2.6,4.8-1.8A5.4,5.4,0,0,1,389.6,123.8Z" transform="translate(-4.4)"/><path class="cls-22" d="M386.7,124.6c.7-1,1.8-.9,2.9-.8Z" transform="translate(-4.4)"/><path class="cls-67" d="M262.1,21.8c-.4-1.6-.7-3.2-1.1-4.9V14.6l.2-.5c.8-1.2-.5-3.9,1.8-3.6s.7,2.7,1,4.1-.2,2,.7,2.6,1.2.5,1.3,1.2-1.2,1.2-1.3,2.3S264.3,22.8,262.1,21.8Z" transform="translate(-4.4)"/><path class="cls-68" d="M256,7.2l1,.7a1.8,1.8,0,0,1,.2,1c-.4,1.1-1.2.6-2,.5h.1a.7.7,0,0,1-.4-.6c0-.2.1-.3.2-.3a1.1,1.1,0,0,0,.1-.8,1.4,1.4,0,0,0,.2-.6" transform="translate(-4.4)"/><path class="cls-69" d="M403.1,50c-.3-1.2-.3-2.2.8-3A3,3,0,0,1,403.1,50Z" transform="translate(-4.4)"/><path class="cls-69" d="M402,51.7l.8-.9v.8Z" transform="translate(-4.4)"/><path class="cls-70" d="M303.2,76.6l.2-12.2c1.4-.9,2.3-.8,2.5.3s.2,2.2.3,3.3c.4,4.1-.4,8.2.8,12.3a1.6,1.6,0,0,1-.8,1A1.3,1.3,0,0,1,305,81C304.3,79.6,303.8,78.1,303.2,76.6Z" transform="translate(-4.4)"/><path class="cls-71" d="M330.1,70.1l2.2-.2c.8-.1,1.6-.3,1.9.7s-.6,1.3-1.2,1.7-.1.3-.2.4a11.2,11.2,0,0,0-2.6.8,3.3,3.3,0,0,0-2.2,3.6c0,1.1-.1,2.2-.1,3.2s-2.2.3-2.7-1a9,9,0,0,1-.8-2.3c-.2-1.2-.6-2.6-.2-3.6s1.7-.9,2.7-1.4Z" transform="translate(-4.4)"/><path class="cls-72" d="M320.1,74.2l-1.9,2.5c-.7.9-.3,1.8.9,2a5.5,5.5,0,0,0,1.8.2c.9,0,2.2-.6,2.1.9s-1.3,1.4-2.1,1.5c-2.8.7-6.3-1.6-7-4.3a1.7,1.7,0,0,1,0-1c.7-1.8,1.5-3.5,3.6-4.1a1.9,1.9,0,0,1,2.5,1.3A1.2,1.2,0,0,1,320.1,74.2Z" transform="translate(-4.4)"/><path class="cls-73" d="M309,80.5c-.7-2.2-1.5-4.4.1-6.6C311,76.1,311.2,78.3,309,80.5Z" transform="translate(-4.4)"/><path class="cls-74" d="M309,80.5a6.7,6.7,0,0,0,.1-6.6,1.1,1.1,0,0,1,0-.8h0c.8.2,1.7.3,1.7,1.3s.1,4.2.1,6.2a1.4,1.4,0,0,1-.7,1C309.4,81.7,309.1,81.2,309,80.5Z" transform="translate(-4.4)"/><path class="cls-75" d="M311.8,68.1v1a2.4,2.4,0,0,1-1.2.7c-.2-.3-.6-.7-.6-1s1.2-.6,1.9-.7Z" transform="translate(-4.4)"/><path class="cls-76" d="M310.5,69.8l1.2-.7C311.8,70,311.3,70.1,310.5,69.8Z" transform="translate(-4.4)"/><path class="cls-77" d="M218.6,39.1c-.2.2-.4.6-.6.7a2.8,2.8,0,0,1-1.2.4c-.2,0-.5-.4-.5-.7s.2-3.4.4-5.1,1.1-.9,1.9-.9h.1a5.5,5.5,0,0,1,0,4.7.7.7,0,0,0-.2.8Z" transform="translate(-4.4)"/><path class="cls-78" d="M379.2,95.9l10.2-9.6c1.1-.2,1.7.1,1.3,1.3a34.4,34.4,0,0,1-9.7,9.3Z" transform="translate(-4.4)"/><path class="cls-79" d="M364.4,80.5l-1.6,1.2-1.2-1.2c.8-1.7,1.4-3.5,2.3-5.2s.9-.7,1.4-1a3.4,3.4,0,0,1,.5,1.7C365.4,77.5,364.9,79,364.4,80.5Z" transform="translate(-4.4)"/><path class="cls-80" d="M378.7,103.8c.1.4.4.9.3,1.3s-.5,1.3-1.2.8a26.8,26.8,0,0,1-3-2.8c-.7-.8-1.6-.7-2.6-.6l3.9-1.8Z" transform="translate(-4.4)"/><path class="cls-81" d="M351.2,90.2h.9l1,1H353a1.8,1.8,0,0,1-1.6.3L351,91A1.9,1.9,0,0,0,351.2,90.2Z" transform="translate(-4.4)"/><path class="cls-80" d="M377,99.8l-.9,1Z" transform="translate(-4.4)"/><path class="cls-78" d="M378.2,99l-1.1.7Z" transform="translate(-4.4)"/><path class="cls-78" d="M375.1,98.7l1-.6Z" transform="translate(-4.4)"/><path class="cls-78" d="M379.8,97.9l-.8.6Z" transform="translate(-4.4)"/><path class="cls-78" d="M378,96.8l.9-.7Z" transform="translate(-4.4)"/><path class="cls-78" d="M376.8,97.7l1.1-.8Z" transform="translate(-4.4)"/><path class="cls-78" d="M380.9,97l-.9.7Z" transform="translate(-4.4)"/><path class="cls-82" d="M215.9,19.2c-.4,1-.7,2.1-1.2,3.1a4.1,4.1,0,0,1-4,2,3.4,3.4,0,0,1-3.1-3.2,11.9,11.9,0,0,1,3.3-10.3c.8-.8,1.7-.6,2.7-.5a2.4,2.4,0,0,1,2.2,2.1A5.3,5.3,0,0,1,215.9,19.2Z" transform="translate(-4.4)"/><path class="cls-83" d="M224.6,15.4c.2-1.2.3-2.4.5-3.6a1.4,1.4,0,0,1,2-1.2c2.5,2.5,2,5,.2,7.5a35.9,35.9,0,0,1-1.7,3.4,5.1,5.1,0,0,1-4.2,2.6c-2.1,0-3.1-1.4-3.8-3-.9-3.2-1.6-6.4.1-9.6.8-.3,1.6-.5,1.9.5a17.5,17.5,0,0,1,.4,3.2,30.1,30.1,0,0,0,.5,4.2c.1.5.6,1.4.8,1.4a3.5,3.5,0,0,0,1.9-1A5.9,5.9,0,0,0,224.6,15.4Z" transform="translate(-4.4)"/><path class="cls-84" d="M227.3,18.1c.2-2.5.8-5-.2-7.5h2.1c2,3.5,2.2,7,0,10.5h-.8C228.3,19.9,228.6,18.7,227.3,18.1Z" transform="translate(-4.4)"/><path class="cls-85" d="M217.7,11.5c0,3.2,0,6.4-.1,9.6l-1.7-1.9V12.4Z" transform="translate(-4.4)"/><path class="cls-59" d="M251.1,79.4a11.4,11.4,0,0,0-1,1.9c-2.5.1-2.5.1-2.5-1.6a12.1,12.1,0,0,0,.1-1.9c-.2-1.2.3-2.6-1-3.4s-2.2,1-2.8,3.2l-.3,2.4c-.2.8-.8,1.5-1.7,1.3a1.7,1.7,0,0,1-1.3-1.7c-.1-.8,0-2.3-.1-3.3a4.7,4.7,0,0,0-.9-2.2c-.1-.2-.9-.3-1.2-.1a2.2,2.2,0,0,0-.9,1,19.5,19.5,0,0,0-.8,2.2c-.5,1.3-.1,3.5-2.2,3.1s-1.2-2.3-1.3-3.7V74.2c0-2,0-2,2.6-2.7l.5-.2c2.1-1.5,4.1-1.3,6,.5s1.7,0,2.3-.8c4.3-.2,5.5.6,6.2,4.6C251,76.8,251,78.1,251.1,79.4Z" transform="translate(-4.4)"/><path class="cls-86" d="M230,71.1c.2,2.8.4,5.7.5,8.5a.7.7,0,0,1-.1.5c-.2.4-.5,1-.8,1s-1.3-.3-1.5-.7a15.9,15.9,0,0,1-.5-8.9c.3-1.2,1.5-.6,2.4-.4Z" transform="translate(-4.4)"/><path class="cls-87" d="M230,65.3a6.2,6.2,0,0,1-.2,1.9c-.3.6-.8,1-1.5.7a1.5,1.5,0,0,1-1.1-1.7V66c.1-.4.8-.8,1.4-.9A3,3,0,0,1,230,65.3Z" transform="translate(-4.4)"/><path class="cls-88" d="M17.9,23.8l1,3.1c.4,5.8.8,11.7,1.3,17.6.1,1.9.4,3.8.6,5.7l-.3.3.3.3c-.1,4.8-.2,9.6-.2,14.4s.1,12.1.2,18.1L20.2,86c-.2,1.2-1,1.4-2,1.3-2.8-1.2-2.4-3.8-2.5-6.2-.2-12.8.5-25.5-.5-38.3a20.7,20.7,0,0,1-.4-5,24.4,24.4,0,0,0-.6-7.6l-.3-2.3a19.3,19.3,0,0,1,.1-2.4C14.6,23.4,15.1,20.9,17.9,23.8Z" transform="translate(-4.4)"/><path class="cls-89" d="M4.6,63.3V45a.9.9,0,0,1,1.2,0,9.5,9.5,0,0,1,1,1.7c1.8,1.7,4.8,1.8,5.4,5.5.9,5.3.5,7.1-4.8,8.8,3.2,3.1,6.7,6,7.9,10.5-.8,1.4-2,1.4-3.2,1.2C6.9,71.7,4.3,68.6,4.6,63.3Z" transform="translate(-4.4)"/><path class="cls-90" d="M4.6,63.3c1.1.7,1,1.9.9,3s1,2.8,2.6,3.5l4.2,2.1c1.7,1.1,3.5,2.2,4.2,4.3a28.1,28.1,0,0,1,0,4.1c-2.5,2-6.6,1.6-8.1,5.2a14.7,14.7,0,0,1-1.8-6.4c-.4-3.2-.4-6.5-1.6-9.7S4.7,65.3,4.6,63.3Z" transform="translate(-4.4)"/><path class="cls-91" d="M17.9,23.8c-2.3-.9-2.5-.8-2.8,2-1.1.8-1.8-1.8-3-.3S9.7,27,9.3,28.4,6.9,32,6.8,34.3s0,3.7,0,5.5a14.3,14.3,0,0,1-.3,2.9A3.1,3.1,0,0,1,5.9,44a.9.9,0,0,1-1.3.1h0c0-4.3.1-8.5,0-12.8,0-1.5.2-2.7,1.6-3.6a2.3,2.3,0,0,0,1-1.5c-.1-3.1,2-5.2,3.5-7.6a8.3,8.3,0,0,1,.8-1.2l1.5-.3c2.2,1.2,4,3,6.1,4.5a1.3,1.3,0,0,1,.1,1.2Z" transform="translate(-4.4)"/><path class="cls-92" d="M8.4,85.5c.4-1.5.9-3.1,1.3-4.5l6.4-.4a1.4,1.4,0,0,1,.8.9c.5,2,.9,3.9,1.3,5.8-1.3,1.3-2.8,2.2-4.6,1.5S9,88.3,8.4,85.5Z" transform="translate(-4.4)"/><path class="cls-64" d="M4.6,44.1h.9c.3.3.3.6,0,1H4.6Z" transform="translate(-4.4)"/><path class="cls-93" d="M185.9,0c1.2,2.6.8,5.3.6,8-.2,5.3-.4,10.5-.7,15.8-2.1,1.4-2.7,1.5-4.1.4a1.8,1.8,0,0,1-.5-1.2c-.2-2.3-.2-2.3-1.8-2.1l-2.4.4a5.7,5.7,0,0,0-4.6,3,11.8,11.8,0,0,1-2.7,3.2,1.7,1.7,0,0,1-1.4.1c-.3-.1-.5-.7-.6-1.1a3.5,3.5,0,0,1,.3-1.4,4.4,4.4,0,0,0,.8-1.1,29,29,0,0,0,1.9-2.9,11.4,11.4,0,0,0,1-1.9,12,12,0,0,0,1.7-2.1c1.7-3.1,3.4-6.3,5-9.5L180.5,4" transform="translate(-4.4)"/><path class="cls-94" d="M197.4,19a27.1,27.1,0,0,1-2.4,3.5,6.4,6.4,0,0,1-2.9,1.6,3.3,3.3,0,0,1-4.1-2.3h0a13.1,13.1,0,0,1,1.4-9.7c.1-.3.8-.5,1.2-.4a2.2,2.2,0,0,1,.9,1,3.3,3.3,0,0,1-.1,1.4c-.3,1.7-.6,3.4-.8,5.1s0,1.9,1,1.8a3,3,0,0,0,1.9-1.2,20.9,20.9,0,0,0,1.3-3.5c.4-1.4.5-2.9,1-4.2s.8-.8,1.3-1.1.9.9,1,1.5a9.6,9.6,0,0,1,0,2.4c-.2,1.4-.5,2.8-.7,4.2Z" transform="translate(-4.4)"/><path class="cls-95" d="M164,109.5c1.8,1.5,3.9.7,5.9.6h1.6a.9.9,0,0,1,.2,1.3h-.1c-1.3,1-2.9.9-4.5.9a16.3,16.3,0,0,1-4.4-.3l-2.1-.5-2.1-.2a18.3,18.3,0,0,1-7.3-1.4,1.3,1.3,0,0,1-.8-1.2l5.2-.6,1.6.2c1.3.8,2.9.1,4.3.7Z" transform="translate(-4.4)"/><path class="cls-96" d="M171.7,111.2a3.6,3.6,0,0,0-.2-1c3.8,0,7.6-.2,11.2,1H172.6Q172.2,111.8,171.7,111.2Z" transform="translate(-4.4)"/><path class="cls-97" d="M427.9,53.7v.9a.6.6,0,0,1-.8.1H426a7.6,7.6,0,0,0,.9-5.5,49.8,49.8,0,0,0-1.6-5.5c2,.2,3.2,1.3,4.5,2.4s1.5,4.3,1.1,6.7h-1C429.3,53.3,428.4,53.1,427.9,53.7Z" transform="translate(-4.4)"/><path class="cls-98" d="M56.6,35.6a.8.8,0,0,0,.8-.2l5.8-1.9A6.1,6.1,0,0,1,65.8,32l1.7-.5,1.7-.7,1.8-.6c3.8-1.2,7.5-2.8,11.3-4.2L88,24.1c2.7-.8,5.5-1.7,8.1-2.7l1.2-.5,4.3-1.6c2.2-.6,4.3-1.8,6.6-2.2l1.9-.4a1.7,1.7,0,0,1,1.2.4,1.1,1.1,0,0,1,0,1.1l-1.1,1c-.5.7-1.4.3-1.9.9-6.1,3.6-12.7,5.7-19.4,7.8L76.4,32.3l-2.9.9L60.9,36.8a16.5,16.5,0,0,1-3.2.7C56.3,37.6,56.4,36.6,56.6,35.6Z" transform="translate(-4.4)"/><path class="cls-99" d="M103.4,33.5c-.8.8-.9,2.6-2.8,1.9s-1.5-.7-2.3-.1H97a.9.9,0,0,1-.1-.5C96,29,96,29,101.2,26.6c.8-.3,1.6-.8,2.1-.1a3.4,3.4,0,0,1,.5,2.2C103.8,30.3,103.5,31.9,103.4,33.5Z" transform="translate(-4.4)"/><path class="cls-100" d="M108.3,20.1a1.6,1.6,0,0,1,1.9-.9,9.8,9.8,0,0,1,1.1,5.3c-.2,3.1,0,6.2,0,9.4,0,1.4-.9,1.3-1.8,1.3a17.4,17.4,0,0,1-1.1-1.8c.2-3.9.3-7.9.6-11.8C109,21,109.1,20.4,108.3,20.1Z" transform="translate(-4.4)"/><path class="cls-101" d="M277.9,82.3c-2,.1-3.8,0-4.7-2.2s-.1-3.7,1.2-5.3a8.6,8.6,0,0,0,1.4-1.3c.7-.8,1.1-2,2.5-1.5a3.9,3.9,0,0,1,2.8,3.3,7.2,7.2,0,0,1-3.1,7Z" transform="translate(-4.4)"/><path class="cls-102" d="M291.7,30.8a2.3,2.3,0,0,1,2.5.1c.1,2.7.2,5.3.3,8.3,2.7.1,5.5.1,6.7,3.1a2.8,2.8,0,0,1,.1,2.9h.1a1.5,1.5,0,0,0-1,1.2c-1.6,2-3.8,1.8-6.1,1.9s-2.9.1-2.9-2.6Z" transform="translate(-4.4)"/><path class="cls-103" d="M308.7,40.4c-.2.1-.2.4,0,.6h0c-.7.9-1.4,1.7-2,2.6s-.3,1.8.9,1.9,1.5.3,1.8,0c1.9-1.7,4.3-1.3,6.9-1.5-.7-.9-1-1.6-1.5-2.1s-1.5-3.6-.1-5.4h1.9c.7,0,1.3.8,1,1.1-1.9,2.1.1,3.3.9,4.7s.1.3.2.4a2.3,2.3,0,0,1-.1,2.5,10.1,10.1,0,0,1-1.3,1.6c-2.4.5-5,.1-7.4,1.1a7,7,0,0,1-3.8.1,3.8,3.8,0,0,1-3.2-4.5,2.4,2.4,0,0,1,.5-1.4,6.7,6.7,0,0,1,1.4-1.9,2.5,2.5,0,0,1,2-.9C307.5,39.2,308.1,40,308.7,40.4Z" transform="translate(-4.4)"/><path class="cls-103" d="M301.3,45.2c0-1-.1-2-.1-2.9C302.6,43.7,302.6,43.7,301.3,45.2Z" transform="translate(-4.4)"/><path class="cls-103" d="M300.4,46.3l1-1.2Z" transform="translate(-4.4)"/><path class="cls-104" d="M405.9,105.5a4.4,4.4,0,0,0,.8-1.1c.3-.8-.1-2.2,1.1-2.2s2.9.1,3.7,1.5a8.4,8.4,0,0,0,1.1,2.1c.6.7,1.3.5,1.9-.3s2.8-.5,1.9,1.8-5,4-7.7,5.7c-1.3-2.2,1-3.7,1-5.6l-1.9-.9Z" transform="translate(-4.4)"/><path class="cls-105" d="M409.7,107.4c1,.6,1.9,1,.6,2.3a12.6,12.6,0,0,0-1.6,3.3l-3.8,2.1c-2.7-1-2.4-1-2.5-3.4s2.1-2.6,1.3-4.3c0-.1.8-.6.9-.5C406.1,108.9,408,107.7,409.7,107.4Z" transform="translate(-4.4)"/><path class="cls-106" d="M416.4,107.3a1.7,1.7,0,0,0-1.6-1.8h-.3a5.1,5.1,0,0,0-.7-1.7c-.6-.7-.5-1,.4-1.2s.7-.1.9-.3a3.3,3.3,0,0,0,.7-1.6c-.1-.5-.8-.9-1.2-1.3h-.4c-1.3.2-1.8-.7-1.9-1.6s1.2-1.4,2-1.7,4.3,1.4,4.6,2.7-.3,1.2-.4,1.8-.2,1.4,2,1.2Z" transform="translate(-4.4)"/><path class="cls-107" d="M285.9,59.6l1.7.9c.2,3.7.3,7.3.5,10.7,1.7.8,3.3,1.3,4.6,2.1s2.5,4.9-.3,6.6-4,.6-6,1a1.6,1.6,0,0,1-.8-1,42,42,0,0,1-.7-6.2c-.1-3.8,0-7.6.2-11.5A11.2,11.2,0,0,1,285.9,59.6Z" transform="translate(-4.4)"/><path class="cls-108" d="M297.5,74a2.4,2.4,0,0,1,2.6,0v6.2c0,1.6,0,1.6-2.5,1.1C297.6,78.9,297.6,76.4,297.5,74Z" transform="translate(-4.4)"/><path class="cls-5" d="M430.8,61.4h.9c0,.3.1.6.1.9Z" transform="translate(-4.4)"/><path class="cls-109" d="M229.2,21V10.5c1-.4,2.4.6,2.9-.9h.1l.9-.9h.1l2.8-.4a2.9,2.9,0,0,1,2.9,3.1,3.3,3.3,0,0,1-.4,1.4,8.8,8.8,0,0,1-2.2,2.5c-2,1.4-1.5,2.2,0,3.7s2.6,2.2,3.9,3.4a1.1,1.1,0,0,1,.3,1.2,1.4,1.4,0,0,1-1,.7,8.2,8.2,0,0,1-2.6-1,41.9,41.9,0,0,1-4.5-3.9l-.6,2.5C230.8,22.2,229.8,22.3,229.2,21Z" transform="translate(-4.4)"/><path class="cls-83" d="M252.1,13.5l.9,1.9c.8,3.2-1,5.3-2.8,7.4-.8.4-1.7.7-2.5,1.2a3.4,3.4,0,0,1-3.9-1.2c-.4-3.7-.7-7.4-1.1-11.1a3.4,3.4,0,0,1,1.1-2.9,6.5,6.5,0,0,1,6.1,2.3Z" transform="translate(-4.4)"/><path class="cls-71" d="M318.6,45.1a20.9,20.9,0,0,1,.1-2.5,2.6,2.6,0,0,0,1.9-2.2l2.8-2c1.3.1,3-.9,3.9.5a5,5,0,0,1,.3,5.7l-.7,1.1c-2.4,1.1-4.8,1.7-7-.5C319.7,44.9,319,45.1,318.6,45.1Z" transform="translate(-4.4)"/><path class="cls-110" d="M333.7,40.3c0,1.4.1,2.8,0,4.2s-.4,1.3-.7,1.4-1.3-.6-1.5-1.3a23.5,23.5,0,0,1-.5-3.7c-.1-.9-.5-2,.7-2.4s1.3,1.3,2,1.9Z" transform="translate(-4.4)"/><path class="cls-111" d="M334.2,34.3c-.6.3-1,.7-1.3.6s-.5-.6-.8-.9.7-.6,1-.6S333.7,33.9,334.2,34.3Z" transform="translate(-4.4)"/><path class="cls-112" d="M185.2,74.8c-.1,1.1-.3,2.1-.5,3.2a1.9,1.9,0,0,1-1.4.9,1.4,1.4,0,0,1-1-.7,11.4,11.4,0,0,1-.9-2.6c0-3.8,0-7.6.1-11.4a13.4,13.4,0,0,1,.7-2.7c0-.1.5-.3.7-.3a.9.9,0,0,1,.8.4,6.4,6.4,0,0,1,.6,1.8l.9,8.5A2.1,2.1,0,0,1,185.2,74.8Z" transform="translate(-4.4)"/><path class="cls-113" d="M188.7,79.3l-1.7-.7c-.6-2.5-1.3-5.1-.2-7.6,1.1-.3,2.1.1,2.1,1.2S188.7,76.9,188.7,79.3Z" transform="translate(-4.4)"/><path class="cls-114" d="M186.8,71c.1,2.5.1,5,.2,7.6l-1-1.8a11.9,11.9,0,0,1-.8-2V71.9Z" transform="translate(-4.4)"/><path class="cls-115" d="M172.6,42.2l1.9.9c1.8,2.7,1.4,4.7-1.8,5.8h-.2a1.2,1.2,0,0,1-1.7,0h-.1l-1-.7v-.2a1,1,0,0,1-.1-.9l1.2-1.2a2.7,2.7,0,0,0,.8-.7v-.2C172.6,44.2,171.7,42.9,172.6,42.2Z" transform="translate(-4.4)"/><path class="cls-116" d="M172.7,48.9a2.6,2.6,0,0,0,1.9-3.1,24.4,24.4,0,0,1-.1-2.7l.9-1.9c2.2,4.4,1.8,10.5-.8,13.4a11.3,11.3,0,0,0-.1-2.6,14.2,14.2,0,0,0-.8-1.8Z" transform="translate(-4.4)"/><path class="cls-116" d="M172.6,42.2c-.1,1,.2,2.1-1,2.7a26.2,26.2,0,0,0,.1-2.8A1,1,0,0,1,172.6,42.2Z" transform="translate(-4.4)"/><path class="cls-116" d="M169.8,42.1c.6-.6,1.2-1.1,1.9,0Z" transform="translate(-4.4)"/><path class="cls-116" d="M166.7,45.9l.2-1.7.8-.2A1.6,1.6,0,0,1,166.7,45.9Z" transform="translate(-4.4)"/><path class="cls-116" d="M170.7,48.8h1.8C171.9,49.9,171.3,49.8,170.7,48.8Z" transform="translate(-4.4)"/><path class="cls-116" d="M168.6,43l1-.8Z" transform="translate(-4.4)"/><path class="cls-116" d="M167.7,44l.9-1Z" transform="translate(-4.4)"/><path class="cls-116" d="M171.5,45.1l-.8.7Z" transform="translate(-4.4)"/><path class="cls-116" d="M165.9,46.9l.9-1Z" transform="translate(-4.4)"/><path class="cls-116" d="M164.6,47.8l1.2-.8Z" transform="translate(-4.4)"/><path class="cls-116" d="M169.5,47a2.8,2.8,0,0,0,.1.9l-.4-.6Z" transform="translate(-4.4)"/><path class="cls-116" d="M169.7,48.1l1,.7Z" transform="translate(-4.4)"/><path class="cls-116" d="M169.6,50.5l-.8-.5Z" transform="translate(-4.4)"/><path class="cls-117" d="M278.3,10.4a.5.5,0,0,0,.1-.7h0l.8-1a2,2,0,0,1,2,2.2h0c0,2.3-.1,4.7-.2,7.1a21.1,21.1,0,0,1-1.8,2.7,3.7,3.7,0,0,1-5.2.5l-.6-.6a8.2,8.2,0,0,1-1.2-2,11.2,11.2,0,0,1-.4-7c.3-1.2,1.3-1.2,2.3-.9a52.7,52.7,0,0,0,.4,5.6,3.7,3.7,0,0,0,1.2,2.4c.2.3,1.3.3,1.6,0a4,4,0,0,0,1-3.5A5.3,5.3,0,0,0,278.3,10.4Z" transform="translate(-4.4)"/><path class="cls-118" d="M269.5,4.8c.1,1.7.3,3.4.4,5.1.2,3.8.4,7.5.5,11.3,0,.3-.5,1-.8,1a2.8,2.8,0,0,1-1.5-.6c-.3-.3-.3-.9-.4-1.3a2.9,2.9,0,0,0-.5-1.3,4.5,4.5,0,0,0-1.2-.6l-1.3-1.2a2.4,2.4,0,0,0,2.3-2.5h0c.1-3.3.5-6.6.7-9.9" transform="translate(-4.4)"/><path class="cls-119" d="M224.5,44l-.9-2.2c1.3,1,2.4-.2,3.6-.3s.7.5.8.9a2.5,2.5,0,0,1-.2,1.2Z" transform="translate(-4.4)"/><path class="cls-120" d="M225.5,46.8c.6-.8,1.2-1,1.8.1S226,47.6,225.5,46.8Z" transform="translate(-4.4)"/><path class="cls-121" d="M225.5,46.8h1.8Q226.3,48.6,225.5,46.8Z" transform="translate(-4.4)"/><path class="cls-122" d="M69.7,85.2c-.8.2-1.6.1-1.8-.9a19,19,0,0,1-.1-3.4V74.7c-.1-3.7.4-4.2,4-3.9a1.7,1.7,0,0,1,1.6,1.5,24.1,24.1,0,0,1,0,3.8c0,3.2,0,6.4-.2,9.6,0,.9-.7.8-1.4.5-1.8-2.7-.5-5.8-1-8.3v4.8A2.7,2.7,0,0,1,69.7,85.2Z" transform="translate(-4.4)"/><path class="cls-123" d="M70.1,82.6c-.1-2.7-.1-5.4-.1-8.1,0-.4.5-.7.7-1.1s.9.6.9.9v3.8c0,1.3.2,5.4.2,8.1H71a1.1,1.1,0,0,0-.2-.8C69.9,84.6,70.7,83.4,70.1,82.6Z" transform="translate(-4.4)"/><path class="cls-124" d="M70.1,82.6c.2.9.5,1.8.7,2.7H69.7A25.1,25.1,0,0,1,70.1,82.6Z" transform="translate(-4.4)"/><path class="cls-125" d="M88,63.3l-.2.3.2.3c-.4,2-.7,4.1-1,6.1-2.5-.3-1.5-2.6-2.2-3.8-1,1.9,1.1,4-.6,5.7-.1,1.2-.1,2.4-.2,3.6s-2,.3-2.3-.9-.3-2.5-.5-3.7l-.6-6,.2-.4-.3-.3a2.5,2.5,0,0,1,.1-3.5.1.1,0,0,1,.1-.1h-.1c2.6-1.5,5-.6,7.3.9h0C88.8,62,88.6,62.6,88,63.3Z" transform="translate(-4.4)"/><path class="cls-126" d="M174.6,54.6c1-.8.9-1.9.9-3,0-3.5-.1-7-.1-10.4.2-1.2,1.1-.6,1.7-.7s.4,1.6,1.5,1.6a4.7,4.7,0,0,1,3.9,1.3,2.4,2.4,0,0,1,.5,3.2l-.5.5a15.9,15.9,0,0,1-2.9,1.5l-1.8.6-.6,9.1C174.5,58.1,174,57.4,174.6,54.6Z" transform="translate(-4.4)"/><path class="cls-127" d="M185.9,33.7l.9.9v2c.1,1-.1,2.5.5,3.1s2,.2,3.1.4.9.5.9.8a2.6,2.6,0,0,1-.7,1.1l-1.3.4c-1.6.4-2.6,1.2-2.3,3a14.2,14.2,0,0,1-.2,2.9c-.2,1.4-1.3,1.6-2.5,1.3-.9-4.6-.4-9.3-.2-14,0-.6.7-1.3,1-1.9Z" transform="translate(-4.4)"/><path class="cls-117" d="M144.6,68.2l.9,1c0,1.5-.2,3.1-.1,4.6s.3,1.8,1.3,1.6a2.9,2.9,0,0,0,1.6-1.5,11.4,11.4,0,0,0,.9-2.6c.5-1.4.5-1.4,3-1.1a23.1,23.1,0,0,0,1,2.8c0,1.1.3,1.8,1.6,1.7l2.2-.3c1.4.8,2.2,1.7,1.1,3.3-.8-.1-1.2-1.4-2.4-.7s-2.3,1-3.1.6a4.4,4.4,0,0,0-5,.6c-1.3.9-2.8.3-3.8-.8a12.7,12.7,0,0,1-1.8-2.7V70.1a16.2,16.2,0,0,0,1-1.8Z" transform="translate(-4.4)"/><path class="cls-128" d="M158.1,77.7c-.3-1.1-.7-2.2-1.1-3.3a17.3,17.3,0,0,1-.3-3.2,3.1,3.1,0,0,1,.7-2c.6-.7,1.3-.1,2,.4s.8.3,1.2.2.4-.3.6-.5h4.4l1,.9a11.9,11.9,0,0,1,1.3,6.4,2.1,2.1,0,0,1-1.1,1.3c-.2.2-.8-.3-1.1-.6a2.3,2.3,0,0,1-.7-.7,9.1,9.1,0,0,0-.3-2.3c-.3-.9-.5-2.1-1.6-1.9a3.2,3.2,0,0,0-2,1.8c-.6.9-.6,2.1-1.1,3.1a1.2,1.2,0,0,1-1.4.8A1,1,0,0,1,158.1,77.7Z" transform="translate(-4.4)"/><path class="cls-129" d="M130.5,38.5H134l.3.9c.2.8.3,1.8-.7,1.8-3.1,0-3.9,2.3-4.7,4.5a1.6,1.6,0,0,0,.6,2.2,2,2,0,0,0,1.3.1c2.2-.6,4.7-.8,5.6-3.5a7.6,7.6,0,0,1,1.7-2.3c1.8-.8,3.4-.8,4.7,1s.5,1.3.9,1.9h0c1.4,1.7.1,2.7-.9,3.7s-4.3,2.9-6.8.8a1.5,1.5,0,0,0-1.3,0,20.7,20.7,0,0,1-3.4,1.5c-3.5.7-6.1-1.6-5.7-5.1.2-1.3.7-2.5,1-3.7Z" transform="translate(-4.4)"/><path class="cls-130" d="M148.7,40.5l1.8-.2c2.6,1.5,3.5,4,3.8,6.7a2.9,2.9,0,0,1-.3,1.8,1.9,1.9,0,0,1-1.4.9c-.3.1-.9-.4-1-.8s-.7-2.7-1.1-4a.8.8,0,0,0-.7-.5,1,1,0,0,0-.7.4l-1.7,3.9c-.5,1.1-1.4,1-2.4.9s0-.5-.3-.7-.5-2.6-.1-3.9,0-2.7,1.2-3.7a2.1,2.1,0,0,0,2.9-.8Z" transform="translate(-4.4)"/><path class="cls-131" d="M144.6,45c.1,1.3.1,2.6.1,3.9h-1.9l.9-3.7Z" transform="translate(-4.4)"/><path class="cls-132" d="M369.3,46l-2,1-2.6-1.1-.3-.8c-.2-.4-.3-.9-1-.7h0c-.2-1-1.3-.6-1.7-1.1h-.1l-.9-.9h-.1a3.6,3.6,0,0,1-.4-1.1c.1-.2.1-.4.2-.6l.4-.4,3.7,2.2,4.6,3C369.2,45.5,369.2,45.8,369.3,46Z" transform="translate(-4.4)"/><path class="cls-133" d="M359.8,39.2l1,.9a.5.5,0,0,0-.5.3,1.1,1.1,0,0,1-.2.8h-.4l-.9-1.1C358.5,39.3,358.8,38.9,359.8,39.2Z" transform="translate(-4.4)"/><path class="cls-133" d="M359.8,39.2l-1,1-1.1-1c0-.9.2-1.5,1.3-1Z" transform="translate(-4.4)"/><path class="cls-134" d="M359,38.2l-1.3,1c-.8-.4-1.2-1.1-.4-1.7S358.7,37.4,359,38.2Z" transform="translate(-4.4)"/><path class="cls-135" d="M361.7,43.2c.8,0,1.6.1,1.7,1.1l-1.5-.4A1.9,1.9,0,0,0,361.7,43.2Z" transform="translate(-4.4)"/><path class="cls-135" d="M360.8,41.3c-.1.3-.1.6-.2.9l-.9-.9c0-.3,0-.4.2-.6Z" transform="translate(-4.4)"/><path class="cls-135" d="M360.7,42.2l.9.9Z" transform="translate(-4.4)"/><path class="cls-130" d="M103.3,61.5c0,2.5,0,5,.1,7.5a8.6,8.6,0,0,0-.1,1.6c-.3,1.4-.5,2.7-.8,4s-.9,1.1-1.7,1c-1.4-2.3-.2-5-1.1-7.4-.2,1,.4,1.9.4,2.9s1.4,4.5-2.4,3.9c-1.2-4.8-1.1-9.6-.8-14.5l4-.2C102.1,60.2,102.6,60.9,103.3,61.5Z" transform="translate(-4.4)"/><path class="cls-136" d="M97.7,75c1,.1,1.8-.1,1.8-1.4V70.4c0-2.1-1.6-4.4.9-6.1.1,3.8.2,7.5.4,11.3C99.7,75.5,98.4,76.6,97.7,75Z" transform="translate(-4.4)"/><path class="cls-137" d="M83.1,42a11.4,11.4,0,0,1-1,1.9c-1.1,1.2-.4,2.7-.6,4a20.7,20.7,0,0,1-.4,2.3c-.2.8-.5.3-.8.4a1,1,0,0,1-.7-.4,5.8,5.8,0,0,1-.4-1.8V39.9a3.6,3.6,0,0,1,1.3-3.4h1.3c2.6-.2,2.6-.2,2.3,2.7A3.3,3.3,0,0,0,83.1,42Z" transform="translate(-4.4)"/><path class="cls-137" d="M63.3,44.9c.2-.1.3-.4.2-.5l-.2-.2c1.5-1.8,3.8-2,5.8-2.8.4-.1,1,.6,1.6.9v6.5c-.3,3.2-.6,6.4-.8,9.6a8.5,8.5,0,0,1-.3,2.3,1,1,0,0,1-1.4.4,1,1,0,0,1-.4-.5c-1.5-2.5-.5-5.2-.8-7.9V49.2a10.7,10.7,0,0,0-.3-2.5c-.1-.5,0-.7.4-.6H67c-.7.1-.4.6-.4.9a12.9,12.9,0,0,1,.4,1.9v2.9A70.1,70.1,0,0,1,66.4,63a1.3,1.3,0,0,1-1.9.5l-.3-.2V55.6a2.6,2.6,0,0,0,0-2.9Z" transform="translate(-4.4)"/><path class="cls-138" d="M65.8,63.3c.1-4.2.3-8.4.4-12.6.8-.2,1.2.3,1.6.9v9c-1.1.9-.8,2.2-1.1,3.4h-.8c-.2-.2-.3-.3-.3-.5S65.7,63.3,65.8,63.3Z" transform="translate(-4.4)"/><path class="cls-139" d="M64.2,52.7c1,1.5,1,1.5,0,2.9Z" transform="translate(-4.4)"/><path class="cls-139" d="M65.8,63.3a2.2,2.2,0,0,1,.1.8c-.8.4-1.6.5-1.7-.8Z" transform="translate(-4.4)"/><path class="cls-69" d="M402,41.2c1.6,1.6,1.3,3.2.1,4.8C402.1,44.4,402.1,42.8,402,41.2Z" transform="translate(-4.4)"/><path class="cls-69" d="M401.9,47.8a1.3,1.3,0,0,1-.5,1.9h-.2a9.7,9.7,0,0,1,.1-1.7Z" transform="translate(-4.4)"/><path class="cls-37" d="M424.1,77.7c-1.1-.7-.9-1.8-1-2.9s.6-1.3,1-1.9a9.7,9.7,0,0,1,.1-2.4,3.8,3.8,0,0,1,3.9-3.3,2.6,2.6,0,0,1,2.1.6c.5.4.4,1.4.5,2.2a6.6,6.6,0,0,0-1.9,5c0,1.2-.8,1.6-1.8,1.7s1.7,1.2,1.6,2.2-.7,2,0,3a.6.6,0,0,1,.1.4,4.5,4.5,0,0,1-3.6-.8v-.9C424.6,79.6,425.2,78.4,424.1,77.7Z" transform="translate(-4.4)"/><path class="cls-140" d="M84.2,71.9c-.2-2.4-.5-4.9-.7-7.4s.8-1.4,1.8-1.2c.4,2.9,1,5.8-.2,8.7h-.9Z" transform="translate(-4.4)"/><path class="cls-141" d="M85.1,72c.1-2.9.2-5.8.2-8.7,1.1.8.8,2,.9,3.1S85.9,69,87,70a9,9,0,0,1,.2,2.3c0,.5-.5.9-.8,1.3l-1.2-1.2A.6.6,0,0,1,85.1,72Z" transform="translate(-4.4)"/><path class="cls-142" d="M161.5,109.2c-1.5.1-3.1.6-4.3-.7Z" transform="translate(-4.4)"/><path class="cls-137" d="M192.9,74.9l.8-2a7.6,7.6,0,0,1,2.3-1.7,3,3,0,0,1,2.1.3,1.8,1.8,0,0,1,.4,1.7,16.1,16.1,0,0,1-1.7,2.8,2,2,0,0,0-.1,1.3.8.8,0,0,0,.9.3l3.2-.6a2.3,2.3,0,0,0,1.6-2.1,16.4,16.4,0,0,1,.5-3.2,1.5,1.5,0,0,1,1-.9c.6.1,1.4.4,1.5.8a15.7,15.7,0,0,1,.5,3.7c.1.5.1,1,.2,1.5a.6.6,0,0,0,.5.6.8.8,0,0,0,.8-.2,5.5,5.5,0,0,0,1.8-5.1c.9-1.3,2-1.9,3.4-.9.2,2.7.3,5.4.4,8a2.4,2.4,0,0,1-.9,1.5,1.5,1.5,0,0,1-1.3-.3c-1-1.9-1.9-1.3-3.2-.3s-2.6,1.1-3.4,0-2.7-.9-4.1-.3l-.8.5h-.5C194.2,80.3,193.5,79.7,192.9,74.9Z" transform="translate(-4.4)"/><path class="cls-143" d="M211.8,47.8a8.6,8.6,0,0,1-1,1.6c-.5.4-1.5.2-1.6-.3s-.2-2.8-.4-4.2-.6-.8-.9-.8a1.1,1.1,0,0,0-1.1.6,28.8,28.8,0,0,0-1.3,3.1c-.6,1.4-.6,1.4-2.9.8V45.9a14,14,0,0,1,.6-4.1c.5-1.4,2.3,0,3.3-.9l.7-.6H209l1.7,1.1A12.8,12.8,0,0,1,211.8,47.8Z" transform="translate(-4.4)"/><path class="cls-144" d="M123.9,78.3a4.6,4.6,0,0,1-1.6-3.3,6,6,0,0,1,1.7-3.8c.8-.8,1.7-1.4,2.5-2.1,2.6-.3,2.6-.3,2.6-2.1a13.1,13.1,0,0,1,0-2.8c0-.7.1-1.7,1.1-1.7s1.2.6,1.8,1c.2,3.6.4,7.2.5,10.8,0,.7.1,1.7-.3,2.2s-1.4.3-2.1.5l-2.1.9A6.4,6.4,0,0,1,123.9,78.3Z" transform="translate(-4.4)"/><path class="cls-145" d="M298.1,68.1a2.2,2.2,0,0,0-.5-.8h0c.7.1,1.7-.7,1.7.8A.9.9,0,0,1,298.1,68.1Z" transform="translate(-4.4)"/><path class="cls-146" d="M298.1,68.1h1.2a4.1,4.1,0,0,1-.5.9Z" transform="translate(-4.4)"/><path class="cls-69" d="M400.9,50.6l1.1,1.2c-.4.8-1,1.2-1.6.5S400.1,50.9,400.9,50.6Z" transform="translate(-4.4)"/><path class="cls-147" d="M150,107.3h-3.3l-1.2-1Z" transform="translate(-4.4)"/><path class="cls-148" d="M137,105.5l3.2-.2,1.6.3-2,1a2.3,2.3,0,0,1-1.8.6l-1.1-.5A1,1,0,0,1,137,105.5Z" transform="translate(-4.4)"/><path class="cls-149" d="M140,107.3l2.8.4,1.1.5a1.3,1.3,0,0,1,.1,1.2,1.6,1.6,0,0,1-1.1.5,4.2,4.2,0,0,1-2.8-1,1.6,1.6,0,0,1-.5-1.1Z" transform="translate(-4.4)"/><path class="cls-150" d="M143.8,109.2v-.5c.2-.7.6-.8,1.1-.4h2l.6.3C146.6,111,145.2,110.3,143.8,109.2Z" transform="translate(-4.4)"/><path class="cls-151" d="M144.8,108.3l-1.1.4-.9-1Z" transform="translate(-4.4)"/><path class="cls-152" d="M137.8,106.6h2c.1.2.1.5.2.7v.4a1.9,1.9,0,0,1-1.9.1A1.3,1.3,0,0,1,137.8,106.6Z" transform="translate(-4.4)"/><path class="cls-153" d="M143.8,109.2c1.2,0,2.6.8,3.6-.6l3,.3,1,.6c.3,1.5-.8,2.4-1.2,3.6l-.9,1c-5.8,1.4-7.5.1-6.4-4.7Z" transform="translate(-4.4)"/><path class="cls-154" d="M93.7,44.8c-.1-.3-.1-.5.2-.7s.3-1.4.8-2h.1c.4-.3.8-.6.8-1.2l.9-.9,1.1-.5h1.1l1,.6h0a2.4,2.4,0,0,1-.1,2.8h-.1l-.4.3-.4-.3h-.1c-.6-.8-1.2-.6-1.8,0h0c-.7.6-.6,1.5-.8,2.3v1.1c.4.7.1,1.7,1.1,2.1a.6.6,0,0,1,.6,0l.9-.5c1.3-1.1,3-1.6,3.4-3.6a6.2,6.2,0,0,1,2.4-2.9,3.3,3.3,0,0,1,2.2-.1,2,2,0,0,1,.9,2.5,5.1,5.1,0,0,1-.9,1.6l-1.9,2c1.5,0,2.6-.1,3.6,0a4.8,4.8,0,0,1,1.6.8c-.3.5-.5,1.2-.9,1.5-2.2,1.9-4.4,1.7-6.4-.2s-1.7-.2-2.5.2a1.6,1.6,0,0,0-1.3.8h0a3.2,3.2,0,0,1-3,0h0a1.2,1.2,0,0,0-1-.9h0a4.1,4.1,0,0,0-.7-1.1.4.4,0,0,1-.3-.6.3.3,0,0,1,.1-.2A3.3,3.3,0,0,1,93.7,44.8Z" transform="translate(-4.4)"/><path class="cls-67" d="M95.7,50.9h3a1.9,1.9,0,0,0-.2.7C97.6,51.5,96.4,52.1,95.7,50.9Z" transform="translate(-4.4)"/><path class="cls-67" d="M93.7,44.8c0,1.1.1,2.2.1,3.3l-.7-.3a22.6,22.6,0,0,0-.1-2.6Z" transform="translate(-4.4)"/><path class="cls-67" d="M94,48.9l.7,1.1Z" transform="translate(-4.4)"/><path class="cls-67" d="M94.7,50l1,.9Z" transform="translate(-4.4)"/><path class="cls-135" d="M363.4,44.4a3.9,3.9,0,0,1,1,.8A3.9,3.9,0,0,0,363.4,44.4Z" transform="translate(-4.4)"/><path class="cls-155" d="M283,110.3c3.3-.2,6.7-.5,9.5-2.7h2l1,.9h0a.7.7,0,0,1,.2.6.8.8,0,0,1-.2.4l-3.3.4c-1.9.4-2.1.7-2.5,3.4h0c-2.4,1.2-5.8-1.5-7.6,2-1.1,1.1-2.5.8-3.8,1a51.6,51.6,0,0,0-14.5,2.7l-6.1,1-2.7.8c-4.7,0-9.5.8-14.2.3-.3-.3-.4-.5-.3-.7l.2-.4a1.8,1.8,0,0,0,1-.2c1.1-.8,2.1-1.9,3.7-1a2.4,2.4,0,0,0,2.3-.1c1.6-1.2,3.2-.7,5-.7s4,.5,5.8-1.2a4.5,4.5,0,0,1,3.2-.6,6.4,6.4,0,0,0,5.9-2.3c.8-1.1,1.6-1.3,2.8-.4a2.5,2.5,0,0,0,2.2.5c2-1.2,3.5-.1,5.2.6l.4-.3c.6-.5.4-1.4.9-2h0C280.2,111.2,281.7,111.1,283,110.3Z" transform="translate(-4.4)"/><path class="cls-54" d="M172.6,112l12.5,1.3c1.1,4.2.8,4.6-3.6,5.2s-6,1.5-8.9,2.4l-6.6-.2-3.1-.7-3.9-1c1.1-1.4,5-1.4,2.5-4.8a2.8,2.8,0,0,1,.4-1.2c2.5-.8,4,1.2,6,2.2-1.1-1.8-.3-2.8,1.2-3.4A10.2,10.2,0,0,1,172.6,112Z" transform="translate(-4.4)"/><path class="cls-156" d="M181.2,117c2.8,1,3.4.7,3.8-1.8a12.1,12.1,0,0,0,.1-1.9H187a8.6,8.6,0,0,0,2.1.7h7.5c3.5.9,7.1,3,10.6,0h6.6q1.5,1.9,3,0h.9a3.5,3.5,0,0,1,1,2.5,4.5,4.5,0,0,1-.4,2,3.1,3.1,0,0,1-1.1.9c-2.3.6-5.2-3.2-7,1a2.8,2.8,0,0,1-.9,1,5.3,5.3,0,0,1-1.7.8c-2.1.5-4.1-1.1-6.3-.3h-.9c-1.1-.8-1.2-2.8-2.9-2.9-4.2-.2-8.4-.5-12.4,1a5.4,5.4,0,0,1-1.6,1,2,2,0,0,1-1.3.2l-1.1-.7-.6-1.1A2.6,2.6,0,0,1,181.2,117Z" transform="translate(-4.4)"/><path class="cls-157" d="M184.1,119.9c.5-.6.9-1.3,1.4-1.8a2.4,2.4,0,0,1,3.4-.5h0c.8.6,1.6,1.1,2.6.5a5.3,5.3,0,0,1,5.3-.3,9.2,9.2,0,0,0,2.9.4c.2,1.2.5,2.5.7,3.7l-20-.2a15.5,15.5,0,0,1-3.1-.7c1-1.4,2.2-2.2,3.9-1.1h0l1,.9h.9Z" transform="translate(-4.4)"/><path class="cls-158" d="M240.7,119.9a4.1,4.1,0,0,1,.1,1.1,9.2,9.2,0,0,1-2.7.8,44.3,44.3,0,0,0-8.9,1.2,14.9,14.9,0,0,1-4.2.3,29.9,29.9,0,0,1-7.3-.4c-.4-.5-1-.7-1.3-1.3a2.8,2.8,0,0,1,1.3-2.6h0c.4-.6.7-1.4,1.5-1.7a4.2,4.2,0,0,1,4.3.7c0,.2-.1.3,0,.5.3,3.5,1.2,4.1,3.9,2.5a26,26,0,0,1,3.6-1.3c.8-.2,1.4-1.1,2.1-1.7s2.8.1,3.6,1.5,2,.9,3.1.4Z" transform="translate(-4.4)"/><path class="cls-157" d="M216.8,121.8l.9,1.1H205.9c-1.6,0-3.2.3-4.6-.8,1.5-1.8,1.6-2,3.2-.9s2.4.6,3.6.7l1-.9h0C211.8,120,214.8,117,216.8,121.8Z" transform="translate(-4.4)"/><path class="cls-159" d="M181.2,119.9l-3.9,1h-4.7a11.9,11.9,0,0,0,1.8-1.5c1.8-2.2,4.2-2.7,6.8-2.4Z" transform="translate(-4.4)"/><path class="cls-160" d="M129.1,114.3c-5.7-1.8-11.7-2.2-17.1-4.9a3.9,3.9,0,0,1,1-.8l2.6-.6c1.8-.4,3.8-.8,5.2-.1,2.9,1.5,3.9.4,4.5-2.1,3.2-.5,6.3.7,9.4.8a6.1,6.1,0,0,1,2.6,1.5C136.9,111.9,134.5,113.7,129.1,114.3Z" transform="translate(-4.4)"/><path class="cls-151" d="M129.1,114.3c1.8.1,1.8-2,2.9-2.5s2.7.1,3.8-1a10.1,10.1,0,0,0,1.2-2.3,2.2,2.2,0,0,1,3,0l2.9.9a6.1,6.1,0,0,0,.1,1.9c.4,1.4,1,2.4,3,2.3s2.4.3,3.5-.4c1.6,1.2,3.2,2.4,2,4.8a20.2,20.2,0,0,1-7.7-1c-2.3-1.7-4.3-3.8-7.5-1.6-1,.7-2.8.4-4.2-.2Z" transform="translate(-4.4)"/><path class="cls-161" d="M115.9,109.3h-2.8c-1-.6-2.2-.1-3.2-.7l-3.7-1.8c-.7-1.6-2.8-1.7-3.7-3.1h0c-.4-4.2,2.3-2,4-2a.8.8,0,0,1,.8.2c.8.7,2.1,0,2.9.8l1.9.2c1.8,1,4.1-.7,5.9.8a10.7,10.7,0,0,1,2.8,1.9c.8,1.9-.1,2.7-1.9,2.3S116.6,108.3,115.9,109.3Z" transform="translate(-4.4)"/><path class="cls-162" d="M101.7,93.9h.8l1.8,1.1,2,.9,3.9,1.9a2,2,0,0,0,2.1.8.8.8,0,0,1,.8.2l2,.8a.6.6,0,0,1,.8.1v.9a.8.8,0,0,1,.4.7c-.1.2-.1.4-.2.4a1.3,1.3,0,0,1-1.2,0l-.2-.4a1.6,1.6,0,0,0-.9-.5l-1.9-.4a1.6,1.6,0,0,0-.9-.5c-3.3-1-6.7-1.8-9.5-4.1a3.9,3.9,0,0,0-1-.8c-.9-.4-1.9-.7-1.7-2.1a1.1,1.1,0,0,1,1.5-.2c.1.1.2.1.2.2h.1Z" transform="translate(-4.4)"/><path class="cls-163" d="M132.1,115.2H134a3.8,3.8,0,0,0,3.6-1.7c1.3-1.6,2.7-1.5,3.9.1s1.6,2.3,2.3,3.5h-4.7c-1.1-.2-2.1-.6-3.1-.7S133.2,116.2,132.1,115.2Z" transform="translate(-4.4)"/><path class="cls-164" d="M114.9,101.8l1-.3a2.2,2.2,0,0,1,1.8-.2,8.2,8.2,0,0,0,2,1.2v.4a.7.7,0,0,1,.3.6.4.4,0,0,1-.1.3,2.3,2.3,0,0,1-1.2,1c-.3.2-.6.1-.9-.2l-3.2-.9-2.6-.9C113,102.4,114.2,102.9,114.9,101.8Z" transform="translate(-4.4)"/><path class="cls-165" d="M106.5,101.6h-1.8a1.9,1.9,0,0,0-2.2,1.6v.3c-.3-.5-.8-1.1-.8-1.6s.8-1.9,1.8-1.6A10.1,10.1,0,0,1,106.5,101.6Z" transform="translate(-4.4)"/><path class="cls-165" d="M102.5,103.6l.8.3c1.9,0,2.6,1.2,2.9,2.8C104.6,106.2,102.8,105.8,102.5,103.6Z" transform="translate(-4.4)"/><path class="cls-165" d="M110.2,102.6c-1.1.1-2.1.2-2.9-.8A2.9,2.9,0,0,1,110.2,102.6Z" transform="translate(-4.4)"/><path class="cls-166" d="M109.9,108.5c1.2-.1,2.3-.3,3.2.7l-1.1.2Z" transform="translate(-4.4)"/><path class="cls-167" d="M100.5,93H98.8a1,1,0,0,1-.1-.9l1.7.2C100.4,92.5,100.5,92.8,100.5,93Z" transform="translate(-4.4)"/><path class="cls-20" d="M113.8,100.9l.9.5Z" transform="translate(-4.4)"/><path class="cls-167" d="M100.5,95.1l1,.8Z" transform="translate(-4.4)"/><path class="cls-20" d="M111,100l.9.5Z" transform="translate(-4.4)"/><path class="cls-153" d="M151.5,118l-.9-2.2c-.3-.9-.7-1.7-1.1-2.6h.1c2.1-.8,4.3-.4,6.5-.3s4.1,1.4,2.9,4.3a2.2,2.2,0,0,1-.9,1c-1.9-.1-3.7-1.5-5.7-.2Z" transform="translate(-4.4)"/><path class="cls-153" d="M162,114.2l.3.3c.5.8,2.1.3,1.9,1.7a3,3,0,0,1-2.4,2.6,13.2,13.2,0,0,1-2.8.2h-.4l-.4-.2c-.3-.2-.5-.4-.3-.6l.3-.3h0C159.8,117.1,159.4,114.1,162,114.2Z" transform="translate(-4.4)"/><path class="cls-151" d="M158.2,118v.9c-2-.1-4,.3-5.8-.9l1.4-1.8a1.2,1.2,0,0,1,1.6-.4l.3.2Z" transform="translate(-4.4)"/><path class="cls-168" d="M263.8,118.9c1.2-.6,2.9-.9,3.5-1.9a2.7,2.7,0,0,1,3-1.2,71.4,71.4,0,0,0,8,.4,2.4,2.4,0,0,1-.2.8c-3.2-.3-6.2.7-9.2,1.3Z" transform="translate(-4.4)"/><path class="cls-169" d="M118.8,104.4l1-.8c.5-.6,1.2-.4,1.9-.5a3.1,3.1,0,0,1,1.9.4l5.5,1.1c1.3.9,3-.1,4.2.9s.3.3.5.1a7.1,7.1,0,0,1,3.3.7.9.9,0,0,0,.7.3c.1.3.1.6.2.9a3.2,3.2,0,0,1-3.3,0l-10.1-1c-1.1.7-1.9,0-2.8-.4a4,4,0,0,0-1.5-1C119.8,105,119.1,105.1,118.8,104.4Z" transform="translate(-4.4)"/><path class="cls-170" d="M131.1,102.9l.4.6c-1.4,0-2.9.5-4.1-.8Z" transform="translate(-4.4)"/><path class="cls-171" d="M133.3,105.5l-4.2-.9C130.6,104.6,132.1,104.2,133.3,105.5Z" transform="translate(-4.4)"/><path class="cls-172" d="M117.7,101.9l-1.8-.4v-.8l2.2-.2a.6.6,0,0,1,.7.2,2.8,2.8,0,0,1-.1.9.6.6,0,0,1-.9.3Z" transform="translate(-4.4)"/><path class="cls-171" d="M137.1,106.3l-3.3-.7H137C137,105.8,137.1,106.1,137.1,106.3Z" transform="translate(-4.4)"/><path class="cls-173" d="M123.6,103.5h-1.8c-.3-.1-.5-.3-.4-.6A1.9,1.9,0,0,1,123.6,103.5Z" transform="translate(-4.4)"/><path class="cls-174" d="M121.4,102.9a2.1,2.1,0,0,0,.4.6h-2v-.7Z" transform="translate(-4.4)"/><path class="cls-173" d="M117.7,101.9l1-.3,1,.9Z" transform="translate(-4.4)"/><path class="cls-173" d="M120.9,101.1l1.2.4Z" transform="translate(-4.4)"/><path class="cls-175" d="M298.3,110.4c1.6-.3,3.5.5,4.9-1s4.8-2.1,7.5-2.4c.9-.1,1.4.5,1.2,1.5-2.3,3.5-5.5,6.1-8.7,8.8-1.5,1.2-2.2,1.1-3-.5s-1.3-2.9-1.9-4.3Z" transform="translate(-4.4)"/><path class="cls-53" d="M295.5,109.4v-1l.9.9Z" transform="translate(-4.4)"/><path class="cls-176" d="M282.1,115.2a7.7,7.7,0,0,1,1-2.5c1-1.3,1.7-1.4,3.1-.5a6.2,6.2,0,0,0,3.5,1c-.2.2-.4.6-.7.7Z" transform="translate(-4.4)"/><path class="cls-177" d="M352.1,92.1,346.5,97l-.4-.4-.4-.4-.4-.4L351,91a.6.6,0,0,1,.7.1A4.2,4.2,0,0,0,352.1,92.1Z" transform="translate(-4.4)"/><path class="cls-167" d="M101.7,93.9l-1.1-.8h.8Z" transform="translate(-4.4)"/><path class="cls-178" d="M104.3,1.8a27,27,0,0,0,9.5,10.9l1,.8c0,.2.1.3.1.5.4,1.9.3,2-1.7,2.2a7.4,7.4,0,0,1-4.4-2.2l-1-.9-.5-.4c-1.5-1.5-3.3-2.8-3.7-5.2a.9.9,0,0,0-.3-.7" transform="translate(-4.4)"/><path class="cls-179" d="M109.1,13.4c1.4.9,2.8,1.8,4.1,2.8l-1.3,1.2a.8.8,0,0,1-.9,0l-.3-.2h-.4a1.7,1.7,0,0,1-1.4.3c-1.8-1.4-3.3-2.9-.8-5h.1A2,2,0,0,1,109.1,13.4Z" transform="translate(-4.4)"/><path class="cls-180" d="M111,17.4h.9l-.6.8A1.1,1.1,0,0,1,111,17.4Z" transform="translate(-4.4)"/><path class="cls-181" d="M390.7,87.6l-1.3-1.3a7.6,7.6,0,0,1,1.2-1.9c.1-.1.9.2,1,.5A2.1,2.1,0,0,1,390.7,87.6Z" transform="translate(-4.4)"/><path class="cls-182" d="M358.8,115.1c-.1.5-.1,1-.2,1.4-.5,1.9-.5,1.9,1.5,1.9s1.8.8,1.4,1.7-2.4,4-5.4,3.7c-1.4-.1-2.9.6-4.6,1a23.8,23.8,0,0,0,.5-2.6,3.7,3.7,0,0,1,1.2-2.4c.2-.1.3-.2.3-.4,1.2-3,1.2-3,3.7-3.7.2,0,.4-.4.7-.6Z" transform="translate(-4.4)"/><path class="cls-183" d="M381.9,117c-1.1,1.9-.7,3.7.2,5.5a18.4,18.4,0,0,0,1.7,2.2c-2.3.1-4.4,0-6.3-1.6s-2-.2-2.8,1,.2,1.6-1,1a1.5,1.5,0,0,1-.3-1.3c.3-1.3.3-3,1.1-3.9a15.1,15.1,0,0,1,4.4-3.5,2,2,0,0,1,2.9.5Z" transform="translate(-4.4)"/><path class="cls-12" d="M399.1,111.3l2-1a24.5,24.5,0,0,1-.2,2.7,2.1,2.1,0,0,1-1.4,1c-.8,0-.7-.7-.6-1.4A3,3,0,0,0,399.1,111.3Z" transform="translate(-4.4)"/><path class="cls-37" d="M419.3,90.2c.2.2.4.5.7.6s2.9.4,3.6,1.2.4,2.6.5,4h.1l-1.3.6c-.9.7-2.1,2.2-1.9-.6a14.4,14.4,0,0,0-2.7-2.2c-.5-.2-1.4.5-2.1.6a1.5,1.5,0,0,1-1.7-2.1C415.5,90.4,417.3,89.9,419.3,90.2Z" transform="translate(-4.4)"/><path class="cls-37" d="M419.1,90.3c.3-.9.7-1.7.9-2.4s2.1-2.1,3.7-2.2,1.3.7,1.3,1.5a6.1,6.1,0,0,1-.5,1.8c-.1.2-.7.5-.7.5C421.9,87.5,420.7,89.4,419.1,90.3Z" transform="translate(-4.4)"/><path class="cls-184" d="M352.1,92.1a4.2,4.2,0,0,1-.4-1H353Z" transform="translate(-4.4)"/><path class="cls-5" d="M427.9,58.5a3.5,3.5,0,0,1,.3-1.4,3.9,3.9,0,0,1,1-.8.9.9,0,0,1,.6.6,35.7,35.7,0,0,1,1,3.5A3,3,0,0,1,427.9,58.5Z" transform="translate(-4.4)"/><path class="cls-12" d="M424.1,77.7c1.9.6,1.9.6,1,2.9C423.9,79.9,424.1,78.7,424.1,77.7Z" transform="translate(-4.4)"/><path class="cls-12" d="M424.1,72.9l.4.8a5,5,0,0,1,.2,1.2h-1.6A12.4,12.4,0,0,0,424.1,72.9Z" transform="translate(-4.4)"/><path class="cls-5" d="M427.9,53.7l2-1Z" transform="translate(-4.4)"/><path class="cls-5" d="M427,54.6h.9Q427.5,55.6,427,54.6Z" transform="translate(-4.4)"/><path class="cls-185" d="M345.7,96.2c.3,0,.4.1.4.4h-.4Z" transform="translate(-4.4)"/><path class="cls-186" d="M58.4,32.6l-1.1.9C53.2,29,49.9,24,45.7,19.7c-1.3-1.3-2.5-2.8-2.3-5s3.2-1,4.3-2.4h0a1.1,1.1,0,0,1,1.1,0,34.1,34.1,0,0,1,3.7,4.8,11.7,11.7,0,0,0,5,4.6c2.5,3.5,3.8.1,5.5-1,1.7.7,2.3,2.2,2.7,3.8a3.3,3.3,0,0,1-.1,1.4c-1.1,2.3-2.1,4.5-5.6,3.7S60.3,32.3,58.4,32.6Z" transform="translate(-4.4)"/><path class="cls-187" d="M108.1,12.6c-1,1.8.2,3.2.9,4.8s.4.4.2.5a.5.5,0,0,1-.4.2l-7.1,2.1c-1.5.1-3.4-.7-4,1.6l-1,.2c-1.4.9-2.5.2-3.1-1s.6-2.9,1.8-4l.9-.9c2.6-3.6-.1-5.1-2.6-6.7,3.2-1.2,6.4-2.2,9.9-1.9Z" transform="translate(-4.4)"/><path class="cls-188" d="M82.6,27,70.7,31.3c-.9-.5-2.3.4-3-1s2.5-1.7,3.9-2.3c3.8-.7,4.1-3.1,3-6.2-.2-.8-.1-1.8-1.2-2.1l-1-.2a4.1,4.1,0,0,1-1.7-1.2l-.7-.7-.2-.5c4.8-2.7,10.2-3.6,15.4-4.8-.8,2.5.7,4.5,1.3,6.7-.4,6.3-5,2.8-7.9,3.3-.4.2-.9-.5-.9-.3s.5.3.8.5C80.6,23.3,81.4,25.3,82.6,27Z" transform="translate(-4.4)"/><path class="cls-189" d="M86.2,19.1c-.2-.4-.2-1.1-.5-1.2-2.4-1-2.9-2.6-1.4-4.5l.9-1.1,8.5-2.9,3.3.2A1.6,1.6,0,0,1,98.6,11a4.3,4.3,0,0,1-.1.5,12.2,12.2,0,0,0,0,2.7,2.7,2.7,0,0,1-1.8,3c-1.8-3.1-3.5-6.4-8.1-3.2,1.7,3.6,6.1.6,8.1,3.2l-1.8,1.5c-1.2,1.1-1,2,.5,3l1.3.3-8.5,3C88.9,22.6,87,21,86.2,19.1Z" transform="translate(-4.4)"/><path class="cls-190" d="M44.1,14.3c.6,2.8,2.3,4.9,4.1,6.9l8.7,10a2.4,2.4,0,0,1,.4,2.3H55.5l-3.7-3c-1.8-2.2-3.4-4.5-5.3-6.6s-4.1-4.9-4.9-8a18.3,18.3,0,0,1-.5-4.7c0-1.2,1-1.5,2-.7s.3,1.4.7,2h0C44.6,13,44.4,13.7,44.1,14.3Z" transform="translate(-4.4)"/><path class="cls-191" d="M19.2,22.8A1.1,1.1,0,0,0,19,22c0-3.1,1.8-4.4,4.6-4.8a26.3,26.3,0,0,0,7.9-4.7l1.1-.8,4.2-3.1a5.1,5.1,0,0,1,1.6-.9,1.1,1.1,0,0,1,1.2.5,1.3,1.3,0,0,1-.1,1.2l-7.8,6.1c-1.2.8-2.5,1.4-3.7,2.1l-7,4.8A5.8,5.8,0,0,1,19.2,22.8Z" transform="translate(-4.4)"/><path class="cls-192" d="M63.1,21c-1.4.9-.2,2-.2,2.9A1.1,1.1,0,0,1,61.8,25h-.5l-2.9-1.2c-.9-.4-.9-1.2-.9-2s2.8.7,3.9-.8a4,4,0,0,1,3.6-2,1.1,1.1,0,0,1,.3,1.1A2.3,2.3,0,0,1,63.1,21Z" transform="translate(-4.4)"/><path class="cls-193" d="M65,20.1V18.9c1.5-.9,3-1.9,4.8-1.8v.3C69.1,19.9,67.6,21,65,20.1Z" transform="translate(-4.4)"/><path class="cls-194" d="M44.1,14.3l-.3-1.8c1.3-1.1,2.6-.2,3.9-.2-.3,1-.8,1.6-1.9,1.5S44.7,14.2,44.1,14.3Z" transform="translate(-4.4)"/><path class="cls-194" d="M43.8,12.5a15.9,15.9,0,0,0-.7-2C44.1,10.9,44.2,11.6,43.8,12.5Z" transform="translate(-4.4)"/><path class="cls-194" d="M48.8,12.3H47.7C48.1,11.5,48.5,11.6,48.8,12.3Z" transform="translate(-4.4)"/><path class="cls-195" d="M23.6,17.2C22,18.7,19.9,19.8,19,22l-.4-.2A7.3,7.3,0,0,1,13,17.1h.1c.5-.1.8-.6,1-1l1.4-1.2c4-2.6,4.7-2.5,7.6,1.4Z" transform="translate(-4.4)"/><path class="cls-91" d="M14.1,16.1a4.7,4.7,0,0,0-1,1A4.7,4.7,0,0,1,14.1,16.1Z" transform="translate(-4.4)"/><path class="cls-196" d="M136.2,64.3l.9-2.5c.1-.2.6-.3.8-.3a1.3,1.3,0,0,1,.7.5,11.2,11.2,0,0,1-.4,3.2,1.7,1.7,0,0,1-1.2,1c-.8-.1-.7-.8-.8-1.5Z" transform="translate(-4.4)"/><path class="cls-67" d="M96.8,43.1c.2-.8.5-1.4,1.4-1.2s.3.8.4,1.2Z" transform="translate(-4.4)"/><path class="cls-67" d="M99.6,43c0-1,.1-1.9.1-2.8C100.8,41.5,100.8,41.5,99.6,43Z" transform="translate(-4.4)"/><path class="cls-67" d="M94.7,42.1a11.9,11.9,0,0,1-.8,2c0-.6.1-1.2.1-1.8Z" transform="translate(-4.4)"/><path class="cls-67" d="M96,45.5a1.7,1.7,0,0,1,.8-2.3h0A15.5,15.5,0,0,0,96,45.5Z" transform="translate(-4.4)"/><path class="cls-67" d="M97,48.7c-1.2-.3-1.2-1.1-1.1-2.1Z" transform="translate(-4.4)"/><path class="cls-67" d="M97.6,39.5l-1.1.5Z" transform="translate(-4.4)"/><path class="cls-67" d="M99.7,40.1l-1-.6Z" transform="translate(-4.4)"/><path class="cls-67" d="M95.6,40.9l-.8,1.2Z" transform="translate(-4.4)"/><path class="cls-67" d="M98.7,43.1h.8a2.1,2.1,0,0,0-.4.6Z" transform="translate(-4.4)"/><path class="cls-67" d="M98.5,48.2l-.9.5Z" transform="translate(-4.4)"/><path class="cls-67" d="M98.7,50.8,100,50Z" transform="translate(-4.4)"/><path class="cls-197" d="M98.3,35.3l.9-4.1a1,1,0,0,1,.7-.4c.2,0,.6.3.6.4s.1,2.8.1,4.2Z" transform="translate(-4.4)"/><path class="cls-53" d="M283,110.3a4.9,4.9,0,0,1-3.9,1.9C279.9,110.5,281.3,110.2,283,110.3Z" transform="translate(-4.4)"/><path class="cls-53" d="M279.1,112.2l-.9,2Z" transform="translate(-4.4)"/><path class="cls-198" d="M311.9,108.5a1.9,1.9,0,0,0-2.4-.8l-6.3,1.7c.1-2.1,1.7-2.5,3.2-2.8s2.2,0,3.3-.2a9.5,9.5,0,0,0,2.1-.9v-.9c-.4-3.4-.4-3.4,3.1-4l3.5.3A27.9,27.9,0,0,1,311.9,108.5Z" transform="translate(-4.4)"/><path class="cls-199" d="M223.5,118h-4.8c-.6-.1-.6-.7-1-1v-2.9a.6.6,0,0,1,.7-.1l5.2.4Z" transform="translate(-4.4)"/><path class="cls-53" d="M295.5,108.4l-1-.9Z" transform="translate(-4.4)"/><path class="cls-15" d="M172.6,112l-3.9.2a1.4,1.4,0,0,1-1.7.4.9.9,0,0,1-.4-1.1l5.1-.3h.9Z" transform="translate(-4.4)"/><path class="cls-200" d="M207.2,114.1l-3.3,3.2a1.5,1.5,0,0,1-1.3.2l-6-3.4Z" transform="translate(-4.4)"/><path class="cls-199" d="M216.8,114.1l-.3,1.4c-.2.3-.7.9-1,.9a2.4,2.4,0,0,1-1.4-1,3.1,3.1,0,0,1-.3-1.3Z" transform="translate(-4.4)"/><path class="cls-192" d="M58.4,32.6a20.7,20.7,0,0,1-1.5-3.4,1.8,1.8,0,0,1,.5-1.6,1.8,1.8,0,0,1,1.6-.1c3.1,1.9,3.1,1.9,5.1-.7l1-1c1.2,1.2,1.1,3,2,4.4s-.9,1.6-1.1,2.4a3.2,3.2,0,0,1-2.8.9C61.8,32.2,60.1,32.4,58.4,32.6Z" transform="translate(-4.4)"/><path class="cls-201" d="M251.7,45.5l-2.1,1.2a2.1,2.1,0,0,1-.6-1c0-.7,0-1.7,1.1-1.6S250.9,44.8,251.7,45.5Z" transform="translate(-4.4)"/><path class="cls-22" d="M350.2,117l-.2.4Z" transform="translate(-4.4)"/><path class="cls-22" d="M350.2,117l.2-.4Z" transform="translate(-4.4)"/><path class="cls-202" d="M258.9,6.6a19.5,19.5,0,0,0-1.7,2.3,1.4,1.4,0,0,0-.2-.6.9.9,0,0,1-.6-.6l-.5-.2c.1-.5.3-1.1.4-1.7" transform="translate(-4.4)"/><path class="cls-203" d="M256.4,7.7a.9.9,0,0,1,.6.6C256.1,8.7,256.4,8.1,256.4,7.7Z" transform="translate(-4.4)"/><path class="cls-204" d="M212.5,12.6c1.8,3,1.6,6.8-.4,8.8a1.1,1.1,0,0,1-1.5-.3.1.1,0,0,1-.1-.1,2.8,2.8,0,0,1-.4-1.3A9.8,9.8,0,0,1,212.5,12.6Z" transform="translate(-4.4)"/><path class="cls-64" d="M5.6,33.5a17.2,17.2,0,0,1,.7-2.1l2.1-3.7a6.5,6.5,0,0,1,4.8-1.5c1,.1,1.4.9,1.9,1.6v1.9c-.4.9-3.5.8-1.7,2.1s1.4,3.9,2.5,5.6l.2,4.6c.2,5.1,1.4,10.3-1.2,15.3-.9,1.9-.1,4,.4,6s1.5,3.9,1.1,6a1.9,1.9,0,0,1-.7,1.4L15,71c-.5-.3-1.4-.4-1.6-.9A15.6,15.6,0,0,0,8,63.3a9.3,9.3,0,0,1-1.4-1.4c-.3-.6-.8-1.5-.6-2.1s1.1-.4,1.8-.2,1.4-.3,2.1-.5,1.1-.4,1.1-.6c.2-2,1.9-4,.2-5.9S10,51,10.9,50s-.6-.7-.9-.8l-3.2-.4c-1-.2-1.1-1.1-1.2-1.9s3.2-1.5,4.3-3.5C12.8,38,8.3,36.3,5.6,33.5Z" transform="translate(-4.4)"/><path class="cls-24" d="M16.1,70a8.6,8.6,0,0,0-1.3-4.9,12.1,12.1,0,0,1-1.6-7.2c.1-1.2.3-2.3,1.3-2.9a4.2,4.2,0,0,0,1.6-3.7,48.2,48.2,0,0,1,.1-9.3c.3,1.1.5,2.1.7,3.2.1,11.8.1,23.6.2,35.4a2.9,2.9,0,0,1-.2.9l-.8-.9c0-1.6,0-3.2-.1-4.8a4,4,0,0,1-.4-4.3A2.7,2.7,0,0,1,16.1,70Z" transform="translate(-4.4)"/><path class="cls-205" d="M16,37.4c-.8-.2-1.5-.3-1.5-1.4s.3-1.6-.1-2.1-1.3-.6-2-.9l-.7-.4a1.4,1.4,0,0,1,0-.9c.9-2.4.9-2.4,3.5-2C16.3,32.2,16.1,34.8,16,37.4Z" transform="translate(-4.4)"/><path class="cls-206" d="M15.1,27.8l-1.9-1a2,2,0,0,1-.9-2c-.1-.5-.3-1.4-.1-1.5a1.8,1.8,0,0,1,1.8.6l1.1,1.9Z" transform="translate(-4.4)"/><path class="cls-207" d="M5.6,33.5a6.3,6.3,0,0,1,4.2,2.1,5.5,5.5,0,0,0,2.5,2c.3.1.5,1.2.4,1.6s-2.1,3.4-1.9,5.7a2,2,0,0,1-2.2,2h-3a10.9,10.9,0,0,0-.1-1.8v-1c0-.3.1-.7.1-1a2.6,2.6,0,0,0,.1-2.9Z" transform="translate(-4.4)"/><path class="cls-160" d="M16,71v4.8c-2.3-.3-2.5-2.6-3.7-3.9,1,0,2.2.2,2.8-.9h0a.6.6,0,0,1,.8-.1Z" transform="translate(-4.4)"/><path class="cls-208" d="M12.3,24.8l.9,2-4.8.9C8.7,25.3,10.6,25.3,12.3,24.8Z" transform="translate(-4.4)"/><path class="cls-64" d="M5.7,40.2a1.8,1.8,0,0,1,.5,2.4l-.6.5C5.6,42.2,5.6,41.2,5.7,40.2Z" transform="translate(-4.4)"/><path class="cls-209" d="M182.3,13.5v2.4a2,2,0,0,1-1.7,2l-3.9.5c.1-2.1,1.4-3.4,2.1-4.8s1.6-2.7,2.4-4.1C183.9,10.2,182.4,12.1,182.3,13.5Z" transform="translate(-4.4)"/><path class="cls-210" d="M182.3,13.5a11.4,11.4,0,0,0-.2-2.6c-.1-.5-.6-.9-.9-1.4a7.7,7.7,0,0,1,.7-1.6l.7-.4c.2,0,.5.4.5.5C182.9,9.9,182.6,11.7,182.3,13.5Z" transform="translate(-4.4)"/><path class="cls-211" d="M166.6,111.5a2.1,2.1,0,0,1,.4.6c-1.3,1.9-3.4.5-5,1.1v1a4.2,4.2,0,0,0-.9,1.4,2.8,2.8,0,0,1-2.9,2.4l.3-3.3a4.4,4.4,0,0,0-4-.7,6.4,6.4,0,0,1-4.9-.8c-.4-1.7.7-2.7,1.8-3.7l7.7,1a2.5,2.5,0,0,0,1.7.3l1.2.3Z" transform="translate(-4.4)"/><path class="cls-142" d="M161,111l-1.9-.5H161Z" transform="translate(-4.4)"/><path class="cls-15" d="M161,111v-.6l1,.7Z" transform="translate(-4.4)"/><path class="cls-131" d="M143.7,45.1l-.9-1.9C143.7,43.6,144.1,44.1,143.7,45.1Z" transform="translate(-4.4)"/><path class="cls-212" d="M86.2,19.1l1.2.6c1.1.5,1.4,1.5,1.9,2.5s-1,1.8-1.1,2.8l-5.6,2c-1.4-.3-3.3,0-2.9-2.5.1-.2-.6-.5-1-.7A2.8,2.8,0,0,1,77.5,22h0c2.5-2.3,4.7-1.2,7,1.1.2-1.4.1-2.3.3-3.2S85.7,19.4,86.2,19.1Z" transform="translate(-4.4)"/><path class="cls-213" d="M97.7,21.8c0-.2-.1-.3-.1-.5s-.9-1.7.2-2.5,1.9.1,2.7.7l1.2.7Z" transform="translate(-4.4)"/><path class="cls-214" d="M66,32.6a1.8,1.8,0,0,1,.2-1l.9-.9a.6.6,0,0,1,.7-.2h.1l2.8.7-1.9.6-.6.3Z" transform="translate(-4.4)"/><path class="cls-180" d="M108.8,18.1a1.9,1.9,0,0,0,.2-.7h1.3Z" transform="translate(-4.4)"/><polygon class="cls-192" points="63.8 32.2 64 31.8 64.4 31.9 64.2 32.2 63.8 32.2"/><path class="cls-215" d="M276.7,79.2c-.2-.2-.5-.4-.5-.6a2,2,0,0,1,1.4-2.5h.1a1,1,0,0,1,.7.4C278.9,77.7,277.8,79.3,276.7,79.2Z" transform="translate(-4.4)"/><path class="cls-216" d="M296.1,42a4.2,4.2,0,0,1,1.6.4c.6.3,1.5.7,1.2,1.7a1,1,0,0,1-1.2.9l-.6-.2-.9-.3c-.6-.2-1.8.4-1.5-1S295.6,42.5,296.1,42Z" transform="translate(-4.4)"/><path class="cls-217" d="M292.1,76.4c-.1.3-.1.7-.3.8a5.4,5.4,0,0,1-1.6,1c-.8.3-1.7.3-2-.6a8.2,8.2,0,0,1,.1-2.7c0-.1.2-.2.3-.2S291.9,75.2,292.1,76.4Z" transform="translate(-4.4)"/><path class="cls-218" d="M232.9,13.3c.6-.7,1.1-1.5,1.7-2.1a2.5,2.5,0,0,1,1.2-.2c0,.5.1,1.2-.1,1.5a15.1,15.1,0,0,1-2.6,1.8.7.7,0,0,1-.4-.6C232.8,13.4,232.8,13.3,232.9,13.3Z" transform="translate(-4.4)"/><path class="cls-219" d="M232.9,13.3c.1.3.1.7.2,1l-.6.6c-.1-.3-.3-.5-.3-.7Z" transform="translate(-4.4)"/><path class="cls-220" d="M246.2,12.5h.6a7.4,7.4,0,0,1,3.4,4.5,1.7,1.7,0,0,1-.3,1.7,10.4,10.4,0,0,1-2.5,2.2,1,1,0,0,1-1.2-.4.4.4,0,0,1-.1-.3c-.2-2.3-.4-4.5-.5-6.7C245.6,13.1,246,12.8,246.2,12.5Z" transform="translate(-4.4)"/><path class="cls-221" d="M325.8,42.2a7.1,7.1,0,0,1-1,1.4,5,5,0,0,1-1.7.2c-.2,0-.4-.1-.4-.3s.1-1,.4-1.2a5,5,0,0,1,1.9-1C325.1,41.3,325.4,41.8,325.8,42.2Z" transform="translate(-4.4)"/><path class="cls-222" d="M180.3,45.6c-.4.1-.8.4-1.1.4s-.4-.5-.6-.8l1.1-.4C179.9,44.8,180.1,45.2,180.3,45.6Z" transform="translate(-4.4)"/><path class="cls-223" d="M139.5,47.7c-.3-.3-.7-.4-.7-.6s0-1.1.3-1.3a3,3,0,0,1,1.6-.5c-.1.5.1,1.1-.1,1.6S139.8,47.4,139.5,47.7Z" transform="translate(-4.4)"/><path class="cls-224" d="M360.8,41.3l-.9-.6.4-.3A4.1,4.1,0,0,0,360.8,41.3Z" transform="translate(-4.4)"/><path class="cls-225" d="M100.4,64.3a4.8,4.8,0,0,0-.7,2,28.2,28.2,0,0,0-.2,4.1,11.3,11.3,0,0,1-.5-6.3c0-.2.6-.4,1-.5S100.3,64.1,100.4,64.3Z" transform="translate(-4.4)"/><path class="cls-226" d="M67.8,51.6l-1.6-.9c-.1-.9-.1-1.8-.2-2.7s1.3-.7,1.9,0Z" transform="translate(-4.4)"/><path class="cls-139" d="M67.9,48H66V46c.5-.5.8-.4,1,.3Z" transform="translate(-4.4)"/><path class="cls-227" d="M67,46.3,66,46c.1-.6.4-1.1,1.2-.8A4.3,4.3,0,0,0,67,46.3Z" transform="translate(-4.4)"/><polygon class="cls-12" points="422.6 76.7 422.2 76.5 422.4 76.3 422.6 76.7"/><path class="cls-228" d="M129.5,72.6a3.1,3.1,0,0,1-2.9,3.3h-.5a1.3,1.3,0,0,1-.7-.6c-.3-1.5,1.5-3.4,3.2-3.3S129.2,72.4,129.5,72.6Z" transform="translate(-4.4)"/><path class="cls-229" d="M134.7,107.5H138l2,.2v.8h-3Z" transform="translate(-4.4)"/><path class="cls-153" d="M162,113.2a6.6,6.6,0,0,1,1.9-.9c1-.2,2.1-.1,3.1-.2h1.7c-.3,1-1.2,2,0,3s-.3.8-.5.8-1.4,0-1.7-.4S163.5,114.1,162,113.2Z" transform="translate(-4.4)"/><path class="cls-230" d="M216.8,121.8c-1.1-.7-1.7-2.1-3.6-1.3s-2.7.3-4.1.4l2.4-4.6,6.2,2.7Z" transform="translate(-4.4)"/><path class="cls-230" d="M217.7,117l1,1-1,1Z" transform="translate(-4.4)"/><path class="cls-230" d="M209.1,120.9l-1,.9Z" transform="translate(-4.4)"/><path class="cls-159" d="M184.1,119.9l-1,.9Z" transform="translate(-4.4)"/><path class="cls-159" d="M182.2,120.8l-1-.9Z" transform="translate(-4.4)"/><path class="cls-166" d="M121.7,105.4l2.9,1.1,1,1c1,1.3,1,2,.2,2.9a1.6,1.6,0,0,1-2.2.3l-.3-.3c-2.2-2.4-4.7-2.2-7.4-1.1.9-2.3.9-2.3,3.4-2.2s1.3-.6,1.3-1.4l.4-.6Z" transform="translate(-4.4)"/><path class="cls-166" d="M118.8,104.4l1.6.4c.4,0,.6.3.4.7l-.2.2c-1-.2-2.1,0-2.7-1.1Z" transform="translate(-4.4)"/><path class="cls-174" d="M120.8,105.5a2.5,2.5,0,0,0-.4-.7l1.3.6Z" transform="translate(-4.4)"/><path class="cls-187" d="M109.1,13.4l-.9-.8Z" transform="translate(-4.4)"/><path class="cls-231" d="M65,20.1c2.1-.1,3.2-1.8,4.8-2.7h1c.9.2-.1,2.7,1.9,1.7h0c1.5-.9,2.2-.3,2.4,1.2a6.5,6.5,0,0,1-.4,1.3c-2.9,2.2-4.9,6.9-9.6,3.3l-2-3.9Z" transform="translate(-4.4)"/><path class="cls-193" d="M65.1,24.9a12.2,12.2,0,0,1,2.7.1c1,.2,1.8.3,2.4-.7S73,21.8,74.7,21c1.9,3.7-1.3,5.4-2.9,7.7l-1.9,1-2,.9h-.8c-1.2-.2-2-.7-2-2.1Z" transform="translate(-4.4)"/><path class="cls-232" d="M71.8,28.7c0-1.7-.3-3.4,2-4.2s.7-2.2.9-3.5h0q.5-.6.9,0c.3,1.2.7,2.4.9,3.6a3.1,3.1,0,0,1-2,3.6A8.6,8.6,0,0,1,71.8,28.7Z" transform="translate(-4.4)"/><path class="cls-193" d="M72.7,19.1a1.5,1.5,0,0,1-.2.9c-.5.7-1.2.8-1.4.1l-.3-2.7Z" transform="translate(-4.4)"/><path class="cls-193" d="M75.6,21h-.9a1.9,1.9,0,0,0-1.9-1.9h-.1c2-1.2,2.5-1,2.9,1.1Z" transform="translate(-4.4)"/><path class="cls-212" d="M77.5,22l-.4-.2Z" transform="translate(-4.4)"/><path class="cls-233" d="M96.7,17.2c-1.8.5-3.7-1.1-5.4.5A17.4,17.4,0,0,1,88,15.9c-.7-.6-.9-1.8-1.4-2.9l7.6-2.2C95.6,12.7,96.8,14.7,96.7,17.2Z" transform="translate(-4.4)"/><path class="cls-89" d="M16,71h-.9a4.7,4.7,0,0,1,1-1A3.4,3.4,0,0,1,16,71Z" transform="translate(-4.4)"/></svg>