<?xml version="1.0" encoding="UTF-8" standalone="no"?>
<!-- Created with Inkscape (http://www.inkscape.org/) -->

<svg
   xmlns:dc="http://purl.org/dc/elements/1.1/"
   xmlns:cc="http://creativecommons.org/ns#"
   xmlns:rdf="http://www.w3.org/1999/02/22-rdf-syntax-ns#"
   xmlns:svg="http://www.w3.org/2000/svg"
   xmlns="http://www.w3.org/2000/svg"
   xmlns:sodipodi="http://sodipodi.sourceforge.net/DTD/sodipodi-0.dtd"
   xmlns:inkscape="http://www.inkscape.org/namespaces/inkscape"
   width="76.000359mm"
   height="76.000359mm"
   viewBox="0 0 76.000359 76.000358"
   version="1.1"
   id="svg8"
   inkscape:version="0.92.4 (5da689c313, 2019-01-14)"
   sodipodi:docname="cooplgvgvsquaretop.svg"
   inkscape:export-filename="D:\seafile\chris\chris\lesgrandsvoisins\etc\what\l\logo\cooplgvgvsquaretop.png"
   inkscape:export-xdpi="584"
   inkscape:export-ydpi="584">
  <defs
     id="defs2">
    <circle
       r="19.597977"
       transform="rotate(-174.43564)"
       cx="-92.974129"
       cy="-66.520142"
       style="fill:#ff0000;fill-opacity:1;stroke:#000000;stroke-width:0.20174386"
       id="circle4607" />
    <circle
       r="23.787388"
       transform="matrix(-0.86706562,0.49819395,0.49819395,0.86706562,0,0)"
       cy="108.10978"
       cx="-37.167122"
       id="path4603"
       style="fill:#ea00de;fill-opacity:1;stroke:#000000;stroke-width:0.24487016" />
  </defs>
  <sodipodi:namedview
     id="base"
     pagecolor="#ffffff"
     bordercolor="#666666"
     borderopacity="1.0"
     inkscape:pageopacity="0.0"
     inkscape:pageshadow="2"
     inkscape:zoom="1.979899"
     inkscape:cx="154.54607"
     inkscape:cy="49.790715"
     inkscape:document-units="mm"
     inkscape:current-layer="layer1"
     showgrid="false"
     inkscape:window-width="1080"
     inkscape:window-height="1849"
     inkscape:window-x="-8"
     inkscape:window-y="-8"
     inkscape:window-maximized="1"
     fit-margin-top="0"
     fit-margin-left="0"
     fit-margin-right="0"
     fit-margin-bottom="0" />
  <metadata
     id="metadata5">
    <rdf:RDF>
      <cc:Work
         rdf:about="">
        <dc:format>image/svg+xml</dc:format>
        <dc:type
           rdf:resource="http://purl.org/dc/dcmitype/StillImage" />
        <dc:title />
      </cc:Work>
    </rdf:RDF>
  </metadata>
  <g
     inkscape:label="Layer 1"
     inkscape:groupmode="layer"
     id="layer1"
     transform="translate(-34.634745,-27.361629)">
    <g
       id="g5422"
       transform="translate(0,-20.10834)">
      <path
         inkscape:connector-curvature="0"
         id="path89"
         class="st1"
         d="m 39.94498,69.673319 c -2.932519,0 -5.310235,-2.390915 -5.310235,-5.310225 v 0 c 0,-2.93252 2.377716,-5.31023 5.310235,-5.31023 v 0 0 0 c 1.17565,0 2.28525,0.38308 3.22312,1.09639 0.36987,0.29061 0.44913,0.81899 0.15852,1.20207 -0.29061,0.36987 -0.8322,0.44912 -1.20207,0.15851 -0.10568,-0.0793 -0.22456,-0.15851 -0.33024,-0.22456 0,0 -0.0132,0 -0.0264,-0.0132 -0.5548,-0.33024 -1.18886,-0.50196 -1.83612,-0.50196 v 0 0 0 c -1.994642,0 -3.606204,1.61156 -3.606204,3.6062 0,1.99464 1.611562,3.6062 3.606204,3.6062 0,0 0,0 0,0 0,0 0,0 0,0 0.64726,0 1.28132,-0.17172 1.83612,-0.50196 0,0 0.0132,0 0.0264,-0.0132 0.10568,-0.0661 0.22456,-0.14531 0.33024,-0.22456 0.36987,-0.29062 0.91146,-0.21136 1.20207,0.15851 0.29061,0.36987 0.21135,0.91146 -0.15852,1.20207 -0.92466,0.68689 -2.03426,1.056755 -3.22312,1.069965 0.0132,-0.0132 0.0132,-0.0132 0,0 z m 22.83928,3.196697 v -3.513722 c 0.46233,0.18493 0.9775,0.317025 1.50588,0.317025 2.93252,0 5.31023,-2.390915 5.31023,-5.310225 0,-2.91931 -2.39092,-5.31023 -5.31023,-5.31023 -1.17565,0 -2.29845,0.36987 -3.23633,1.09639 -0.36987,0.29061 -0.44913,0.81899 -0.15852,1.20207 0.29061,0.36987 0.81899,0.44912 1.20207,0.15852 0.63406,-0.48876 1.387,-0.73974 2.19278,-0.73974 1.99464,0 3.6062,1.61156 3.6062,3.6062 0,1.99464 -1.61156,3.59299 -3.59299,3.59299 -0.50196,0 -1.01713,-0.22456 -1.50589,-0.48875 v -0.30382 c 0,-0.47554 -0.38307,-0.85862 -0.84541,-0.85862 -0.47554,0 -0.8454,0.38308 -0.8454,0.85862 v 5.706502 c 0,0.475537 0.38307,0.845394 0.8454,0.845394 0.44913,-0.0132 0.83221,-0.396277 0.83221,-0.858604 m -10.6733,-4.636532 c 0.67368,0.62085 1.49267,1.06997 2.41734,1.29453 2.85326,0.660475 5.71973,-1.1228 6.3802,-3.97607 0.66048,-2.85325 -1.12281,-5.71972 -3.97607,-6.38019 -1.74365,-0.4095 -3.55336,0.0925 -4.84789,1.29453 -0.67369,-0.62085 -1.49268,-1.06997 -2.41735,-1.29453 -2.85326,-0.660482 -5.71973,1.1096 -6.3802,3.96285 -0.66048,2.85326 1.12281,5.71973 3.97607,6.38021 0.39628,0.09249 0.80578,0.132085 1.20206,0.132085 1.34738,0.0264 2.65512,-0.488745 3.64584,-1.413415 m -2.81363,-7.39733 c 1.30774,0.30382 2.32487,1.29453 2.66832,2.58906 0.11889,0.46233 0.59443,0.72653 1.04355,0.60764 0.46234,-0.11889 0.72653,-0.58122 0.60764,-1.04355 -0.10568,-0.4095 -0.26419,-0.79257 -0.46233,-1.16244 0.88504,-0.89825 2.16636,-1.28132 3.39485,-0.99071 1.9418,0.44912 3.14387,2.39092 2.69474,4.33272 -0.44912,1.9418 -2.40413,3.14387 -4.33272,2.69474 -1.40021,-0.33024 -2.47019,-1.45304 -2.73438,-2.86647 -0.0925,-0.46233 -0.52838,-0.77936 -0.99071,-0.68689 -0.46234,0.0925 -0.76615,0.52838 -0.6869,0.99072 0.0925,0.5548 0.29061,1.08318 0.5548,1.57193 -0.87183,0.89825 -2.15315,1.28133 -3.39485,0.99071 -1.9418,-0.44912 -3.14387,-2.40413 -2.69474,-4.33272 0.38308,-1.6644 1.87575,-2.78721 3.51373,-2.78721 0.26419,0 0.54159,0.0396 0.819,0.0925"
         style="fill:#019cb9;fill-opacity:1;stroke-width:0.13209529" />
      <flowRoot
         transform="matrix(0.26458333,0,0,0.26458333,1.0583333,-29.633346)"
         style="font-style:normal;font-weight:normal;font-size:16px;line-height:1.25;font-family:sans-serif;letter-spacing:0px;word-spacing:0px;fill:#000000;fill-opacity:1;stroke:none"
         id="flowRoot4850"
         xml:space="preserve"><flowRegion
           id="flowRegion4852"><rect
             y="335.35831"
             x="266.68027"
             height="55.810928"
             width="168.69548"
             id="rect4854" /></flowRegion><flowPara
           style="font-style:normal;font-variant:normal;font-weight:bold;font-stretch:normal;font-size:16px;font-family:Arial;-inkscape-font-specification:'Arial, Bold';font-variant-ligatures:normal;font-variant-caps:normal;font-variant-numeric:normal;font-feature-settings:normal;text-align:start;writing-mode:lr-tb;text-anchor:start"
           id="flowPara4856">Les Grands Voisins</flowPara><flowPara
           style="font-style:normal;font-variant:normal;font-weight:bold;font-stretch:normal;font-size:16px;font-family:Arial;-inkscape-font-specification:'Arial, Bold';font-variant-ligatures:normal;font-variant-caps:normal;font-variant-numeric:normal;font-feature-settings:normal;text-align:start;writing-mode:lr-tb;text-anchor:start"
           id="flowPara4858">À Good Village</flowPara></flowRoot>    </g>
  </g>
</svg>
