<?xml version="1.0" encoding="UTF-8" standalone="no"?>
<!-- Created with Inkscape (http://www.inkscape.org/) -->

<svg
   width="120.76337mm"
   height="20.599701mm"
   viewBox="0 0 120.76337 20.599701"
   version="1.1"
   id="svg8"
   xmlns="http://www.w3.org/2000/svg"
   xmlns:svg="http://www.w3.org/2000/svg"
   xmlns:rdf="http://www.w3.org/1999/02/22-rdf-syntax-ns#"
   xmlns:cc="http://creativecommons.org/ns#"
   xmlns:dc="http://purl.org/dc/elements/1.1/">
  <defs
     id="defs2">
    <circle
       r="19.597977"
       transform="rotate(-174.43564)"
       cx="-92.974129"
       cy="-66.520142"
       style="fill:#ff0000;fill-opacity:1;stroke:#000000;stroke-width:0.20174386"
       id="circle4607" />
    <circle
       r="23.787388"
       transform="matrix(-0.86706562,0.49819395,0.49819395,0.86706562,0,0)"
       cy="108.10978"
       cx="-37.167122"
       id="path4603"
       style="fill:#ea00de;fill-opacity:1;stroke:#000000;stroke-width:0.24487016" />
  </defs>
  <metadata
     id="metadata5">
    <rdf:RDF>
      <cc:Work
         rdf:about="">
        <dc:format>image/svg+xml</dc:format>
        <dc:type
           rdf:resource="http://purl.org/dc/dcmitype/StillImage" />
      </cc:Work>
    </rdf:RDF>
  </metadata>
  <g
     id="layer1"
     transform="translate(-67.70766,-39.672992)">
    <g
       id="g6544"
       transform="translate(0.41231895,-60.697171)">
      <rect
         style="fill:#ffffff;fill-opacity:1;stroke:none;stroke-width:0.26458332"
         id="rect5085"
         width="120.76337"
         height="20.599701"
         x="67.295341"
         y="100.37016" />
      <path
         id="path89"
         class="st1"
         d="m 75.172362,114.6525 c -2.932519,0 -5.310235,-2.39091 -5.310235,-5.31022 v 0 c 0,-2.93252 2.377716,-5.31023 5.310235,-5.31023 v 0 0 0 c 1.17565,0 2.28525,0.38308 3.22312,1.09639 0.36987,0.29061 0.44913,0.81899 0.15852,1.20207 -0.29061,0.36987 -0.8322,0.44912 -1.20207,0.15851 -0.10568,-0.0793 -0.22456,-0.15851 -0.33024,-0.22456 0,0 -0.0132,0 -0.0264,-0.0132 -0.5548,-0.33024 -1.18886,-0.50196 -1.83612,-0.50196 v 0 0 0 c -1.994642,0 -3.606204,1.61156 -3.606204,3.6062 0,1.99464 1.611562,3.6062 3.606204,3.6062 0,0 0,0 0,0 0,0 0,0 0,0 0.64726,0 1.28132,-0.17172 1.83612,-0.50196 0,0 0.0132,0 0.0264,-0.0132 0.10568,-0.0661 0.22456,-0.14531 0.33024,-0.22456 0.36987,-0.29062 0.91146,-0.21136 1.20207,0.15851 0.29061,0.36987 0.21135,0.91146 -0.15852,1.20207 -0.92466,0.68689 -2.03426,1.05675 -3.22312,1.06996 0.0132,-0.0132 0.0132,-0.0132 0,0 z m 22.83928,3.19671 v -3.51373 c 0.46233,0.18493 0.9775,0.31702 1.50588,0.31702 2.932518,0 5.310228,-2.39091 5.310228,-5.31022 0,-2.91931 -2.39092,-5.31023 -5.310228,-5.31023 -1.17565,0 -2.29845,0.36987 -3.23633,1.09639 -0.36987,0.29061 -0.44913,0.81899 -0.15852,1.20207 0.29061,0.36987 0.81899,0.44912 1.20207,0.15852 0.63406,-0.48876 1.387,-0.73974 2.19278,-0.73974 1.994638,0 3.606198,1.61156 3.606198,3.6062 0,1.99464 -1.61156,3.59299 -3.592988,3.59299 -0.50196,0 -1.01713,-0.22456 -1.50589,-0.48875 v -0.30382 c 0,-0.47554 -0.38307,-0.85862 -0.84541,-0.85862 -0.47554,0 -0.8454,0.38308 -0.8454,0.85862 v 5.70651 c 0,0.47554 0.38307,0.8454 0.8454,0.8454 0.44913,-0.0132 0.83221,-0.39628 0.83221,-0.85861 m -10.6733,-4.63654 c 0.67368,0.62085 1.49267,1.06997 2.41734,1.29453 2.85326,0.66047 5.71973,-1.1228 6.3802,-3.97607 0.66048,-2.85325 -1.12281,-5.71972 -3.97607,-6.38019 -1.74365,-0.4095 -3.55336,0.0925 -4.84789,1.29453 -0.67369,-0.62085 -1.49268,-1.06997 -2.41735,-1.29453 -2.85326,-0.66048 -5.71973,1.1096 -6.3802,3.96285 -0.66048,2.85326 1.12281,5.71973 3.97607,6.38021 0.39628,0.0925 0.80578,0.13208 1.20206,0.13208 1.34738,0.0264 2.65512,-0.48874 3.64584,-1.41341 m -2.81363,-7.39733 c 1.30774,0.30382 2.32487,1.29453 2.66832,2.58906 0.11889,0.46233 0.59443,0.72653 1.04355,0.60764 0.46234,-0.11889 0.72653,-0.58122 0.60764,-1.04355 -0.10568,-0.4095 -0.26419,-0.79257 -0.46233,-1.16244 0.88504,-0.89825 2.16636,-1.28132 3.39485,-0.99071 1.9418,0.44912 3.14387,2.39092 2.69474,4.33272 -0.44912,1.9418 -2.40413,3.14387 -4.33272,2.69474 -1.40021,-0.33024 -2.47019,-1.45304 -2.73438,-2.86647 -0.0925,-0.46233 -0.52838,-0.77936 -0.99071,-0.68689 -0.46234,0.0925 -0.76615,0.52838 -0.6869,0.99072 0.0925,0.5548 0.29061,1.08318 0.5548,1.57193 -0.87183,0.89825 -2.15315,1.28133 -3.39485,0.99071 -1.9418,-0.44912 -3.14387,-2.40413 -2.69474,-4.33272 0.38308,-1.6644 1.87575,-2.78721 3.51373,-2.78721 0.26419,0 0.54159,0.0396 0.819,0.0925"
         style="fill:#019cb9;fill-opacity:1;stroke-width:0.13209529" />
      <g
         aria-label="Les Grands Voisins"
         transform="matrix(0.26458333,0,0,0.26458333,37.344048,15.875)"
         style="font-style:normal;font-weight:normal;font-size:16px;line-height:1.25;font-family:sans-serif;letter-spacing:0px;word-spacing:0px;fill:#000000;fill-opacity:1;stroke:none"
         id="flowRoot4850">
        <path
           d="m 269.13281,364.18156 v -22.71875 h 4.625 v 18.85938 h 11.5 v 3.85937 z"
           style="font-style:normal;font-variant:normal;font-weight:bold;font-stretch:normal;font-size:32px;font-family:Arial;-inkscape-font-specification:'Arial, Bold';font-variant-ligatures:normal;font-variant-caps:normal;font-variant-numeric:normal;font-feature-settings:normal;text-align:start;writing-mode:lr-tb;text-anchor:start"
           id="path5089" />
        <path
           d="m 298.14844,358.90031 4.375,0.73438 q -0.84375,2.40625 -2.67188,3.67187 -1.8125,1.25 -4.54687,1.25 -4.32813,0 -6.40625,-2.82812 -1.64063,-2.26563 -1.64063,-5.71875 0,-4.125 2.15625,-6.45313 2.15625,-2.34375 5.45313,-2.34375 3.70312,0 5.84375,2.45313 2.14062,2.4375 2.04687,7.48437 h -11 q 0.0469,1.95313 1.0625,3.04688 1.01563,1.07812 2.53125,1.07812 1.03125,0 1.73438,-0.5625 0.70312,-0.5625 1.0625,-1.8125 z m 0.25,-4.4375 q -0.0469,-1.90625 -0.98438,-2.89062 -0.9375,-1 -2.28125,-1 -1.4375,0 -2.375,1.04687 -0.9375,1.04688 -0.92187,2.84375 z"
           style="font-style:normal;font-variant:normal;font-weight:bold;font-stretch:normal;font-size:32px;font-family:Arial;-inkscape-font-specification:'Arial, Bold';font-variant-ligatures:normal;font-variant-caps:normal;font-variant-numeric:normal;font-feature-settings:normal;text-align:start;writing-mode:lr-tb;text-anchor:start"
           id="path5091" />
        <path
           d="m 304.80469,359.44719 4.40625,-0.67188 q 0.28125,1.28125 1.14062,1.95313 0.85938,0.65625 2.40625,0.65625 1.70313,0 2.5625,-0.625 0.57813,-0.4375 0.57813,-1.17188 0,-0.5 -0.3125,-0.82812 -0.32813,-0.3125 -1.46875,-0.57813 -5.3125,-1.17187 -6.73438,-2.14062 -1.96875,-1.34375 -1.96875,-3.73438 0,-2.15625 1.70313,-3.625 1.70312,-1.46875 5.28125,-1.46875 3.40625,0 5.0625,1.10938 1.65625,1.10937 2.28125,3.28125 l -4.14063,0.76562 q -0.26562,-0.96875 -1.01562,-1.48437 -0.73438,-0.51563 -2.10938,-0.51563 -1.73437,0 -2.48437,0.48438 -0.5,0.34375 -0.5,0.89062 0,0.46875 0.4375,0.79688 0.59375,0.4375 4.09375,1.23437 3.51562,0.79688 4.90625,1.95313 1.375,1.17187 1.375,3.26562 0,2.28125 -1.90625,3.92188 -1.90625,1.64062 -5.64063,1.64062 -3.39062,0 -5.375,-1.375 -1.96875,-1.375 -2.57812,-3.73437 z"
           style="font-style:normal;font-variant:normal;font-weight:bold;font-stretch:normal;font-size:32px;font-family:Arial;-inkscape-font-specification:'Arial, Bold';font-variant-ligatures:normal;font-variant-caps:normal;font-variant-numeric:normal;font-feature-settings:normal;text-align:start;writing-mode:lr-tb;text-anchor:start"
           id="path5093" />
        <path
           d="m 343.72656,355.75969 v -3.85938 h 9.96875 v 9.125 q -1.45312,1.40625 -4.21875,2.48438 -2.75,1.0625 -5.57812,1.0625 -3.59375,0 -6.26563,-1.5 -2.67187,-1.51563 -4.01562,-4.3125 -1.34375,-2.8125 -1.34375,-6.10938 0,-3.57812 1.5,-6.35937 1.5,-2.78125 4.39062,-4.26563 2.20313,-1.14062 5.48438,-1.14062 4.26562,0 6.65625,1.79687 2.40625,1.78125 3.09375,4.9375 l -4.59375,0.85938 q -0.48438,-1.6875 -1.82813,-2.65625 -1.32812,-0.98438 -3.32812,-0.98438 -3.03125,0 -4.82813,1.92188 -1.78125,1.92187 -1.78125,5.70312 0,4.07813 1.8125,6.125 1.8125,2.03125 4.75,2.03125 1.45313,0 2.90625,-0.5625 1.46875,-0.57812 2.51563,-1.39062 v -2.90625 z"
           style="font-style:normal;font-variant:normal;font-weight:bold;font-stretch:normal;font-size:32px;font-family:Arial;-inkscape-font-specification:'Arial, Bold';font-variant-ligatures:normal;font-variant-caps:normal;font-variant-numeric:normal;font-feature-settings:normal;text-align:start;writing-mode:lr-tb;text-anchor:start"
           id="path5095" />
        <path
           d="m 362.11719,364.18156 h -4.39063 v -16.59375 h 4.07813 v 2.35938 q 1.04687,-1.67188 1.875,-2.20313 0.84375,-0.53125 1.90625,-0.53125 1.5,0 2.89062,0.82813 l -1.35937,3.82812 q -1.10938,-0.71875 -2.0625,-0.71875 -0.92188,0 -1.5625,0.51563 -0.64063,0.5 -1.01563,1.82812 -0.35937,1.32813 -0.35937,5.5625 z"
           style="font-style:normal;font-variant:normal;font-weight:bold;font-stretch:normal;font-size:32px;font-family:Arial;-inkscape-font-specification:'Arial, Bold';font-variant-ligatures:normal;font-variant-caps:normal;font-variant-numeric:normal;font-feature-settings:normal;text-align:start;writing-mode:lr-tb;text-anchor:start"
           id="path5097" />
        <path
           d="m 373.63281,352.65031 -3.98437,-0.71875 q 0.67187,-2.40625 2.3125,-3.5625 1.64062,-1.15625 4.875,-1.15625 2.9375,0 4.375,0.70313 1.4375,0.6875 2.01562,1.76562 0.59375,1.0625 0.59375,3.92188 l -0.0469,5.125 q 0,2.1875 0.20312,3.23437 0.21875,1.03125 0.79688,2.21875 h -4.34375 q -0.17188,-0.4375 -0.42188,-1.29687 -0.10937,-0.39063 -0.15625,-0.51563 -1.125,1.09375 -2.40625,1.64063 -1.28125,0.54687 -2.73437,0.54687 -2.5625,0 -4.04688,-1.39062 -1.46875,-1.39063 -1.46875,-3.51563 0,-1.40625 0.67188,-2.5 0.67187,-1.10937 1.875,-1.6875 1.21875,-0.59375 3.5,-1.03125 3.07812,-0.57812 4.26562,-1.07812 v -0.4375 q 0,-1.26563 -0.625,-1.79688 -0.625,-0.54687 -2.35937,-0.54687 -1.17188,0 -1.82813,0.46875 -0.65625,0.45312 -1.0625,1.60937 z m 5.875,3.5625 q -0.84375,0.28125 -2.67187,0.67188 -1.82813,0.39062 -2.39063,0.76562 -0.85937,0.60938 -0.85937,1.54688 0,0.92187 0.6875,1.59375 0.6875,0.67187 1.75,0.67187 1.1875,0 2.26562,-0.78125 0.79688,-0.59375 1.04688,-1.45312 0.17187,-0.5625 0.17187,-2.14063 z"
           style="font-style:normal;font-variant:normal;font-weight:bold;font-stretch:normal;font-size:32px;font-family:Arial;-inkscape-font-specification:'Arial, Bold';font-variant-ligatures:normal;font-variant-caps:normal;font-variant-numeric:normal;font-feature-settings:normal;text-align:start;writing-mode:lr-tb;text-anchor:start"
           id="path5099" />
        <path
           d="m 403.25781,364.18156 h -4.39062 v -8.46875 q 0,-2.6875 -0.28125,-3.46875 -0.28125,-0.79687 -0.92188,-1.23437 -0.625,-0.4375 -1.51562,-0.4375 -1.14063,0 -2.04688,0.625 -0.90625,0.625 -1.25,1.65625 -0.32812,1.03125 -0.32812,3.8125 v 7.51562 h -4.39063 v -16.59375 h 4.07813 v 2.4375 q 2.17187,-2.8125 5.46875,-2.8125 1.45312,0 2.65625,0.53125 1.20312,0.51563 1.8125,1.32813 0.625,0.8125 0.85937,1.84375 0.25,1.03125 0.25,2.95312 z"
           style="font-style:normal;font-variant:normal;font-weight:bold;font-stretch:normal;font-size:32px;font-family:Arial;-inkscape-font-specification:'Arial, Bold';font-variant-ligatures:normal;font-variant-caps:normal;font-variant-numeric:normal;font-feature-settings:normal;text-align:start;writing-mode:lr-tb;text-anchor:start"
           id="path5101" />
        <path
           d="m 422.94531,364.18156 h -4.07812 v -2.4375 q -1.01563,1.42188 -2.40625,2.125 -1.375,0.6875 -2.78125,0.6875 -2.85938,0 -4.90625,-2.29687 -2.03125,-2.3125 -2.03125,-6.4375 0,-4.21875 1.98437,-6.40625 1.98438,-2.20313 5.01563,-2.20313 2.78125,0 4.8125,2.3125 v -8.25 h 4.39062 z m -11.71875,-8.65625 q 0,2.65625 0.73438,3.84375 1.0625,1.71875 2.96875,1.71875 1.51562,0 2.57812,-1.28125 1.0625,-1.29687 1.0625,-3.85937 0,-2.85938 -1.03125,-4.10938 -1.03125,-1.26562 -2.64062,-1.26562 -1.5625,0 -2.625,1.25 -1.04688,1.23437 -1.04688,3.70312 z"
           style="font-style:normal;font-variant:normal;font-weight:bold;font-stretch:normal;font-size:32px;font-family:Arial;-inkscape-font-specification:'Arial, Bold';font-variant-ligatures:normal;font-variant-caps:normal;font-variant-numeric:normal;font-feature-settings:normal;text-align:start;writing-mode:lr-tb;text-anchor:start"
           id="path5103" />
        <path
           d="m 425.74219,359.44719 4.40625,-0.67188 q 0.28125,1.28125 1.14062,1.95313 0.85938,0.65625 2.40625,0.65625 1.70313,0 2.5625,-0.625 0.57813,-0.4375 0.57813,-1.17188 0,-0.5 -0.3125,-0.82812 -0.32813,-0.3125 -1.46875,-0.57813 -5.3125,-1.17187 -6.73438,-2.14062 -1.96875,-1.34375 -1.96875,-3.73438 0,-2.15625 1.70313,-3.625 1.70312,-1.46875 5.28125,-1.46875 3.40625,0 5.0625,1.10938 1.65625,1.10937 2.28125,3.28125 l -4.14063,0.76562 q -0.26562,-0.96875 -1.01562,-1.48437 -0.73438,-0.51563 -2.10938,-0.51563 -1.73437,0 -2.48437,0.48438 -0.5,0.34375 -0.5,0.89062 0,0.46875 0.4375,0.79688 0.59375,0.4375 4.09375,1.23437 3.51562,0.79688 4.90625,1.95313 1.375,1.17187 1.375,3.26562 0,2.28125 -1.90625,3.92188 -1.90625,1.64062 -5.64063,1.64062 -3.39062,0 -5.375,-1.375 -1.96875,-1.375 -2.57812,-3.73437 z"
           style="font-style:normal;font-variant:normal;font-weight:bold;font-stretch:normal;font-size:32px;font-family:Arial;-inkscape-font-specification:'Arial, Bold';font-variant-ligatures:normal;font-variant-caps:normal;font-variant-numeric:normal;font-feature-settings:normal;text-align:start;writing-mode:lr-tb;text-anchor:start"
           id="path5105" />
        <path
           d="m 459.85156,364.18156 -8.1875,-22.90625 h 5.01563 l 5.79687,16.95313 5.60938,-16.95313 h 4.90625 l -8.20313,22.90625 z"
           style="font-style:normal;font-variant:normal;font-weight:bold;font-stretch:normal;font-size:32px;font-family:Arial;-inkscape-font-specification:'Arial, Bold';font-variant-ligatures:normal;font-variant-caps:normal;font-variant-numeric:normal;font-feature-settings:normal;text-align:start;writing-mode:lr-tb;text-anchor:start"
           id="path5107" />
        <path
           d="m 471.96094,355.65031 q 0,-2.1875 1.07812,-4.23437 1.07813,-2.04688 3.04688,-3.125 1.98437,-1.07813 4.42187,-1.07813 3.76563,0 6.17188,2.45313 2.40625,2.4375 2.40625,6.17187 0,3.76563 -2.4375,6.25 -2.42188,2.46875 -6.10938,2.46875 -2.28125,0 -4.35937,-1.03125 -2.0625,-1.03125 -3.14063,-3.01562 -1.07812,-2 -1.07812,-4.85938 z m 4.5,0.23438 q 0,2.46875 1.17187,3.78125 1.17188,1.3125 2.89063,1.3125 1.71875,0 2.875,-1.3125 1.17187,-1.3125 1.17187,-3.8125 0,-2.4375 -1.17187,-3.75 -1.15625,-1.3125 -2.875,-1.3125 -1.71875,0 -2.89063,1.3125 -1.17187,1.3125 -1.17187,3.78125 z"
           style="font-style:normal;font-variant:normal;font-weight:bold;font-stretch:normal;font-size:32px;font-family:Arial;-inkscape-font-specification:'Arial, Bold';font-variant-ligatures:normal;font-variant-caps:normal;font-variant-numeric:normal;font-feature-settings:normal;text-align:start;writing-mode:lr-tb;text-anchor:start"
           id="path5109" />
        <path
           d="m 492.53906,345.33781 v -4.0625 h 4.39063 v 4.0625 z m 0,18.84375 v -16.59375 h 4.39063 v 16.59375 z"
           style="font-style:normal;font-variant:normal;font-weight:bold;font-stretch:normal;font-size:32px;font-family:Arial;-inkscape-font-specification:'Arial, Bold';font-variant-ligatures:normal;font-variant-caps:normal;font-variant-numeric:normal;font-feature-settings:normal;text-align:start;writing-mode:lr-tb;text-anchor:start"
           id="path5111" />
        <path
           d="m 499.86719,359.44719 4.40625,-0.67188 q 0.28125,1.28125 1.14062,1.95313 0.85938,0.65625 2.40625,0.65625 1.70313,0 2.5625,-0.625 0.57813,-0.4375 0.57813,-1.17188 0,-0.5 -0.3125,-0.82812 -0.32813,-0.3125 -1.46875,-0.57813 -5.3125,-1.17187 -6.73438,-2.14062 -1.96875,-1.34375 -1.96875,-3.73438 0,-2.15625 1.70313,-3.625 1.70312,-1.46875 5.28125,-1.46875 3.40625,0 5.0625,1.10938 1.65625,1.10937 2.28125,3.28125 l -4.14063,0.76562 q -0.26562,-0.96875 -1.01562,-1.48437 -0.73438,-0.51563 -2.10938,-0.51563 -1.73437,0 -2.48437,0.48438 -0.5,0.34375 -0.5,0.89062 0,0.46875 0.4375,0.79688 0.59375,0.4375 4.09375,1.23437 3.51562,0.79688 4.90625,1.95313 1.375,1.17187 1.375,3.26562 0,2.28125 -1.90625,3.92188 -1.90625,1.64062 -5.64063,1.64062 -3.39062,0 -5.375,-1.375 -1.96875,-1.375 -2.57812,-3.73437 z"
           style="font-style:normal;font-variant:normal;font-weight:bold;font-stretch:normal;font-size:32px;font-family:Arial;-inkscape-font-specification:'Arial, Bold';font-variant-ligatures:normal;font-variant-caps:normal;font-variant-numeric:normal;font-feature-settings:normal;text-align:start;writing-mode:lr-tb;text-anchor:start"
           id="path5113" />
        <path
           d="m 519.22656,345.33781 v -4.0625 h 4.39063 v 4.0625 z m 0,18.84375 v -16.59375 h 4.39063 v 16.59375 z"
           style="font-style:normal;font-variant:normal;font-weight:bold;font-stretch:normal;font-size:32px;font-family:Arial;-inkscape-font-specification:'Arial, Bold';font-variant-ligatures:normal;font-variant-caps:normal;font-variant-numeric:normal;font-feature-settings:normal;text-align:start;writing-mode:lr-tb;text-anchor:start"
           id="path5115" />
        <path
           d="m 543.19531,364.18156 h -4.39062 v -8.46875 q 0,-2.6875 -0.28125,-3.46875 -0.28125,-0.79687 -0.92188,-1.23437 -0.625,-0.4375 -1.51562,-0.4375 -1.14063,0 -2.04688,0.625 -0.90625,0.625 -1.25,1.65625 -0.32812,1.03125 -0.32812,3.8125 v 7.51562 h -4.39063 v -16.59375 h 4.07813 v 2.4375 q 2.17187,-2.8125 5.46875,-2.8125 1.45312,0 2.65625,0.53125 1.20312,0.51563 1.8125,1.32813 0.625,0.8125 0.85937,1.84375 0.25,1.03125 0.25,2.95312 z"
           style="font-style:normal;font-variant:normal;font-weight:bold;font-stretch:normal;font-size:32px;font-family:Arial;-inkscape-font-specification:'Arial, Bold';font-variant-ligatures:normal;font-variant-caps:normal;font-variant-numeric:normal;font-feature-settings:normal;text-align:start;writing-mode:lr-tb;text-anchor:start"
           id="path5117" />
        <path
           d="m 546.11719,359.44719 4.40625,-0.67188 q 0.28125,1.28125 1.14062,1.95313 0.85938,0.65625 2.40625,0.65625 1.70313,0 2.5625,-0.625 0.57813,-0.4375 0.57813,-1.17188 0,-0.5 -0.3125,-0.82812 -0.32813,-0.3125 -1.46875,-0.57813 -5.3125,-1.17187 -6.73438,-2.14062 -1.96875,-1.34375 -1.96875,-3.73438 0,-2.15625 1.70313,-3.625 1.70312,-1.46875 5.28125,-1.46875 3.40625,0 5.0625,1.10938 1.65625,1.10937 2.28125,3.28125 l -4.14063,0.76562 q -0.26562,-0.96875 -1.01562,-1.48437 -0.73438,-0.51563 -2.10938,-0.51563 -1.73437,0 -2.48437,0.48438 -0.5,0.34375 -0.5,0.89062 0,0.46875 0.4375,0.79688 0.59375,0.4375 4.09375,1.23437 3.51562,0.79688 4.90625,1.95313 1.375,1.17187 1.375,3.26562 0,2.28125 -1.90625,3.92188 -1.90625,1.64062 -5.64063,1.64062 -3.39062,0 -5.375,-1.375 -1.96875,-1.375 -2.57812,-3.73437 z"
           style="font-style:normal;font-variant:normal;font-weight:bold;font-stretch:normal;font-size:32px;font-family:Arial;-inkscape-font-specification:'Arial, Bold';font-variant-ligatures:normal;font-variant-caps:normal;font-variant-numeric:normal;font-feature-settings:normal;text-align:start;writing-mode:lr-tb;text-anchor:start"
           id="path5119" />
      </g>
    </g>
  </g>
</svg>
