<?xml version="1.0" encoding="utf-8"?>
<!-- Generator: Adobe Illustrator 23.0.1, SVG Export Plug-In . SVG Version: 6.00 Build 0)  -->
<svg version="1.1" id="Layer_1" xmlns="http://www.w3.org/2000/svg" xmlns:xlink="http://www.w3.org/1999/xlink" x="0px" y="0px"
	 viewBox="0 0 152.2 185.9" style="enable-background:new 0 0 152.2 185.9;" xml:space="preserve">
<style type="text/css">
	.st0{fill:#FFFFFF;}
	.st1{fill:#FEFEFE;}
	.st2{fill:#040404;}
	.st3{fill:#EDBDC0;}
	.st4{fill:#ECC1C4;}
	.st5{fill:#E8ADB0;}
	.st6{fill:#F1CBCE;}
	.st7{fill:#1A1010;}
	.st8{fill:#F1C9CC;}
	.st9{fill:#F0CECF;}
	.st10{fill:#2D2121;}
	.st11{fill:#2A1717;}
	.st12{fill:#EEB2B5;}
	.st13{fill:#EEB4B6;}
	.st14{fill:#2F2727;}
	.st15{fill:#040303;}
	.st16{fill:#DFB2B5;}
	.st17{fill:#E8B9BC;}
	.st18{fill:#F1CCCF;}
	.st19{fill:#E99C9F;}
	.st20{fill:#EAB2B5;}
	.st21{fill:#EDAAAD;}
	.st22{fill:#EDADAF;}
	.st23{fill:#150D0D;}
	.st24{fill:#EDB7BA;}
	.st25{fill:#EEBFC2;}
	.st26{fill:#EDBEC0;}
	.st27{fill:#EEB6BA;}
	.st28{fill:#F0C7CB;}
	.st29{fill:#0C0B0B;}
	.st30{fill:#0F0E0E;}
	.st31{fill:#070505;}
	.st32{fill:#100E0E;}
	.st33{fill:#171414;}
	.st34{fill:#161010;}
	.st35{fill:#1B1818;}
	.st36{fill:#1B1616;}
	.st37{fill:#201B1B;}
	.st38{fill:#1A1515;}
	.st39{fill:#272222;}
	.st40{fill:#1D1919;}
	.st41{fill:#221E1E;}
	.st42{fill:#232222;}
	.st43{fill:#EBEEEE;}
	.st44{fill:#191919;}
	.st45{fill:#211E1E;}
	.st46{fill:#201E1E;}
	.st47{fill:#292323;}
	.st48{fill:#201C1C;}
	.st49{fill:#2A2828;}
	.st50{fill:#1E1B1B;}
	.st51{fill:#1F1717;}
	.st52{fill:#262323;}
	.st53{fill:#222020;}
	.st54{fill:#201616;}
	.st55{fill:#312323;}
	.st56{fill:#252222;}
	.st57{fill:#4D4A4A;}
	.st58{fill:#262222;}
	.st59{fill:#1E1919;}
	.st60{fill:#2A2727;}
	.st61{fill:#373131;}
	.st62{fill:#282222;}
	.st63{fill:#2C2A2A;}
	.st64{fill:#291E1E;}
	.st65{fill:#251F1F;}
	.st66{fill:#4F4A4A;}
	.st67{fill:#454444;}
	.st68{fill:#3C3636;}
	.st69{fill:#312727;}
	.st70{fill:#332424;}
	.st71{fill:#231818;}
	.st72{fill:#291414;}
	.st73{fill:#292626;}
	.st74{fill:#4C4646;}
	.st75{fill:#535353;}
	.st76{fill:#392727;}
	.st77{fill:#DBD5D5;}
	.st78{fill:#0C1C1C;}
	.st79{fill:#380D0D;}
	.st80{fill:#454C4C;}
	.st81{fill:#E7ECEC;}
	.st82{fill:#1D2525;}
	.st83{fill:#DFDBDB;}
	.st84{fill:#685D5D;}
	.st85{fill:#343838;}
	.st86{fill:#D0DADA;}
	.st87{fill:#AEAAAA;}
	.st88{fill:#253030;}
	.st89{fill:#1C1010;}
	.st90{fill:#FCFCFC;}
	.st91{fill:#191B1B;}
	.st92{fill:#4F3A3A;}
	.st93{fill:#1F0707;}
	.st94{fill:#262121;}
	.st95{fill:#3C3939;}
	.st96{fill:#303434;}
	.st97{fill:#492E2E;}
	.st98{fill:#352323;}
	.st99{fill:#3C4B4B;}
	.st100{fill:#203030;}
	.st101{fill:#520E0E;}
	.st102{fill:#184040;}
	.st103{fill:#140505;}
	.st104{fill:#935252;}
	.st105{fill:#E0E1E1;}
	.st106{fill:#5F1F1F;}
	.st107{fill:#3B5050;}
	.st108{fill:#342F2F;}
	.st109{fill:#C0D1D1;}
	.st110{fill:#838989;}
	.st111{fill:#202323;}
	.st112{fill:#762525;}
	.st113{fill:#0B0909;}
	.st114{fill:#635C5C;}
	.st115{fill:#3C6464;}
	.st116{fill:#8B4343;}
	.st117{fill:#D3CDCD;}
	.st118{fill:#070B0B;}
	.st119{fill:#190B0B;}
	.st120{fill:#383232;}
	.st121{fill:#EFC7C9;}
	.st122{fill:#E4DFE0;}
	.st123{fill:#CDCFD1;}
	.st124{fill:#ECE5E7;}
	.st125{fill:#EFEEED;}
	.st126{fill:#BAC8C8;}
	.st127{fill:#B2DDDD;}
	.st128{fill:#7F5F5F;}
	.st129{fill:#5AA6A6;}
	.st130{fill:#C5CCCC;}
	.st131{fill:#657C7C;}
	.st132{fill:#AABEBE;}
	.st133{fill:#222B2B;}
	.st134{fill:#070202;}
	.st135{fill:#150606;}
</style>
<title>manifeste-seule</title>
<g>
	<g id="manifeste-seule">
		<path class="st0" d="M25.7,53.4c-2-0.9-3.1-2.9-2.9-5c0.1-1.1,0-2.2,0.1-3.3c0.1-4,0.6-4.6,4.6-6.1C28.3,44,29.1,49,25.7,53.4z"/>
		<path class="st0" d="M23.8,75.5c-1.3,0-1.9-0.9-2.3-1.9c-1.3-3.9-0.3-8.3,2.7-11.2c0.4-0.2,0.9-0.3,1.3-0.3
			c0.7,0.4,1.1,1.1,1.1,1.9c0,0.5-0.1,1-0.2,1.5C25.5,68.8,26.8,72.7,23.8,75.5z"/>
		<path class="st1" d="M25.9,64.3c-0.1-0.7-0.2-1.5-0.4-2.2c0.1-2.9,0.2-5.8,0.2-8.7c0.8-3.3,1.1-6.8,1.1-10.2
			c-0.1-1.4,0.5-2.8,0.7-4.2c0.1-0.6,0.1-1.3,0.1-1.9c0.1-0.8,0.3-1.5,1.2-1.7c2.6,3.8,0.1,7.7,0.2,11.6s-1,8.9-1,13.4
			C28,62,27.8,63.7,25.9,64.3z"/>
		<path class="st1" d="M23.8,75.5c0.4-3,1.3-6,1.1-9.1c0-0.5,0.6-1,0.9-1.5c0.7,0.7,1.2,1.6,1.2,2.6c0,6.9-0.7,13.8-2.1,20.6
			c-0.1,1-0.8,1.8-1.8,1.9c-0.5-2.9-0.2-5.9,0.6-8.7C23.7,79.3,23.8,77.4,23.8,75.5z"/>
		<path class="st0" d="M14.2,152.3c1.7,0.4,3.5,0.7,4.8,1.9C17.2,154.2,15.2,154.5,14.2,152.3z"/>
		<path class="st0" d="M19,154.2c1.3,0.1,1.9,0.7,1.9,1.9L19,154.2z"/>
		<path class="st0" d="M20.9,156.1l1,1L20.9,156.1z"/>
		<path class="st2" d="M23.1,90c0.4-2,0.9-4,1.1-6c0.6-6.4,1.1-12.7,1.6-19.1l0.3-0.3l-0.2-0.3c0.2-0.4,0.3-0.9,0.4-1.3
			c0.9-9.2,1.7-18.4,2.5-27.6l0,0c0.8-1.2-0.5-2.9,0.9-4l0,0c1.6-7,4.3-13.3,9.5-18.3l0,0c0.6-0.9,1.2-1.6,2.5-1.3
			c0.6,0.4,1,1.1,1.1,1.9c-0.1,2.3-1.7,3.8-2.8,5.5c-6.2,9.9-7.6,20.9-8.2,32.1c-0.7,13.6-1.2,27.2-3.9,40.5s-7.2,27.5-16.4,38.9
			c-1.1,1.2-1.6,2.8-1.6,4.4c-0.1,0.8-0.9,1.4-1.7,1.3c-0.3,0-0.5-0.1-0.7-0.3l-6.7-2.2c-0.4-0.3-0.7-0.7-0.8-1.1
			c-0.1-0.2,0.2-0.7,0.4-0.8s1.9-1.4,2.5-1.2c2.1,0.6,2.9-0.7,3.8-1.9s4.7-4.9,5.6-8.2c0.7-1.3,0.8-2.9,2-3.8l0,0
			c1.3-3.2,2.1-6.6,4-9.6l0,0c0.5-2,0.1-4.3,1.9-5.9h-0.1c0.7-2.3,0.7-4.7,1.9-6.8l0,0c1.1-1.4-0.4-3.5,1.1-4.8L23.1,90z"/>
		<path class="st3" d="M44.9,160l-4.7-1.1l-4.1-0.9c-0.9-0.1-1.9-0.3-2.7-0.7c-1.1-0.7-2.3-1.1-3.6-1.2c-2.3-0.1-4.3-1.5-5.1-3.7
			c-0.2-0.2-0.3-0.5-0.3-0.8c0.1-0.3,0.1-0.4,0.2-0.4c2-2.2,5.1-1,7.3-2.4c0.7-0.2,1.3-0.2,2-0.1l1.3,0.4c3.4,1.5,6.5,3.8,10.4,4.1
			c9.7,5,19.7,9.3,29.9,13c1.1,0.4,2.1,0.9,2.3,2.2c-1.6,2.5-4,2.7-6.3,1.6c-3.3-1.5-6.7-2.7-10.3-3.3c-2.8,0.1-5-1.6-7.5-2.5
			c-1.4-0.6-2.7-1.4-4-2.2c-0.3-0.4-1.1-0.5-1.1-0.7C48.4,158,45.6,161.8,44.9,160z"/>
		<path class="st4" d="M61.2,166.7h0.9c1.5,0.1,2.9-1.5,4.5,0s2.8,0.1,4.1,1.6s3.2,1.7,5.2,0.7l1.8-0.5c6-0.6,10.3,3,14.8,6.1
			c0.5,0.8,0.9,1.7,1.2,2.6c1.8,3.1,3.4,3.2,5.5,0.2s1.7-4.7,4.9-4.4c0.7,0.2,1.2,0.7,1.5,1.3c0.2,0.4,0.3,0.9,0.2,1.4
			c-0.9,3.9-5.4,5-6.9,8.5c-2.5,1.2-5.4,1.1-7.8-0.3c-1.2-0.9-1.9-2.2-2.1-3.7c-0.1-1.6-0.5-2-2.2-1.9c-3.3,0.2-5.9-1.1-6.6-4.6
			s-1.9-1.4-2.9-1.2s-4.3,1.2-6.5,0c-0.5,0-0.9-0.2-1.3-0.4C66.7,170.4,64,168.5,61.2,166.7z"/>
		<path class="st5" d="M32.5,149.4c-1.5,0.8-2.5,2.3-4.6,1.3s-2.1,0.4-3.1,0.7s-1.1,0-1.6-0.5l-1.4-1.2c-3.3-3.2-7.8-4.3-11.4-6.9
			H8.5c-1.4-0.5-1.8-1.4-0.9-2.5l2.3-2.4c4.9-0.2,8.6,2.9,12.9,4.6l1.1,0.6l1.5,0.9l0.9,0.7l0.9,0.8c1.3,0.9,2.8,1.6,4.4,2.1
			c0.4,0.2,0.7,0.5,1,0.8C32.8,148.7,32.7,149.1,32.5,149.4z"/>
		<path class="st6" d="M70.8,172.5c1.9-0.1,3.9,0.5,5.3-1.4c1.5-0.2,3.1-0.2,4.6,0c0.8,0.2,1.2,0.9,1,1.7c-0.1,0.2-0.2,0.4-0.3,0.6
			c-0.8,1.1-0.4,1.7,0.8,1.9l0.9,0.2c1.4,0,0.8,2.7,2.8,2l3.1-1h0.5c0.8-0.1,1.8,1.1,1.3,1.5s-0.3,3.1,0.2,4.6v0.5
			c-1.7,1.2-2.7,0.1-3.8-1l-4-2.4C79.1,177.2,75,174.8,70.8,172.5z"/>
		<path class="st1" d="M90.7,185.9c-2.7-0.1-3-0.5-3.5-3.9l3.8,1c2.6,1.2,5.1,1.7,7.7,0.1s7.9-4.5,10.8-8.1c0.8-0.8,2-1.2,3.1-1
			l0.5,0.4c0.9,2.5,0.9,2.8-0.7,3.5s-2,0.8-2.6,1.9c-0.1,0.3-0.3,0.5-0.6,0.7c-3,0.6-5.6,2.3-7.2,4.9"/>
		<path class="st7" d="M23.7,143.7l-9.5-4l-4.3-1.9c-0.1-0.2-0.3-0.4-0.6-0.4l-0.4-0.2l-1.4-1.1l2-1.2c1.4-1,2.7-0.3,3.9,0.3
			c4.5,2.4,9.9,2.9,13.4,7.1C26.2,143.7,24.9,143.6,23.7,143.7z"/>
		<path class="st8" d="M23.8,150.4l1,1c0,0.3-0.1,0.6-0.1,1c-1.2-0.2-2.3-0.9-3.1-1.9c-2.1-1.8-4.2-3.7-7.1-4.1s-2.7-2.5-4.1-3.6
			c-0.2-0.6-0.4-1.2-0.6-1.8c-0.1-0.2,0.2-0.6,0.4-0.7c0.3-0.1,0.5-0.1,0.8,0l1.4,2.4c0.5,0.6,1,1.6,1.6,1.6
			c2.8,0.1,4.3,2.4,6.5,3.5c0.8,0.5,1.6,1,2.4,1.6L23.8,150.4z"/>
		<path class="st1" d="M121.7,163.8v1c0.2,4.6-3.1,6.9-6.3,9.2c-0.5,0.4-1.5,0.3-2.3,0.4H113c-0.4-1.6,0.8-2.4,1.6-3.5
			C116.9,168.4,118.1,164.9,121.7,163.8z"/>
		<path class="st1" d="M18.3,107.3c-0.7,3.4-2,6.7-4,9.6c0-1,0-2-0.1-3s2.1-2.6,2.1-4.5S17.1,107.6,18.3,107.3z"/>
		<path class="st9" d="M44.9,160l3.2-0.8c0.2-0.1,0.5,0.3,0.8,0.5s0.8,1.4,0.8,2.3C47.9,162,46.2,161.3,44.9,160z"/>
		<path class="st1" d="M14.3,116.9l-2,3.8C12.2,119,12.4,117.5,14.3,116.9z"/>
		<path class="st0" d="M85.3,184.9l-1-0.9L85.3,184.9"/>
		<path class="st0" d="M81.4,184l-0.9-1L81.4,184z"/>
		<path class="st0" d="M76.6,181.1l-0.9-1L76.6,181.1z"/>
		<path class="st0" d="M72.8,180.1l-1-0.9L72.8,180.1z"/>
		<path class="st0" d="M70.9,178.2l-1-0.9L70.9,178.2z"/>
		<path class="st0" d="M69.9,177.3l-1-1L69.9,177.3z"/>
		<path class="st0" d="M67,176.3l-0.9-1L67,176.3z"/>
		<path class="st0" d="M65.1,175.3l-1-0.9L65.1,175.3z"/>
		<path class="st0" d="M58.4,170.5l-1-0.9L58.4,170.5z"/>
		<path class="st0" d="M56.5,169.6c-0.4-0.3-0.7-0.6-1-1L56.5,169.6z"/>
		<path class="st0" d="M54.5,168.6c-0.3,0.7-0.6,0.7-0.9,0H54.5z"/>
		<path class="st0" d="M49.7,168.6l-0.9-0.9L49.7,168.6z"/>
		<polygon class="st5" points="8.9,137.2 9.2,137.1 9.3,137.4 9,137.5 		"/>
		<path class="st0" d="M141.9,63c1.6-0.3,3.1,0.6,3.5,2.2c0,0.1,0,0.1,0,0.2c0.2,1.4,0.3,2.8,0.3,4.2c0.2,3-0.3,6,0.8,8.9
			c0.2,0.9,0.3,1.9,0.2,2.8c0.1,1.9-0.7,3.7-0.1,5.6s-0.5,2.4-1.8,3c-2.2-4.6-1.4-9.7-2.4-14.6C143.3,71.2,141.3,67.2,141.9,63z"/>
		<path class="st1" d="M141.9,63l1.8,6.6c0.4,1.7,0.1,3.4-0.8,4.9h-0.7c-2.3-1.8-1-4.6-2.1-6.8c-0.1-0.5-0.2-1-0.3-1.5
			c-0.8-7.9,0.5-15.1,6.1-21.1c0.8-0.8,1.4-1.7,2.7-1.5s1.1,1.2,0.8,1.6c-3.9,4.6-2.2,11.8-7.5,15.8V63z"/>
		<path class="st1" d="M142.9,74.5c0.3,0.4,0.6,0.8,0.8,1.2c0.6,4.7,1.5,9.4,1.1,14.2v4.8c-0.1,1.7-0.1,3.5,0,5.2
			c0.4,3.6-1.5,6.3-2.8,9.4c-0.1,0.3-0.7,0.5-1.1,0.8c-1.2-2,0.1-3.9,0.1-5.8c0.1-0.4,0.2-0.9,0.3-1.3c0.3-1.1,0.5-2.2,0.6-3.3
			c0.8-6.6,1.1-13.3-0.3-19.9C141.6,77.9,141.4,76,142.9,74.5L142.9,74.5z"/>
		<path class="st0" d="M141.9,61.1c0.4-0.8,0.5-1.9,1.1-2.5s1.9-3.1,1.8-5.1s0.1-3.6,2.1-4.7s1.8-3.2,1.7-5.1
			c-0.3-0.2-0.5-0.6-0.5-1c0-0.2,0-0.3,0.1-0.5c0.2-0.4,0.4-0.6,0.8-0.8c0.6-0.2,1.2,0,1.5,0.5c1.1,1.3,0,2.6,0,3.8s-0.3,1.5-0.9,2
			s-2.1,3.1-2.6,4.8s-0.2,3.4-0.4,5.1S145.2,60.6,141.9,61.1z"/>
		<path class="st10" d="M64.1,3.4c0.2,0.3,0.4,0.4,0.7,0.2s2.3-0.1,3.1,1l0,0c2.4,0.5,4.6,1.5,6.6,2.9l0,0c0.9,0.4,2.7-0.1,2.2,1.9
			c-0.6,0.7-1.5,1.2-2.5,1.4c-5.7-2.2-12-3.2-17-7.1c0.3-0.9,1.2-1.6,2.2-1.7C61.1,2,62.5,3,64.1,3.4z"/>
		<path class="st1" d="M39.2,13.2c-0.6,0.9-1.1,1.9-1.7,2.7C34,20.7,31.8,26,29.7,31.5c-0.5-3,0.8-5.6,1.8-8.2s3-7,6-9.5
			C38,13.5,38.6,13.3,39.2,13.2z"/>
		<path class="st0" d="M111.2,20.8c5.4-0.7,9.2,1.8,12.5,5.7c-0.4,0.4-1.1,0.7-1.7,0.6l-1.1-0.4c-0.9-0.6-2-1.1-3.1-1.2l-1-0.4
			l-2.1-0.7l-1-0.4l-2.2-0.7c-0.3-0.2-0.6-0.5-0.8-0.9C110.6,21.8,110.7,21.2,111.2,20.8z"/>
		<path class="st1" d="M40.8,12l-1.6,1.1c0.2-2.6,1.6-4.9,3.7-6.4c2.4-1.7,4.7-3.9,7.9-3.9c0.2,0.3,0.2,0.7,0.1,1
			c-0.2,0.3-0.4,0.6-0.7,0.8l-0.8,0.6l-0.9,0.6l-0.9,0.6l-1.4,1.1C44.2,8.7,43.1,11.1,40.8,12z"/>
		<path class="st0" d="M140,32.3c0.8-1.1,2.3-1.3,3.4-0.5c0,0,0,0,0,0c1.5,1,3.2,1.5,4.9,1.5c1.8,0,1.8,0.2,2.2,2.8l-0.4,0.5h-1.2
			l-1.1-0.4c-1.2-0.6-2.6-1-3.9-1.2l-1.1-0.3l-1.5-0.8l-0.9-0.7C140.2,32.9,140,32.6,140,32.3z"/>
		<path class="st11" d="M50.6,3.5c0.2-0.2,0.2-0.4,0.2-0.7h0.1c0.3-0.9,1.2-0.7,1.8-1h0.1c0.7-1,1.8-0.7,2.8-1s0.5,0.2,0.8,0
			c1.3-0.2,2.6,0.5,3,1.8l-2.1,1.1c-1.6,1-3.4,1.6-5.3,1.5c-0.5,0-0.9-0.2-1.3-0.4C50.3,4.5,50.3,3.9,50.6,3.5
			C50.6,3.5,50.6,3.5,50.6,3.5z"/>
		<path class="st1" d="M96.8,16.9c2.1,0.1,4.3-0.1,6.1,1.5s1.8,0.4,2.6,0.8s0.7,0.9,1,1.4c-0.1,0.2-0.3,0.4-0.5,0.5
			c-3.5,0.2-6.9-1.1-9.4-3.5C96.7,17.4,96.8,17.1,96.8,16.9z"/>
		<path class="st1" d="M76.7,9.1l-2.2-1.5c1.7-0.5,3.4-0.2,4.8,0.9c1.2,1,3.3,0.8,4.1,2.6l-0.5,0.5C80.2,12.4,78.3,11.2,76.7,9.1z"
			/>
		<path class="st0" d="M125.6,26.5c0.4-0.2,0.8-0.7,1.1-0.6l5.2,2.2c0.2,0.4,0.3,0.8,0.4,1.3l-0.5,0.5c-0.6,0.3-1.3,0.3-1.9,0.2
			l-1.2-0.4C127.4,28.9,125.9,28.3,125.6,26.5z"/>
		<path class="st1" d="M59.4,2.6l-3-1.8c0.3-0.3,0.9-0.9,1-0.8l6.7,3.4L59.4,2.6z"/>
		<path class="st1" d="M74.5,7.6l-6.6-2.9l0.8-0.5c1.8-0.4,2.9,1.3,4.6,1.6S74.1,7,74.5,7.6z"/>
		<path class="st1" d="M125.6,26.5l3.6,3c-3.2,1.1-5.8,0.3-7.4-2.9h3.8V26.5z"/>
		<path class="st0" d="M134.2,30.4c2.8-1.6,3.7-1.2,4.8,1.8c-0.2,0.4-0.5,0.6-0.9,0.7H137l-1.5-0.7l-0.9-0.7
			C134.4,31.2,134.3,30.8,134.2,30.4z"/>
		<path class="st1" d="M87.2,13.1h2.7c1.1-0.1,2.1,0.7,2.2,1.8c0,0,0,0,0,0c-0.2,0.2-0.3,0.4-0.5,0.5c-1.7,0.8-3.7,0.1-4.5-1.6
			c0,0,0-0.1-0.1-0.1C87.1,13.5,87.1,13.3,87.2,13.1z"/>
		<path class="st1" d="M111.2,20.8v1.8c-2.3,1-4,0.9-4.8-1.8v-0.2h0.9c0.3-0.2,0.6-0.1,0.9,0.2H111.2z"/>
		<path class="st1" d="M92.1,14.9c1.8,0.2,3.8-0.1,4.7,2v0.2c-2.3,1.1-4,0.7-4.9-1.9L92.1,14.9z"/>
		<path class="st1" d="M150.5,41.9l-2-0.2c-0.2-1.4,0.6-2.1,1.7-2.7c0.4-0.2,0.9-0.2,1.3,0C151.2,40,150.9,40.9,150.5,41.9z"/>
		<path class="st0" d="M151.5,39l-1.1,0.2l-0.4-0.6c-0.4-0.9-0.2-1.8,0.5-2.5C152.5,37.4,152.5,37.6,151.5,39z"/>
		<path class="st1" d="M29.7,31.4l-0.9,4c0-0.4-0.1-0.9-0.3-1.3C27.8,32.7,28.3,31.8,29.7,31.4z"/>
		<path class="st1" d="M55.6,0.8l-2.8,1C54,0.1,54.2,0,55.6,0.8z"/>
		<path class="st1" d="M67.9,4.6l-3.1-1C66,3.6,67.2,3.2,67.9,4.6z"/>
		<path class="st1" d="M134.2,30.4l0.8,1.1c-1.2,0.7-2.2,0.8-2.8-0.7s0.5-0.7,1-0.5L134.2,30.4z"/>
		<path class="st1" d="M137.8,32.5l1.2-0.3h1l0.7,1.2C139.4,34.1,138.3,34.2,137.8,32.5z"/>
		<path class="st0" d="M149.6,47.7l0.9-2L149.6,47.7z"/>
		<path class="st1" d="M85.3,12.1l1.9,1h-0.1c-0.9,0.6-1.5,0.4-2-0.5L85.3,12.1z"/>
		<path class="st1" d="M83.4,11.1l1.9,1l-0.2,0.2c-1,0.5-1.7,0.3-1.9-0.9L83.4,11.1z"/>
		<path class="st1" d="M52.7,1.8l-1.8,1C51.1,1.7,51.9,1.6,52.7,1.8z"/>
		<path class="st0" d="M133.2,30.3l-1,0.3l-0.3-0.4c0-0.3,0.1-0.6,0.4-0.8L133.2,30.3z"/>
		<path class="st0" d="M108.3,20.8l-0.9-0.2L108.3,20.8z"/>
		<path class="st12" d="M142,103.4c0,2.3-0.4,4.5-1.1,6.7c-0.1,0.3-0.1,0.5,0,0.8c-1.2,3.5-1.1,7.1-2.1,10.6
			c-2.8,5.4-3.9,5.6-7.6,1.2c-0.5-1.4,2.3-2.9-0.4-4.2s-3-4.6-0.7-7.3c0.7-2,1.9-3.8,3.3-5.3c0.9-1,1.6-1.5,1.3-3s-0.1-3.2,2.4-2.6
			S140.6,102,142,103.4z"/>
		<path class="st13" d="M121.7,163.8l-5.5,6.9c-0.3,0.4-0.8,0.5-1.2,0.8c-3.3-1.1-4.7-3.6-4.8-7c1.3-1,2.8-1.3,4.3-2
			s4.2-3.3,3.7-6.3c-0.6-2.5,0.7-5.2,3.2-6.1c1.8-0.5,2.6-2.1,3.8-3.3s3.9-3.5,5,0.7c-0.1,0.7-0.3,1.4-0.8,1.9
			c-0.1,0.3-0.1,0.5,0,0.8c-0.6,2.5-1,5-2.9,6.9s-1.4,1.3-2,2.2c-0.2,0.3-0.4,0.7-0.5,1l-0.8,1.6
			C122.6,162.5,122.1,163.1,121.7,163.8L121.7,163.8z"/>
		<path class="st1" d="M138,121.6c0.4-1.8,0.8-3.7,1.1-5.5c0.1-1.9,0.7-3.7,1.8-5.2c-0.2,2.2-0.1,4.5-0.5,6.6s-0.7,4.1,0.1,6.1
			c0.3,0.8,0.1,1.7-0.6,2.2l-2.8,2.5c-0.1-0.2-0.3-0.3-0.5-0.5C135.7,125.4,137.6,123.7,138,121.6z"/>
		<path class="st1" d="M137.1,128.3c0,2.1,0.1,4.1,0,6.2c0,2.4-1.5,4.6-3.8,5.4l-0.5-0.6c-0.4-0.9-0.4-1.9-0.1-2.8
			C134.3,133.9,133.6,129.9,137.1,128.3L137.1,128.3z"/>
		<path class="st1" d="M125.6,157.1c1.2-2.3,2.5-4.6,3.8-6.9c0.1,0.9,0.1,1.9,0,2.8c-0.2,1.4,1.4,2.7,0.3,4c-1,1.2-2.5,2-4.1,2
			c-0.2-0.1-0.3-0.2-0.4-0.4C125,158.1,125.1,157.5,125.6,157.1z"/>
		<path class="st1" d="M129.4,149.4v-1.9c0.6-0.5,0.5-1.3,0.5-2l0.6-2c0.1-0.4,0.2-0.8,0.4-1.1c0.2-0.7,0.5-1.4,0.8-2
			c0.4-0.5,0.8-0.9,1.5-0.6h0.1v2.3C133.2,147.4,134,146.2,129.4,149.4z"/>
		<path class="st1" d="M121.7,163.8l1.1-2.7c0.2-0.4,0.5-0.8,0.9-1.1l0,0l0.5-0.4l0.4,0.4C125,162.3,123.4,163.1,121.7,163.8z"/>
		<path class="st1" d="M125.6,159l-1,1l0,0C124.3,159,124.7,158.8,125.6,159L125.6,159z"/>
		<path class="st1" d="M22,94.8c0,2.4-0.7,4.7-1.9,6.8c0-1.8,0.2-3.6,0.4-5.4C20.6,95.7,21.5,95.2,22,94.8z"/>
		<path class="st1" d="M20.2,101.5c-0.2,2.1-0.8,4.1-1.9,5.9c-0.1-1.1-0.2-2.1-0.2-3.2C18,102.9,18.9,101.7,20.2,101.5z"/>
		<path class="st1" d="M23.1,90c0.1,1.7-0.2,3.4-1.1,4.8c-0.1-1-0.1-2.1,0-3.1C22.1,91.1,22.7,90.6,23.1,90z"/>
		<path class="st0" d="M52,4.6c1.6-0.9,3.5-1.2,5.3-0.9c0.5,0.3,1,0.6,1.6,0.8c4.8,1.3,9.5,3,14,5.2l1.8,0.5
			c3.2-0.3,5.8,1.6,8.5,2.8c19.9,8.6,40.3,16,60.7,23.3c2.8,0.9,5.7,1.7,2.5,5.3c-9.3,8.7-12.6,20.2-14.7,32.1
			c-3.1,17.4-5.3,35-9.9,52.2c-3.3,11.9-7.5,23.4-13.9,34c-2.6,4.1-5.9,7.5-8.9,11.2s-5,2.5-7.8,1.2C73,163.7,53.6,158,36.1,147.8
			c-1.4-0.9-2.9-1.6-4.5-2.2l-1.1-0.4l-1.4-0.7l-0.9-0.5l-1.3-0.9c-0.1-0.2-0.2-0.3-0.2-0.5c-0.3-0.3-0.7-0.6-1.1-0.9l-13.9-6.1
			l-2.2-0.7L8,133.8c-0.2-1.1,0.6-1.7,1.2-2.4c5.6-5.9,9.1-13,12-20.6c4.1-10.9,6.6-22.3,7.5-33.9c0.8-11.7,1.8-23.3,2.6-34.9
			c0.7-9.8,4.2-19.1,10-27c0.4-0.5,0.7-1,1-1.6C43.9,8.7,47.6,6.2,52,4.6z"/>
		<path class="st14" d="M52,4.6c-3.5,2.6-6.7,5.6-9.7,8.8L40.8,12c1.3-2.4,3.3-4.4,5.7-5.8c0.6,0,1-0.4,1.2-0.9h0.1
			c0.5-0.4,1.5-0.1,1.7-1.1h0.1c0.4,0,0.8,0.1,1.1,0.4H52z"/>
		<path class="st15" d="M35.4,146.4c1,0.4,2.1,0.6,3.1,1.1c4.8,2.5,9.6,5.1,14.5,7.4s11.1,4.9,16.8,7s13,5.1,19.4,8.1
			s5.7,3.7,11-2.1c7.4-8,12.1-17.6,15.7-27.7c5.7-15.6,8.9-31.9,11.6-48.3c1.4-9,2.9-18,4.8-26.9c1.4-6.6,4.1-12.8,7.9-18.3
			c1.6-2.2,3.2-4.4,5.6-5.8s2.1-2.1,3.6-2.4c0.4,0.1,0.8,0.3,1,0.7l0,0l-1.9,2.5l0,0l-0.9,1.1c-9.8,11.8-12.4,26-14.2,40.5
			c-0.6,2.7-0.7,5.4-1.2,8.1c-0.4,1.4-0.6,2.9-0.7,4.4c-0.7,3.5-1.1,6.9-1.8,10.4s-1.5,6.2-2.2,9.3c0,1.2-0.2,2.4-0.6,3.6
			c-0.7,3.1-1.6,6.3-2.3,9.4c-0.3,1-0.7,2.1-1.1,3.1l-0.6,1.7c-0.1,0.5-0.3,1.1-0.5,1.6c-0.3,0.7-0.5,1.4-0.8,2.2
			c-0.1,0.3-0.2,0.7-0.4,1c-0.3,0.7-0.5,1.4-0.6,2.2c-0.1,0.4-0.2,0.8-0.4,1.1c-0.7,2.1-1.3,4.3-2.2,6.4l-0.6,1.2
			c-2.7,5.3-5.3,10.7-8.5,15.8c-2.1,2.4-3.9,5.1-6.1,7.4s-2,2-3,2.9c-2.6,2.5-5.1,3-7.7,0c-4.7-2.4-9.3-5.3-14.4-6.7l-4.8-2.1
			c-8.8-2.9-17.3-6.6-25.4-11.1c-0.9-0.5-1.8-0.8-2.7-1.1c-3.4-1.5-6.9-3.2-10.2-5h-0.1c-0.6-0.3-1.5-0.1-1.9-0.9h-0.1l-1.3-0.7
			l-1-0.4l-0.9-0.4L28,146l-1-0.5l-1.2-1h-0.1c-0.5-0.6-1.3-0.4-1.9-0.8h-0.1c0.7-1.1,1.9-0.8,3-1.1h0.1c0.4,0.6,1.3,0.4,1.8,0.8
			h0.1c0.4,0.7,1.3,0.5,1.9,0.8h0.1C32,145.7,33.8,145.7,35.4,146.4z"/>
		<path class="st16" d="M34.6,149.2c3.6,1.2,7.1,2.8,10.2,5C40.9,153.7,37.4,151.9,34.6,149.2z"/>
		<path class="st16" d="M32.6,148.3l1.9,0.9l-2,0.2L32.6,148.3z"/>
		<path class="st17" d="M92.1,175.2c4.5,1.9,4.5,1.9,8-1.6l2.4-2.3c0.9-0.2,1.8,0.3,2.1,1.2c0,0.1,0,0.1,0,0.2
			c0,0.2-0.1,0.5-0.2,0.7c-1.5,0.1-3.1,0.9-3.2,2.3s-1.6,2.9-2.5,4.2c-0.9,1.3-2.7,1.7-4,0.8c-0.4-0.3-0.8-0.7-1-1.1
			C92.9,178.2,91.9,176.9,92.1,175.2z"/>
		<path class="st18" d="M110.3,175.4c-2.8,3.9-6.9,6.7-11.6,7.7c0.9-2.2,1.9-4.1,4.5-5.1c0.9-0.3,1.5-1.7,2.2-2.7
			c0.3-0.3,0.7-0.5,1.1-0.6C107.8,174.7,109.2,174.3,110.3,175.4z"/>
		<path class="st17" d="M106.4,175.3h-1v-0.9h0.6C106.3,174.6,106.5,174.9,106.4,175.3z"/>
		<path class="st17" d="M105.4,174.4l-1-1h0.1C105.3,173.2,105.6,173.5,105.4,174.4z"/>
		<path class="st16" d="M27.6,145.5c0.2,0.3,0.4,0.4,0.7,0.3c0.5,0,0.9,0.2,1.2,0.6c0.2,0.3,0.5,0.4,0.8,0.3l1.2,0.6l1,1.1
			c-2.6,0.2-5.1-1-6.6-3.1C26.5,145.1,27.1,145.1,27.6,145.5z"/>
		<path class="st7" d="M27.6,145.5l-1.7-0.2c-0.1-0.2-0.1-0.4-0.1-0.6L27.6,145.5z"/>
		<path class="st7" d="M23.8,143.8c0.7-0.3,1.6,0.1,1.9,0.8L23.8,143.8z"/>
		<path class="st3" d="M23.8,150.4l-0.9-1L23.8,150.4z"/>
		<path class="st19" d="M105.4,174.4l-0.9-1l-2-2.1l5.6-6.6c0.6-0.5,1.5-0.5,2.1,0.1l4.8,6.7l-2,2.8l-2.7,1.1
			c-1.3-0.2-2.6,1-3.9-0.1L105.4,174.4z"/>
		<path class="st20" d="M132.4,83.2c0.8-10.7,2.8-21.1,7.6-30.8c1.9-3.8,4.1-7.5,7.7-10.1c0.4,0,0.8,0.3,0.9,0.7
			c-0.1,0.2-0.1,0.5,0,0.7c-1,1.3-2.1,2.4-3,3.7s-1.3,2.2-2,3.2c-2.5,4.2-3,8.7-2.7,13.4c0.1,1,0.1,1.9,0,2.9
			c-2.5,1.6-2.5,1.6-2.3,5.7c1.9-1.2,0.7-3.8,2.4-4.9c1.1,1.1,0.8,2.6,0.9,3.9s0,2.2,0.9,3s0.1,3.8,0.1,5.7c-2.2,1-3.8,2.2-3.4,5
			c0.2,1.2-0.3,2.2-1.9,2.1C136.1,85.7,134.4,84.3,132.4,83.2z"/>
		<path class="st21" d="M141,67.7c0,1.6,0,3.2-0.1,4.8c0.1,1-0.8,1.9-1.8,2c-0.2,0-0.5,0-0.7-0.1c-1.5-0.3-2.4-1.4-2.1-2.7
			c0-0.1,0-0.3,0.1-0.4c0.9-1.1,1.3-2.5,0.9-3.9c-0.2-0.5,0.5-1.5,1-1.9s1.6,0.6,2.2,1.1l0.4,0.3C141,67.2,141,67.4,141,67.7z"/>
		<path class="st22" d="M138.1,87c1-0.7,0.4-1.6,0.2-2.5c-0.6-3.4,0.9-4.8,4.6-4.2c1.5,6.1,0.7,12.2,0.4,18.3
			c-0.1,0.6-0.2,1.3-0.4,1.9c-1,0.7-0.2,2.1-1,2.9h-2.2c-2.2-0.1-2.2-0.1-2.6-2.8c0-0.2-0.1-0.4-0.1-0.6l-0.6-1.1
			c-1.2-2.4-4.3-1.5-5.9-3.1c0.2-1.4,0.4-2.8,0.7-4.2c2.1,1.2,4,1.8,4.6-1.7C136,88.6,137,87.8,138.1,87z"/>
		<path class="st12" d="M141.9,103.4c0-1.1-0.2-2.2,1-2.9C142.8,101.5,143,102.6,141.9,103.4z"/>
		<path class="st1" d="M148.6,43l-0.9-0.7l0.8-0.5C148.5,42.2,148.5,42.6,148.6,43z"/>
		<path class="st23" d="M149.6,39c-1.3,0.5-2.1,2.1-3.8,1.9l0.9-1.1c0.5-0.5,0.8-1.2,0-1.4c-4.5-1.6-9.1-2.9-13.6-4.6
			c-9.9-3.6-19.6-7.5-29.5-11.2s-18.3-7.3-27.2-11.5l-1.7-0.9l2-1.1l6.5,2.3l1.9,0.9l2,0.9l4.7,2l4.9,1.9l9.7,3.7l4.8,1.8
			c0.1,0.3,0.3,0.4,0.6,0.2s1.6,0.3,2.2,0.9h0.1c0.8,0.9,2.1,0,2.8,1l0,0c1.6,0.6,3.5,0.4,4.8,1.9h0.1c2.3,1.4,4.8,2.4,7.4,2.9h0.1
			c0.8,0.8,2.2-0.1,2.9,1l0,0l2.8,0.9h0.1c0.6,0.4,1.4,0.2,2,0.8c0.6,0.6,0.4,0.3,0.7,0.2l2.9,1h0.1c0.7,0.3,1.4,0.2,2,0.7h0.2
			c1.8,0.7,3.9,0.8,5.6,1.9l0,0C149.6,36.9,150.5,37.6,149.6,39z"/>
		<path class="st1" d="M121.7,26.6l-4.8-1.9C118.8,24.6,120.8,24.2,121.7,26.6z"/>
		<path class="st1" d="M116.9,24.7l-2.8-1C115.2,23.7,116.3,23.5,116.9,24.7z"/>
		<path class="st1" d="M114,23.7l-2.2-0.9C112.7,22.6,113.5,22.9,114,23.7z"/>
		<path class="st14" d="M49.5,4.2c-0.2,1.1-0.9,1.1-1.7,1.1L49.5,4.2z"/>
		<path class="st14" d="M47.7,5.3l-1.2,0.9L47.7,5.3z"/>
		<path class="st14" d="M50.7,4.5l-1.1-0.4l1-0.6C50.6,3.8,50.6,4.2,50.7,4.5z"/>
		<path class="st1" d="M148.6,36.2l-5.6-1.9C145.1,34.1,147.1,34.2,148.6,36.2z"/>
		<path class="st1" d="M149.6,39l-1-2.8h1.9c0,1.1,0,2.1-0.1,3.1L149.6,39z"/>
		<path class="st1" d="M142.8,34.2l-2-0.7C141.5,33.2,142.4,33.5,142.8,34.2z"/>
		<path class="st1" d="M132.2,30.5c-1.1,0-2.2,0-2.9-1h3C132.3,29.8,132.2,30.2,132.2,30.5z"/>
		<path class="st1" d="M137.1,32.3l-2-0.8C135.9,31.3,136.7,31.6,137.1,32.3z"/>
		<path class="st24" d="M130.5,95.7h1.4c3.2-0.5,5.2,0.7,6.2,3.8c-0.4,0.3-0.7,0.6-1,1c-1.4,0.1-2.1,0.8-1.7,2.2s0.8,2,1.1,3
			s-2.8,0.5-3.1,1.2s-2.4,3-2.1,5.1c-4-0.4-1.8-3.9-2.7-5.8L130.5,95.7z"/>
		<path class="st25" d="M137.1,128.3c-1.4,2.2-1.6,4.9-2.8,7.2c-0.3,0.5-0.7,1-1,1.6c-2.4-0.7-2.9-2.7-3.4-4.8
			c0-0.4,0.1-0.8,0.3-1.2c1.4-2.7-2.3-5.7,0.6-8.2c0.2-0.1,0.4-0.2,0.5-0.4l4.1,2.6l2.6-3.5L137.1,128.3z"/>
		<path class="st25" d="M128.6,106.2c0.4,0.7,0.6,1.4,0.8,2.1c0.1,1.4,0.8,2.8,1.9,3.7c0,1-0.7,1.8-1.6,2c-1.1,0.6-1.2,1.8-0.2,2.1
			s2.9,2.4,3.9,4l-2.1,2.4l0,0c-1.1,0.8-2,2.8-3.8,1.7s-0.9-2.5-1-3.9s1-3,0.1-4.6C127.3,112.6,127.9,109.4,128.6,106.2z"/>
		<path class="st26" d="M130.4,131.2v0.9c0.3,1.3-0.1,2.6-1.2,3.4c-1.8,1.8-2.3,3.3-0.2,5.2s1.5,2.8,0.1,3.2c-3.5,1.1-4.3,5-7.4,6.5
			c-0.2,0.5-0.4,1.4-0.8,1.6c-2.2,0.6-2.1,1.9-1.4,3.7s-0.5,4-1.1,5.9c-0.1,0.3-0.4,0.6-0.7,0.7c-2.5,0.8-4.5,3.1-7.5,2.5h-2.1
			c0-0.1,0-0.3,0.1-0.4l8.5-15.9c1.1,0,0.4-0.6,0.4-1c0.8-2.2,1.7-4.4,2.6-6.6c0.5-0.1,1-0.4,1.3-0.9c1.3-3.6,2-7.5,6.4-8.9
			C128.5,130.7,129.4,130.2,130.4,131.2z"/>
		<path class="st27" d="M121.7,150.4c0.3-0.7,0.4-1.7,0.9-2.1c1.1-0.9,2.1-2,2.8-3.2c0.5-0.6,1.1-1.1,1.8-1.4
			c2.3-1.1,2.4-1.2,0.3-2.9c-0.6-0.5-1.2-1-1.6-1.7c-0.6-1-0.3-2.3,0.7-2.9c0,0,0,0,0,0c1.9-0.8,2.7-2.6,3.8-4.1c1,1.7,2,3.3,2.9,5
			s-0.1,1.8-0.1,2.7l-0.9,1c-0.6,0.5-0.4,1.4-0.9,2c0,0.3,0,0.6-0.1,0.9c-0.6,0.5-0.3,1.4-0.9,1.9l-1,1.9c-0.1-1-0.4-2-1.7-1.4
			c-0.8,0.4-1.5,1-2,1.7c-0.4,0.4-0.4,1.1-0.7,1.7S124.2,151.2,121.7,150.4z"/>
		<path class="st28" d="M125.5,159l-0.9,1h-0.9c-0.1-1.3,0.7-2.5,1.9-2.9C125.5,157.7,125.5,158.4,125.5,159z"/>
		<path class="st28" d="M123.7,160l-0.9,1.1L123.7,160z"/>
		<path class="st26" d="M130.4,145.6l0.9-1.9L130.4,145.6z"/>
		<path class="st26" d="M131.4,142.8l0.9-2L131.4,142.8z"/>
		<path class="st29" d="M52.5,28.1l-0.4,0.2c-0.7-0.3-1.8-0.9-2-0.7c-0.6,0.7-1.1,1.5-1.3,2.4c-0.5,1.7-0.8,3.4-1.3,5.1
			c-0.1,0.5-0.2,1-0.5,1.4c-0.4,0.3-1.1,0.8-1.4,0.7s-0.8-0.9-0.9-1.4c0-0.6,0.1-1.3,0.3-1.9c1.5-5.2,3.1-10.4,4.7-15.6
			c0.1-0.3,0.3-0.6,0.5-0.8c0.4-0.2,0.8-0.4,1.3-0.4c0.3,0.1,0.5,0.4,0.6,0.7c0.2,1.8,0.3,3.7,0.6,5.9l5-4.3
			c0.5-0.3,1.1-0.3,1.7-0.1c0.5,0.4,0.6,1.1,0.5,1.7c-0.4,1.5-1.1,2.9-1.6,4.4c-0.5,2.7-1.1,5.4-2,8c-0.6,1.7-0.8,3.6-2.6,4.7
			s-2.4,0.1-2.3-1c0.1-1.4,0.3-2.8,0.7-4.1c0.4-1.6,1-3,1.5-4.5S52.9,28.1,52.5,28.1z"/>
		<path class="st30" d="M66.9,35.2c0.3-0.2,0.4-0.5,0.2-0.8c0.4-0.6,0.3-1.5,0.7-2.1c0.3-0.2,0.4-0.5,0.2-0.8c0.8-0.9,0.1-2.2,1-3
			c0.2-0.8,0.5-1.5,0.9-2.2c0.3-0.5,0.7-1.3,1.1-1.4s0.9,1,1.1,1.7c0.6,3.2,1.3,6.4,2.1,10.6l1.5-3.3c1.3-2.9,2.5-5.8,3.9-8.7
			c0.1-0.3,1-0.4,1.6-0.4c0.2,0.4,0.3,0.8,0.3,1.3c0,0.3-0.1,0.6-0.2,0.9l-0.4,0.9c-1.4,4.2-2.9,8.4-4.4,12.6c-0.3,1-0.6,2.3-2,2.4
			s-1.8-1.5-2.2-2.7s-1.1-3.9-1.9-6.6c-0.9,2.7-1.4,4.7-2,6.6c-0.2,1-1.1,1.7-2.1,1.6C65.2,41,65.6,40,66,39s0.2-0.5,0.1-0.9
			S66.2,36,66.9,35.2z"/>
		<path class="st31" d="M26.4,113.5c0.1-1.4,0-2.9,0.2-4.3c0.3-2.1,2-3.7,4.1-4h1.4c2.4-0.1,4.5,0.5,5.6,2.8s0.1,4.4-1.5,6.1
			c-1.8,1.8-3.8,3.4-5.8,5c-2,1.5-3.7,0.8-3.9-1.7s0-2.5,0-3.8L26.4,113.5z"/>
		<path class="st32" d="M66.2,31.3c-0.3,0.2-0.3,0.6-0.2,0.9c-0.8,0.8,0,2.2-0.9,3l0,0c-0.9,0.8-0.2,2-0.9,2.9
			c-0.3,1.2-0.8,2.4-1.3,3.5c-0.3,0.4-0.8,0.7-1.4,0.7c-0.5-0.2-1.1-1-1-1.4c0.1-1.1,0.3-2.2,0.6-3.2c0.1-0.4,0-1.2-0.2-1.2
			c-0.6-0.2-1.2-0.3-1.8-0.1c-0.5,0.3-0.8,0.9-1.3,1.3s-1.4,0.5-2.2,0.3s-0.3-2.6,0.1-3.9s1.4-5,3.7-6.5s1.5-2.8,2.3-4.1
			s3.2-2.3,4.8-0.1c0.3,0.4,0.5,0.8,0.6,1.2c0.5,0.9,0.5,2,0,2.9l-0.3,1.6C66.7,29.9,66.5,30.6,66.2,31.3z"/>
		<path class="st33" d="M46.2,92.7c1.4,0.4,2.3,2,4.2,1.1s2,0.9,1.4,2.1s-0.4,0.5-0.6,0.8l-0.7,1.5l2.2,0.5l0.9-0.3
			c0.9-0.4,0.6-2.6,2.2-1.8s0.3,1.8,0.8,2.5s1.2-0.3,1.9-0.5c2,1.7,2.4,3.3-0.1,4.8c-0.7-0.4-1.2-1.1-2.1-0.6
			c-0.7,0.5-1.6,0.3-2.1-0.4c-0.1-0.2-0.2-0.3-0.2-0.5c-0.5-1.1-1.2-1.2-2.3-1.2c-1.6,0-3.1-0.7-4-2c-0.7-1-2-1.2-2.9-0.5
			c-0.4,0.3-0.6,0.6-0.8,1c-0.2,0.8-0.5,1.5-0.8,2.2c-0.3,0.4-1.1,0.9-1.5,0.8c-0.6-0.2-1-0.7-1.1-1.3c0.1-1.7,0.4-3.4,0.9-5.1
			c0.4-1.4,1-2.7,1.6-4c0.8-0.4-0.1-2.4,1.7-1.9l0.2,1.8C45.2,92.2,45.7,92.5,46.2,92.7z"/>
		<path class="st34" d="M61,48.5c0.8,0,1.5,0.1,2.2,0.5c5.4,2.5,11.2,3.7,16.8,5.6l9.8,3.8c0.6,0.2,1.2,0.6,1.6,1.1
			c0.2,0.1,0.2,0.6,0.1,0.8s-0.4,0.6-0.6,0.6c-1.1,0-2.2-0.1-3.3-0.4c-6.5-2.1-13-4.4-19.5-6.6c-2.7-1-5.3-2.2-7.9-3.3
			c-0.4-0.2-0.6-1-0.9-1.5C59.8,48.8,60.4,48.6,61,48.5z"/>
		<path class="st35" d="M67,134.1c0.2-0.4,0.5-0.8,0.8-1.2c1-1.5,1.3-1.5,2.2-0.3l0.8,1.2c0.9,0.8,1.6,0.7,2.2-0.3l2-3.7
			c0.2-0.2,0.5-0.3,0.8-0.2c0.2,0.1,0.6,0.5,0.5,0.6c-0.2,1.2-0.5,2.4-0.9,3.6c-0.3,0.5-0.2,1.1,0.3,1.4c0.1,0,0.1,0.1,0.2,0.1
			c1.3,0.9,1,2.2,0.9,3.4c0,0.8-0.4,1.5-1.1,2c-0.3,0.3-0.6,0.8-1,0.9s-0.9-0.6-1-1.2s0.1-1.5,0.2-2.5c-1.4,1.2-2.1,2.8-4,1
			s-2.6,0.2-3.4,1.6s-0.8,1.7-1.4,2.5c-0.3,0.3-0.7,0.5-1.1,0.5c-0.8-0.1-0.8-0.8-0.6-1.4s1.2-2.6,1.6-4s-0.5-1-0.8-1.5
			c-0.1-0.6,0.2-1.2,0.8-1.4C65.7,134.9,66.4,134.5,67,134.1z"/>
		<path class="st36" d="M59.4,81.3l-1.1,1.9c-1.1,1.4-1.8,1.2-2.7-0.9l0.7-1c0.1-0.3,0.1-0.7,0.2-1s-1.2-0.6-1.8,0.1h-0.1
			c-0.4,0.1-0.7,0.4-0.7,0.8C53.5,81.5,53,82,52.7,82l-4.2-0.5c-3.1-0.4-4.3-3-2.6-5.6c0.6-0.9,1.4-1.7,2.4-2.2
			c0.6-0.2,1.2,0,1.6,0.4c0.4,0.4,0.5,1.1,0.3,1.6c-0.7,1.1-1.4,2.2-2.2,3.2c1.9,1,3.4,0.4,4.2-1s1.9-1.3,3.2-1.3s3.1,0.1,4,1.8
			C60.2,79.2,60.2,80.5,59.4,81.3z"/>
		<path class="st37" d="M95.7,29.9l-1.5-0.2c-1-0.2-1.9,0.3-2.2,1.3c0,0,0,0.1,0,0.1l-1.6,4.5c-0.2,0.6,0.1,1,0.6,1.6
			s1.1,1.4-0.2,1.7s-1.7,0.6-2,1.7c-0.5,1.5-1.1,3-1.8,4.4c-0.1,0.3-0.8,0.5-1.2,0.4c-0.4-0.3-0.6-0.7-0.6-1.1
			c0-0.6,0.1-1.3,0.3-1.9c1.5-4.5,3.1-9,4.8-13.5c0.9-2.3,1.4-2.4,4.1-1.7c1.2,0.2,2.5,0.7,3.6,1.2c0.4,0.2,0.5,1,0.8,1.5l-1.3,0.3
			L95.7,29.9z"/>
		<path class="st38" d="M106.2,49.5c-0.8,0.5-1.4,1.4-2.3,1.6c-1.2,0.4-2.4,0.5-3.6,0.5c-0.6-0.2-1.1-0.7-1.2-1.3
			c-0.1-0.4,0.5-1,0.9-1.4c0.4-0.3,0.8-0.4,1.3-0.3c1.1,0.2,2.2-0.3,2.7-1.4c0.8-1.3,0.8-2.9,0.2-4.2c-0.4-0.8-1.1-1.5-1.5-2.4
			c-0.4-0.9-0.4-1.8-0.2-2.7c0.7-2.2,3.8-3.6,6.6-3.1c0.1,0,0.1,0.3,0.2,0.4c0.4,0.6,0.5,1.3,0.3,2c-1.8,1.1-2.5,3.3-1.6,5.2
			C108.8,45,109,47.7,106.2,49.5z"/>
		<path class="st39" d="M96.3,46.7c0.6-0.1,1.3-0.2,1.9-0.1c0.3,0,0.6,0.2,0.6,0.5c0.1,0.3,0,0.8-0.2,0.9c-1.4,0.7-2.8,1.1-4.3,1.4
			c-0.7,0.1-1.8-1-2-1.7c-0.4-1.4-0.5-2.8-0.1-4.2c0.7-2.9,1.7-5.8,3-8.5c0.7-1.6,2.6-1.5,4.2-1.6l0.8,0.3c-0.1,0.5-0.2,1.2-0.5,1.3
			c-1.6,0.4-2.8,1.7-3.1,3.3c-0.1,0.4-0.2,1.1,0,1.2s0.9,1.7-0.1,2.1s-1.8,2.8-1.7,4.5S96.1,46.6,96.3,46.7z"/>
		<path class="st38" d="M79.6,90.8c-0.4-0.7-0.7-1.4-0.8-2.2c-0.1-1.4,1-2.6,2.4-2.6c0.1,0,0.3,0,0.4,0c0.8,0.1,1.4,0.8,1.4,1.6
			c0,0.1,0,0.3-0.1,0.4c-0.2,0.4-0.7,0.7-0.8,1.2c-0.2,1,0.4,1.9,1.3,2.2c0.2,0.1,0.4,0.1,0.7,0c0.7-0.3,1.5-0.5,2.3-0.6
			c0.8-0.2,1.5,0.3,1.7,1.1c0,0,0,0.1,0,0.1c0.2,1.2,0.8,2.4,0.2,3.7s-3.5,3.1-4.9,1.3c-1-1.4-2.5-2.3-4.2-2.6
			c-1.2-0.3-1.1-1.7,0.3-2.7s0.6-0.1,0.3-0.5L79.6,90.8z"/>
		<path class="st40" d="M109.3,37v-1.8c3.4,1.1,6.2,3.6,9.5,4.8c0.3,1.5-0.8,1.4-1.6,1.4s-2.5,0.1-3.1,1.5s-0.3,0.3-0.2,0.5
			s-0.2,1.7-0.9,2.3l0,0c-0.4,0.6-0.3,1.4-0.9,1.9l0,0c-0.5,0.5-0.4,1.3-0.8,1.9c-0.2,0-0.4,0.2-0.4,0.4c0,0.1,0,0.1,0.1,0.2
			c-0.1,0.8-0.3,1.6-0.8,2.2l0,0c-0.5,0.6-0.4,1.4-0.9,2h-0.1l-0.9,0.9c-0.8,0-1.4-0.6-1.4-1.4c0-0.2,0-0.3,0.1-0.5
			c0.1-0.9,0.3-1.7,0.5-2.6c0.2-2,0.8-4,1.7-5.8C110.5,42.4,110.5,39.5,109.3,37z"/>
		<path class="st41" d="M105.6,115.9c-0.2,0.3-0.3,0.5-0.4,0.8c0.4,1.1-0.2,2.3-1.3,2.7c-0.2,0.1-0.4,0.1-0.6,0.1
			c-1.4-0.2-3.2,0.6-4-1.4c-0.2-0.3-1.1-0.4-1.6-0.4s-1.6,0.1-1.9-0.9s-1.3-3.1,0.2-3.7s0.5,2.6,2.3,2.7s1.6-2.3,3.3-1.9
			s0.8,1.8,0.4,2.3c0.3-1.2,0.8-2.3,1.4-3.3c0.3-0.6,0.5-1.2,0.8-1.7s0.9-1.6,1.4-1.7s0.7,1.1,0.8,1.7s1.9,0.5,2.6,1.3
			c0.3,0.3,0.5,0.7,0.6,1.1c-0.2,0.3-0.4,0.5-0.7,0.6c-0.3,0.1-0.6-0.1-0.9,0l-1.6,0.8C106,115.2,105.8,115.5,105.6,115.9z"/>
		<path class="st42" d="M114.9,99.5c-0.3,0.3-0.5,0.8-0.8,0.8c-0.7,0.2-1.5,0.2-2.2,0.2c-0.2,0.5-0.6,0.9-0.6,1.4
			c-0.1,0.9-0.2,1.8-0.5,2.6c-0.4,0.7-1.2,0.9-1.6-0.2l-0.7-0.9c-1.4,0.4-2.6,1.1-4.1,0.6s-3.3-3-1.5-5c0.3-0.4,0.7-0.6,1.2-0.7
			c0.6-0.2,1.2-0.1,1.7,0.1c0.3,0.5,0.5,1,0.5,1.6c0,0.4-0.5,0.8-0.6,1.3s0.6,0.7,1.1,1s1.9-0.1,2.3-1.2s-0.1-0.5,0.2-0.6
			s0.2-2.1,0.8-3.1H110c1.2-0.7,0.4-2.1,1.1-2.9l0,0c0.7-0.5,0.6-1.4,0.8-2.1l0,0c0.7-0.2,1-1.3,2-0.7l-0.3,1.9
			c-0.1,0.4-0.2,0.8-0.4,1.1l-0.5,1.8C112.2,98.7,113.7,98.9,114.9,99.5z"/>
		<path class="st43" d="M109.3,37c0.5,0.6,1.1,1.1,1.7,1.5c1.1,0.7,1.5,2.2,0.8,3.3c0,0,0,0,0,0c-1.5,3-2.9,6-4.3,9l-1.3-1.3
			c0.6-2,1.7-3.9,1-6c-0.5-1.4-1.1-2.7-1.9-3.9c-0.4-0.6-0.1-1.4,0.5-1.8c0.1-0.1,0.2-0.1,0.3-0.1C107.1,37.4,108.2,37.1,109.3,37z"
			/>
		<path class="st44" d="M47.9,126.4c0.3-0.6,0.7-1.1,1.1-1.6c0.4-0.5,0.9-0.7,1.5-0.7c0.6,0.1,0.8,0.8,0.5,1.5
			c-0.1,0.5-0.1,0.9-0.1,1.4c1.2,0.6,2.3-1.8,3.4-0.2c1.1,1.6-0.3,2.4-0.7,3.6l-0.8,1.2c-0.3,0.5-0.9,0.7-1.4,0.4
			c-0.1,0-0.2-0.1-0.2-0.2c-1.6-1.3-3.2-2.6-5.4-3s-2.1-1.2-2-2.7c0.1-1.1,0.7-2.2,1.6-2.8c0.5-0.4,1.3-0.4,1.7,0.1c0,0,0,0,0,0
			c0.5,0.5,0.5,1.2,0,1.7c0,0,0,0,0,0l-0.5,0.7C46.7,126.7,47.2,126.9,47.9,126.4z"/>
		<path class="st45" d="M119.7,84.4c0.6-0.5,1.1-1.3,2.1-0.8l2,1.3c1.2,0.7,1.9,2.2,1.6,3.6c-0.1,0.9-0.4,1.9-0.9,2.7
			c-0.4,0.4-0.8,0.8-1.3,1.1c-0.3-0.5-0.8-1-0.8-1.5s0.2-2.1,0.4-3.9l-1.8,1.5c-1.5,1-1.6,0.9-2.5-1.2c0.3-0.2,0.3-0.4,0.1-0.4
			c-0.3-0.1-0.5,0.1-0.6,0.4c0,0,0,0,0,0l0,0c-0.7,0.3-1.5,0.3-2.1-0.1l0,0c-0.2-0.4-0.5-0.7-0.9-1h-0.1c-0.7-0.8-0.6-2.1,0.2-2.8
			c0.5-0.5,1-0.9,1.5-1.2c1.5-0.6,1.9-0.3,2.4,1.7C119.1,84.3,119.3,84.5,119.7,84.4z"/>
		<path class="st46" d="M42.1,125.3c-0.3,0.4-0.5,0.9-0.9,1.1c-0.5,0.1-0.9,0.2-1.4,0.1c-5.2-0.1-5.8-1-3.5-5.5
			c1.5-2.7,2.9-5.3,4.5-7.9c0.3-0.5,0.8-0.8,1.4-0.8c1,0.3,0.9,1.3,0.6,2c-0.5,1.2-1.1,2.3-1.7,3.4c-0.7,1.5-1.5,2.9-2.2,4.3
			s-0.4,2.2,2,2.1c0.4,0.1,0.8,0.4,1,0.7C42,124.9,42,125.1,42.1,125.3z"/>
		<path class="st47" d="M98.3,115.8l-0.5-0.2c-0.6-0.5-1.2-1-1.7-1.6l-0.3,2.8c-0.6-0.2-1.1-0.6-1.6-0.7s-0.8,0.4-1.3,0.5
			c-1.4,0.4-2.8-0.2-3.6-1.4c-0.9-1.4,0.2-2.3,0.9-3.3c0.3-0.3,0.8-0.4,1.2-0.3c-0.4-0.3-1-0.1-1.3-0.6s2-1.8,3.3-2s1.6,0.7,2,1.6
			s0.4,1.1,0.7,1.1c1.9,0.2,1.6,1.5,1.6,2.8S98.1,115.3,98.3,115.8z"/>
		<path class="st48" d="M99.6,74.6l1.9-2.7c0.4-0.7,1.1-1.5,1.8-0.8s0.3,1.4,0,2.1c-0.5,1.1-1.1,2.2-1.7,3.3c-0.5,0.4-0.3,1-0.4,1.6
			c-0.2,0.5-0.4,1-0.7,1.5c-0.3,0.2-0.5,0.5-0.6,0.9c-0.9,1.7-0.9,1.8-2.1,1.1s-2.7-1.5-4-2.3c-1.4-2.7-0.5-4.5,2.2-5.6
			c1.1-0.1,2.1-0.3,2.8,0.8s0,1.2-1.4,2.3C98.3,76.3,99.1,75.5,99.6,74.6z"/>
		<path class="st49" d="M117.9,45.9c-0.3,1.4-0.5,2.7,1.3,3.4s0.9,1.5-0.1,1.7c-1.4,0.1-2.7,0.8-3.6,1.9c-0.4,0.6-0.4,1.2,0.3,1.5
			c0.7,0.3,1.5,0.6,2.3,0.8c0.3,0.2,0.6,0.6,0.7,1c0,0.3-0.5,0.8-0.8,0.9c-1.7,0.3-3.5,0.1-5.1-0.8l-0.7-1.1v-1.6
			c0.3-0.6,0.2-1.5,0.8-2.1l0,0c0.6-0.5,0.4-1.4,0.9-1.9h0.1c0.6-0.5,0.3-1.4,1-1.9l0,0c0.6-0.7,0.2-1.7,1-2.3
			C116.7,45.1,117.5,45.3,117.9,45.9z"/>
		<path class="st50" d="M74.6,110c-0.4,0.1-1,0.4-1.3,0.3s-2.2-2.1-3.7-2.6c-0.9-0.4-1.2-1.4-0.8-2.3c0-0.1,0.1-0.2,0.1-0.2
			c0.3-0.9,0.9-1.7,1.7-2.2c1.8-0.8,3.3-1.5,3.9-3.6c0-0.1,0.6-0.3,0.8-0.2c0.3,0.1,0.5,0.4,0.6,0.7c-0.1,1.4-0.3,2.9-0.4,4.3
			S76.7,108.3,74.6,110z"/>
		<path class="st45" d="M79.4,41.5c0.4-1.4,1-3.2,1.6-5s1.8-4.8,2.8-7.1c0.3-0.6,0.7-1.1,1.2-1.5h0.8c0.3,0.2,0.5,0.5,0.5,0.8
			c0,0.5-0.1,1-0.3,1.4c-1.3,4-2.6,8.1-4,12.2c-0.1,0.3-0.2,0.6-0.4,0.8c-0.3,0.3-0.8,0.7-1.2,0.6s-0.7-0.5-0.9-0.8
			C79.4,42.4,79.4,42,79.4,41.5z"/>
		<path class="st51" d="M39.2,60c-1.6,0.5-3.2,0.8-4.4-0.7s-0.9-3-0.4-4.5c0.7-2.3,2.5-4.2,4.8-4.9c1.1-0.5,2.4,0,2.9,1.1
			c0,0.1,0.1,0.2,0.1,0.3c0.1,0.6,0,1.2-0.3,1.7c-0.4,0.2-0.8,0.3-1.2,0.1c-0.7-0.6-1.7-0.5-2.3,0.1c-0.1,0.1-0.1,0.1-0.1,0.2
			c-0.6,0.8-1,1.6-1.4,2.5c-0.6,1.3-0.1,2,1.4,2.3l1.8,0.2C40.6,59.4,39.7,59.6,39.2,60z"/>
		<path class="st52" d="M89.9,74.1L89.9,74.1c-0.3-0.8-0.3-1.7,0.1-2.4l0,0c0.2-0.2,0.6-0.2,0.8,0c0,0,0,0,0.1,0.1l1.8,0.8
			c0.5-0.3,1.1-0.2,1.4,0.3c0,0,0,0,0,0c0.1,0.3,0.1,0.7,0,1l-0.4,0.9c-0.1,0.2-0.2,0.3-0.2,0.5c-0.1,0.7-0.2,1.3-0.1,2
			c-0.1,0.8-0.3,1.5-1.3,1.4v-0.4c-0.3-0.1-0.6-0.4-0.7-0.7l-1.1-0.9C90,76.9,89.6,77,89.2,77l-1,0.4c-3.4-0.7-4.8-1.9-5-4.4
			c-0.3-1.5,0.7-2.9,2.1-3.2c0.6-0.2,1.3,0,1.7,0.4c0.3,0.3,0.1,1.1,0,1.6c-0.1,0.3-0.3,0.5-0.6,0.7c-1.2,0.8-0.7,1.5,0,2.3
			c0.7,0.7,1.7,0.9,2.6,0.7C89.6,75.3,90,74.7,89.9,74.1z"/>
		<path class="st53" d="M32.3,93h-1.9c-0.3-0.1-0.9-0.5-0.9-0.9c0-0.6,0-1.2,0.2-1.8c0.6-2.9,1.1-5.7,1.8-8.4
			c0.2-0.6,0.6-1.1,1.1-1.4c0.5-0.2,1.4,0.8,1.3,1.6s-0.2,2.2-0.2,3.3c0.1,0.6,0.3,1.1,0.6,1.6c0.6,0.1,1.1,0.6,1.3,1.2
			c-0.2,1.3-1.5,1.9-1.7,3.1C33.7,92.1,33.1,92.8,32.3,93z"/>
		<path class="st50" d="M85.2,144.7c-0.9,0.6-1.6,0.8-2.1-0.5c-0.1-0.5-0.4-1-0.7-1.4c-1.8,0-1.5-1-1-2.1s1.5-2.6,3.2-1.7
			s2.7,1.4,3.9,2.2s0.6,1.4,0.8,2c0.2,0.3,0.3,0.6,0.3,1c-0.1,0.4-0.3,0.7-0.6,0.9l-0.8,0.5l0,0c-0.7,0.4-1.1,0-1.4-0.6
			S86,144,85.2,144.7z"/>
		<path class="st54" d="M35.7,88.1L34.3,87c2.5-0.9,3.5-0.6,4,1.2c0.2,1.1,0.4,2.2,0.4,3.3c0.2,1.6-0.8,3.2-2.4,3.6
			c-1.4,0.5-2.7-0.1-4-2.1l1.1-1.8c0.1-0.9,0.9-1.1,1.6-1.3c0.5-0.1,0.8-0.5,1-0.9C36,88.7,35.9,88.4,35.7,88.1z"/>
		<path class="st55" d="M58.4,103.4c1.4-1.3,1.4-3.4,0.1-4.8c0.4-0.8,1.1-0.8,1.4-0.2c0.2,0.7,0.3,1.5,0.3,2.2
			c0.1,0.6,0.1,1.5,0.5,1.7s1.3-0.4,1.7-1.2s2.6-1.5,4.1-1.3c0.5,0.1,0.9,0.4,1,0.9c0.1,0.2-0.3,0.7-0.6,1s-1.6,0.9-2.3,1.5
			s-1.1,1.4-1.7,2.1S59.3,105.4,58.4,103.4z"/>
		<path class="st56" d="M93.7,146.4c0.2-0.5,0.4-1.4,0.8-1.5c2.1-0.3,4.2-0.8,6,1.2s1.5,1.1,0.5,3c-0.3,0.5-0.3,1.2,0.1,1.6
			c0.2,0.4,0.2,0.8,0.1,1.2c-0.5,0.3-1.3,0.7-1.7,0.4c-0.8-0.4-1.4-1.1-1.8-1.9c-0.3-1.2,0-2.6,0.9-3.5c-0.5-0.9-1-1.1-1.7-0.2h-0.1
			C95.8,146.7,94.7,147.2,93.7,146.4z"/>
		<path class="st57" d="M83.6,112.8c-0.4-0.6-0.9-1.2-0.8-1.7c0.6-2.3,1.3-4.5,2.1-6.8c0.2-0.6,0.4-1.1,0.8-1.6
			c0.3-0.3,0.8-0.5,1.2-0.4c0.4,0.2,0.6,0.7,0.6,1.1c-0.3,1.4-0.7,2.7-1.1,4.1s-0.9,3-1.5,4.4S84.2,112.4,83.6,112.8z"/>
		<path class="st58" d="M39.2,60l0.9-1.6l2.7-1.6c1.1-0.6,2.3-1,3.2,0.4s1.3,2.9-0.4,4.1s-3.2,1.4-4.4-0.7S39.9,60.2,39.2,60z"/>
		<path class="st59" d="M47.7,58.1l0.8-0.3c4.2,0.7,5.3,2.6,3.8,6.5c-0.2,0.4-0.6,0.7-1.1,0.7c-0.2,0-0.6-0.5-0.7-0.9s0-0.9,0-1.4
			l-0.6-1.6l-1.9,1c-1,0.6-1.3-0.1-1.6-0.8C46.2,60.1,46.7,58.8,47.7,58.1z"/>
		<path class="st60" d="M41.3,72.4c-0.1,1.6-0.2,3.3-0.5,4.9c0,0.4-0.7,0.9-1,0.9c-0.6-0.2-1-0.6-1.3-1.1c-0.1-0.6-0.1-1.2,0-1.8
			c0.3-2.3,0.9-4.6,0-7c-0.1-0.2,0.6-1.1,1-1.2s1.3,0.5,1.3,0.9S41.2,71.4,41.3,72.4z"/>
		<path class="st61" d="M108.2,79.3c0.2-0.2,0.4-0.5,0.7-0.6s2.2-0.1,2.3,1.2s0.1,2.8,0.2,4.2s-0.8,0.6-1,1.1c-2.6,1.4-3,1.3-4-1.4
			c-0.2-0.4-0.1-0.8,0.1-1.1C107.4,81.7,107.4,80.3,108.2,79.3z"/>
		<path class="st62" d="M57.6,60.1c-0.7,1.8-1.2,3.6-1.9,5.3s-0.8,0.5-1.1,0.4c-0.4-0.2-0.6-0.6-0.7-1c0.7-2.7,1.5-5.4,2.4-8.1
			c0.3-0.5,0.7-0.9,1.3-1c1,0.2,0.8,1.2,0.8,1.9v0.5C59.1,59.2,58.1,59.6,57.6,60.1z"/>
		<path class="st63" d="M79.1,62.4c0.4,0.2,0.7,0.6,0.9,1c0.2,0.4,0,0.9-0.1,1.4c-0.9,2.4-1.7,4.8-2.7,7.1c-0.1,0.3-0.8,0.6-1.1,0.6
			s-0.6-0.7-0.7-1.1c-0.1-0.3,0-0.6,0.1-0.9c0.8-2.4,1.6-4.8,2.5-7.2C78.3,63,78.7,62.6,79.1,62.4z"/>
		<path class="st64" d="M69.8,82.3c1.7,1.3,1.9,1.7,1,2.8l-0.7,0.6C68.9,87,68.9,87,70,88.6c0.3,0.4,0.5,0.8,0.6,1.2
			c-0.6,0.1-1.2,0.5-1.7,0.3c-0.7-0.3-1.4-0.7-1.9-1.2C65.7,85.8,65.6,83.1,69.8,82.3z"/>
		<path class="st65" d="M113.2,118.6c0.3,0.5,0.8,1,0.7,1.5c-0.1,0.8-0.3,1.5-0.7,2.2c0.6,0.2,1.2,0.4,1.7,0.8
			c0.4,0.2,0.6,0.6,0.9,0.9c-0.5,0.3-1,0.6-1.5,0.8c-1.4,0-2.8-0.6-3.7-1.7c-0.8-1-0.9-2.3-0.2-3.4
			C110.9,118.2,111.9,118,113.2,118.6z"/>
		<path class="st60" d="M81.4,140.7l1,2.1c-1.2,1.4-2.6-0.6-3.9,0s-1.3-1.1-2-1.7l-0.8-0.4c-0.1-0.8,0.3-1.7,1.1-2
			c0.5-0.4,1.1-0.7,1.7-0.9c0.6-0.1,1.1,0,1.6,0.3c0.3,0.1,0.2,0.8,0.1,1.3s-0.4,0.5-0.4,0.7c0,0.4,0.1,0.8,0.3,1.1L81.4,140.7z"/>
		<path class="st66" d="M113.2,118.6l-2.8,1.1c-0.9-1.2-1.4-1.4-2-0.7s-1.2,2.3-2.8,2.4c-1.2-1.7-1.2-3.3,0.9-4.5s3.7-1.7,5.1,0.8
			C111.9,118.2,112.7,118.3,113.2,118.6z"/>
		<path class="st67" d="M92.8,94.5c-0.5,1.7-0.9,3.4-1.4,5.1s-0.8,0.6-1.1,0.6c-0.4-0.2-0.8-0.5-1-0.9c-0.2-2.2,0.3-4.5,1.5-6.4
			c0.3-0.4,1.4-0.2,1.6,0.3C92.6,93.6,92.7,94.1,92.8,94.5z"/>
		<path class="st68" d="M65.2,87.1c-1.9-0.3-1.9-0.3-2-2.9h-0.1c1-1.6,1.7-3.3,3.7-3.9s1.8,0,2.1,1.8C66.5,83,66.9,85.9,65.2,87.1z"
			/>
		<path class="st69" d="M64,69c-1.2-0.8-2-1.9-1.5-3.2c0.4-1,1.1-1.9,2-2.5c0.7-0.6,1.8-0.6,2.4,0.1c0.1,0.1,0.1,0.2,0.2,0.2
			c0.7,1,0.2,1.8-0.8,2.3l-1,0.8c-0.1,0.3,0,0.7,0.1,1c-0.1,0.1-0.1,0.3-0.1,0.5l-0.8,0.7L64,69z"/>
		<path class="st70" d="M61.3,77.4c2.1-2,2.2-2,4.1-0.7s1.1,1.4-0.1,1.8s-1.7,1.7-2.2,2.7c-0.3,0.4-0.8,0.6-1.3,0.6
			c-0.5-0.1-0.9-0.4-1.1-0.9C60.2,79.7,60.5,78.4,61.3,77.4z"/>
		<path class="st0" d="M59.4,27.6l-3,6.6c-1,0.1-1.5-0.2-1.1-1.3c0.5-2.7,1.5-5.2,3-7.5C58.7,26.1,59,26.8,59.4,27.6z"/>
		<path class="st71" d="M65.2,135.9l-1,0.7c-1.3-0.2-2.2-1.4-2.1-2.7c0.1-0.8,0.4-1.5,0.9-2.1c0.5-0.3,1-0.5,1.6-0.5
			c1,0,1.2,0.8,1.3,1.7S65.8,135,65.2,135.9z"/>
		<path class="st72" d="M102.5,77.4c1.5,0.1,1.2,1,0.9,1.9s-0.2,1.4,0.9,1h0.1c0.3-0.2,0.6-0.4,0.9-0.7v-0.3c0.3-0.1,0.7-0.1,1,0
			h0.1c0.6,0.7,0.8,1.7,0.5,2.6c-0.5,0.7-1.1,1.4-1.6,2.2h-0.1c-0.2,0.3-0.5,0.3-0.9,0.1l0,0c-0.4-1.4-1.8-1.3-2.7-2h-0.1
			c-0.6-0.5-0.5-1.2-0.5-1.9S101.4,78.1,102.5,77.4z"/>
		<path class="st73" d="M75.7,106.2c0.4-0.3,0.8-0.5,1.2-0.7c1.2-0.5,1.9-0.2,1.9,1c0,0.9-0.1,1.9-0.2,2.8c-0.1,1.6-1.1,1.1-2,0.7
			c-1.2-0.6-1.8-2.1-1.2-3.3C75.5,106.5,75.6,106.3,75.7,106.2z"/>
		<path class="st50" d="M89.2,146.5c-0.3-0.2-0.3-0.4-0.2-0.7c-0.3-0.3-0.2-0.8,0.1-1.1l0,0l0.9-1.1l0.7-0.5c0.6,0,1.3,0,1.6,0.3
			s0.1,1.1-0.1,1.5c-0.3,0.6-0.6,1.1-1.1,1.5c0.2,0.5,0.4,0.9,1,1h0.1c0.3,0.3,0.2,0.8-0.1,1.1c0,0-0.1,0.1-0.1,0.1
			c-0.8,0.4-1.7,0.1-2.1-0.7C89.9,147.2,89.5,146.9,89.2,146.5z"/>
		<path class="st0" d="M99.6,74.6c-0.6,1.3-1.1,2.7-1.8,4.1s-1.1,0.3-1.2,0.2s-0.7-1.3-0.5-1.5c0.8-1,1.7-2,2.7-2.9
			C99.1,74.4,99.4,74.4,99.6,74.6z"/>
		<path class="st74" d="M89,104.9l1.2-1.8c0.1,0,1.1,0.5,1,0.6c-0.3,1.2-0.7,2.4-1.3,3.5c-0.3,0.7-0.9,1.4-1.7,0.6s0-1,0.1-1.6
			C88.6,105.8,88.9,105.4,89,104.9z"/>
		<path class="st0" d="M65.2,87.1c0.3-1,0.6-2,1-3s1.2-2.2,2.7-1.9h0.9c-2.5,1.2-3.7,4.1-2.8,6.7L65.2,87.1z"/>
		<path class="st75" d="M65.4,67.7c0.8,0.3,1.7,0.6,2.5,0.9c0.3,0.2,0.6,0.8,0.5,1c-0.1,0.4-0.5,0.8-0.9,0.9
			c-1.4,0.4-2.8-0.3-3.5-1.5c0-0.2,0.1-0.4,0.2-0.5c0.3-0.1,0.6-0.3,0.7-0.6L65.4,67.7z"/>
		<path class="st76" d="M57.6,60.1c0.2-0.7,0.5-1.4,0.8-2c1.5,0.3,3.1,0.4,3,2.6c-0.1,0.5,1,0.9,1.5,1.4c-0.7,0.7-1.9,0.7-2.5,0
			c0,0,0,0-0.1-0.1c0.3-0.9,0-1.4-0.9-1.6L57.6,60.1z"/>
		<path class="st77" d="M92.1,78.6c1.2-0.4,1.2-1.2,0.7-2.2c-0.3-0.5-0.4-1.2-0.1-1.8l0.3-0.3c0.3-0.2,0.5-0.4,0.7-0.7l0.2-0.2
			c0.2-0.3,0.4-0.3,0.7,0.1l1.4,0.2c-1.1,1.8-2.9,3.2-2.2,5.6L92.1,78.6z"/>
		<path class="st78" d="M117.9,45.9l-1.8-0.2c-0.4-1.2,0.6-1.3,1.3-1.6c2.8-0.2,5.7-1,8.3,0.7c-0.1,0.6-0.7,1-1.3,1L117.9,45.9z"/>
		<path class="st79" d="M125.7,44.8h-9.3c0-0.3,0.2-0.6,0.4-0.9h0.2c2.8-0.6,5.7-0.7,8.5-0.1c0.2,0.2,0.4,0.5,0.5,0.8
			C126,44.6,125.8,44.7,125.7,44.8z"/>
		<path class="st80" d="M24.8,120.1c1.3,0,2.5,0.6,3.2,1.6c0.1,0.3-0.2,1.1-0.4,1.1c-1.4,0.3-2.8-0.4-3.5-1.7
			C24,120.9,24.6,120.4,24.8,120.1z"/>
		<path class="st81" d="M125.5,43.7H117C119.6,42.2,122.9,42.2,125.5,43.7z"/>
		<path class="st82" d="M93.7,146.4c1-0.3,2.1-0.6,3.1,0.3l-2,1.9c-0.3,0.5-1,0.7-1.5,0.3c-0.2-0.1-0.3-0.2-0.4-0.4
			c-0.4-0.3-0.4-0.9-0.1-1.3c0,0,0,0,0,0L93.7,146.4z"/>
		<path class="st0" d="M106.1,82.2c0.2-1,0.3-1.9,0.4-2.9h1.7l0.6,3.5l-2.4,1.1C106,83.4,105.9,82.8,106.1,82.2z"/>
		<path class="st83" d="M61.3,77.4v3.9c0.2,0.1,0.3,0.4,0.3,0.6c0,0.1,0,0.3-0.1,0.4c-0.3,0.2-0.7,0.3-1.1,0.1l-1-1.1v-2.9
			L61.3,77.4z"/>
		<path class="st84" d="M44,71.7c-0.1-1,0-1.9,1.1-2.3c0.4-0.1,0.8,0.1,1.1,0.4c0.7,0.9,0.1,1.7-0.4,2.5s-0.6,0.2-0.8,0.3L44,71.7z"
			/>
		<path class="st85" d="M113.2,86.1c-0.5,0.3-1,1-1.4,0.9s-0.7-1.1-0.7-1.9s0.8-0.7,0.8-1.3c0-0.2,0.1-0.5,0.3-0.6
			c0.3-0.3,0.6-0.6,0.9-0.8l1.1,0.5C114.8,84.3,113.8,85.1,113.2,86.1z"/>
		<path class="st81" d="M114.1,42.9c0.6-2.1,0.6-2.1,2.2-2s2.1,0.7,2.5-0.9c0.6,1.3,0.5,1.8-0.4,1.9S115.4,42,114.1,42.9z"/>
		<path class="st86" d="M106.5,116.9c-0.7,1.5-1.9,2.8-0.9,4.5l-2.3-1.9l1.9-2.8L106.5,116.9z"/>
		<path class="st87" d="M75.7,106.2c-1,1.6,0.6,2.5,0.9,3.8h-2c0.4-2-0.5-4.1,0.9-5.8C75.6,104.8,75.6,105.5,75.7,106.2z"/>
		<path class="st0" d="M55.3,32.9l1.1,1.3c-0.3,1.3-0.5,2.5-0.8,3.8h-1.9C54.2,36.4,54.8,34.7,55.3,32.9z"/>
		<path class="st88" d="M60.4,64.2c-0.1,0.6-0.2,1.2-0.4,1.8c-0.3,0.4-0.7,0.6-1.1,0.6c-0.3,0-0.7-0.5-0.8-0.8s-0.1-2.2,1-2.9
			C59.8,62.9,60.4,63.5,60.4,64.2z"/>
		<path class="st89" d="M94.2,140.6c0,0.4-0.1,0.8-0.3,1.1c0,0-0.4,0.1-0.4,0c-0.5-0.5-0.9-1.1-1.2-1.7c-0.3-0.7,0.1-1.6,0.8-1.9
			c0.2-0.1,0.7,0,0.7,0.1C94,139,94.1,139.8,94.2,140.6z"/>
		<path class="st90" d="M65.2,135.9c-0.6-1.1-0.8-2.2,0.7-2.9l1.1,1.1C67.1,135.4,66.3,135.8,65.2,135.9z"/>
		<path class="st7" d="M35.4,146.4c-1.8,0.5-3.8-0.3-4.7-2C32.5,144.5,34.1,145.2,35.4,146.4z"/>
		<path class="st0" d="M102.5,77.4l-1.1,2.7c-0.1,0.7-0.4,0.8-0.9,0.2l-0.3,0.2h-0.3l-0.2-1c0.3-0.3,0.5-0.7,0.6-1.1
			c0.5-0.6,0.9-1.2,1.3-1.9L102.5,77.4z"/>
		<path class="st90" d="M103.4,112.9l-1.2,4.4h-0.4c-0.1-1.1-0.2-2.2-0.2-3.3L103.4,112.9z"/>
		<path class="st91" d="M76.4,88.6L73.5,89c-0.4-0.1-0.7-0.4-0.8-0.8c-0.2-0.8,0.4-1.2,1.1-1C74.7,87.6,75.6,88.1,76.4,88.6z"/>
		<path class="st0" d="M113.2,86.1c0.3-1.1,0.7-2.1,1-3.2l0.9,0.5c-0.1,0.9-0.1,1.8-0.2,2.8L113.2,86.1z"/>
		<path class="st81" d="M116.8,43.8l-0.4,0.9c-0.2,0.3-0.4,0.4-0.5,0.7l0.2,0.3c-0.3,0.7-0.7,1.3-1,2s-0.1-1.2-0.1-1.8
			S115.5,43.9,116.8,43.8z"/>
		<path class="st92" d="M83.7,65.9c-0.4,0.3-0.8,0.8-1.3,0.9s-0.7-0.5-0.7-0.8s0.9-1.8,1.3-1.5C83.3,64.9,83.5,65.4,83.7,65.9z"/>
		<path class="st93" d="M60.4,64.2l-1.3-1.3l1.2-0.9h2.6c0.6,0.6,0.3,0.9-0.3,1S60.9,63.1,60.4,64.2L60.4,64.2z"/>
		<path class="st0" d="M47.7,58.1L46.6,61c-0.1,0.6-0.4,0.7-0.9,0.3h-0.1c0.1-1.4,0.3-2.7,0.4-4.1L47.7,58.1z"/>
		<path class="st94" d="M114.9,99.5c-2.8-0.3-2.9-0.4-2.2-2.8c0.1,0.9,0.7,1.7,1.6,1.9C114.5,98.6,114.7,99.2,114.9,99.5z"/>
		<path class="st95" d="M44,118.9c0.3,0.5,0.7,0.9,0.7,1.2c-0.2,0.3-0.5,0.6-0.9,0.6c-0.2,0-0.6-0.5-0.6-0.8S43.6,119.3,44,118.9z"
			/>
		<path class="st68" d="M60.4,82.4l0.8-0.3c0.7,0.3,0.9,1,1.1,1.7c0,0.2,0,0.3,0.1,0.5c-0.9,1.2-1.1,1.2-2.2-0.1
			c-0.2-0.3-0.2-0.7,0-1C60.4,83,60.5,82.7,60.4,82.4z"/>
		<path class="st96" d="M101.7,82.2c2.3,0,2.3,0.1,2.7,2L101.7,82.2z"/>
		<path class="st97" d="M41.1,123.6c0.1-0.7,0.5-1.2,1.2-1.1s0.9,0.7,0.7,1.3c-0.2,0.5-0.5,1-0.9,1.5l-0.4-0.2
			C41.7,124.5,41.5,124,41.1,123.6z"/>
		<path class="st98" d="M44.8,89.9l-1.7,1.9c-0.1-0.7,0-1.5,0.1-2.2c0.2-0.3,0.6-0.5,1-0.5C44.4,89.1,44.6,89.6,44.8,89.9z"/>
		<path class="st99" d="M87,144.5l1.2,1.2c-0.4,0.3-1,0.8-1.4,0.8s-0.6-1.2-0.7-1.9S86.6,144.3,87,144.5z"/>
		<path class="st0" d="M87,144.5h-1.8c0.2-0.4,0.3-0.9,0.6-1.1S87.1,143.6,87,144.5z"/>
		<path class="st100" d="M80.8,133.9c-0.2,0.2-0.3,0.6-0.6,0.6s-1.4,0.3-1.5,0.1s0-1.2,0.7-1.4h0.4c0.3,0,0.6,0.1,0.8,0.3
			L80.8,133.9z"/>
		<path class="st101" d="M79.4,133.2c0.2-0.2,0.4-0.6,0.6-0.7s1.1-0.3,1.3-0.1s0.2,1.1-0.5,1.5l-0.5-0.3h-0.5
			C79.7,133.3,79.6,133.2,79.4,133.2z"/>
		<path class="st102" d="M66.2,128.2c-0.6,0.8-1.3,1.3-2.2,0.8l-0.2-0.4l0.3-0.3C64.7,127.8,65.6,127.7,66.2,128.2z"/>
		<path class="st103" d="M66.2,128.2h-2.1l0.9-1c0.5-0.5,1.4-0.5,1.9,0L66.2,128.2z"/>
		<path class="st104" d="M47.9,126.4c-0.4,0.8-0.9,1-1.6,0.4s0.2-0.7,0.3-1L47.9,126.4z"/>
		<path class="st0" d="M90.1,111l1.9,0.2c0.2,0,0.3,0.3,0.5,0.4s-0.2,0.3-0.4,0.3h-1.9C90.1,111.6,90,111.3,90.1,111z"/>
		<path class="st94" d="M110.1,97.4c0.1,1.1,0.3,2.3-0.8,3.1C108.9,99.4,109.3,98.2,110.1,97.4z"/>
		<path class="st94" d="M111.1,94.6c0,1.1,0.3,2.3-1.1,2.9L111.1,94.6z"/>
		<path class="st94" d="M113.9,91.9l-2,0.7c0.2-0.4,0.2-0.9,0.5-1.2S113.7,90.7,113.9,91.9z"/>
		<path class="st105" d="M67.1,27.5v-2.9C68.3,25.6,68.2,26.5,67.1,27.5z"/>
		<path class="st0" d="M52.5,28.1c0.2-0.3,0.5-0.6,0.8-0.9c0.2-0.2,0.7-0.1,1-0.1c0,0.3,0,0.5-0.1,0.8c-0.1,0.3-0.4,0.4-0.6,0.6
			L52.5,28.1z"/>
		<path class="st105" d="M69,28.5c0.2,1.1-0.2,2.2-1,3C67.8,30.3,67.8,29.2,69,28.5z"/>
		<path class="st105" d="M65.1,35.2c-0.2-1.1,0.1-2.2,0.9-3c0,1,0,2,0.1,3H65.1z"/>
		<path class="st105" d="M64.2,38.1l0.9-2.9C65.5,36.3,65.1,37.4,64.2,38.1z"/>
		<path class="st105" d="M66.9,35.2c-0.2,1-0.5,1.9-0.8,2.9v-2.9H66.9z"/>
		<path class="st106" d="M91,87.7c0.5,0.5,0.8,0.7,0.9,1s-0.1,0.5-0.2,0.8s-0.9-0.2-1.1-0.5S90.8,88.4,91,87.7z"/>
		<path class="st105" d="M66,39l0.3,2.8C64.8,40.6,64.8,40.6,66,39z"/>
		<path class="st107" d="M45.7,61.3l0.9-0.3l1.4,1.1c-0.5,0.3-0.9,0.9-1.3,0.8S45.8,62,45.7,61.3z"/>
		<path class="st108" d="M94.6,73.5h-0.7l-1.2-0.9C94.2,71.5,94.3,71.5,94.6,73.5z"/>
		<path class="st109" d="M54.7,80.4c0.1-0.7,0.8-1.2,1.5-1c0,0,0,0,0.1,0c0.2,0.1,0.2,0.6,0.2,0.9L54.7,80.4z"/>
		<path class="st96" d="M104.3,80.3c-0.2,0.6-0.7,1-1.3,0.4s-0.2-1,0.4-1.4L104.3,80.3z"/>
		<path class="st68" d="M62.3,81.3h0.8v3h-0.3l-0.4,0.2L62,84C61.8,82.9,61.5,82,62.3,81.3z"/>
		<path class="st108" d="M90,71.6V74C89.4,73.2,88.5,72.4,90,71.6z"/>
		<path class="st88" d="M60.4,64.2c0.3-1.2,1.2-1.3,2.2-1.1L60.4,64.2z"/>
		<path class="st81" d="M109.3,54.4l0.9-2C110.4,53.2,110,54,109.3,54.4z"/>
		<path class="st81" d="M113.1,51.5c-0.3,0.7-0.6,1.4-0.8,2.1C112,52.8,112.3,51.9,113.1,51.5z"/>
		<path class="st81" d="M110.2,52.4c0.2-0.7,0.5-1.5,0.8-2.2C111.3,51,111,52,110.2,52.4z"/>
		<path class="st81" d="M114,49.6l-0.9,1.9C112.9,50.7,113.3,49.9,114,49.6z"/>
		<path class="st81" d="M115.1,47.7c-0.3,0.6-0.7,1.2-1,1.9C113.9,48.8,114.4,48,115.1,47.7z"/>
		<path class="st81" d="M111.3,49.6c0.2-0.7,0.5-1.3,0.8-1.9C111.8,48.3,111.5,48.9,111.3,49.6z"/>
		<path class="st81" d="M112.1,47.6l0.9-1.9C113.3,46.5,112.9,47.3,112.1,47.6z"/>
		<path class="st81" d="M113,45.7l0.9-2.3C114.1,44.4,114,45.2,113,45.7z"/>
		<path class="st94" d="M109.1,101.1c-0.3,1.2-1.3,1.2-2.3,1.2L109.1,101.1z"/>
		<path class="st105" d="M67.8,32.3c-0.2,0.7-0.4,1.4-0.7,2.1C66.8,33.6,67.1,32.7,67.8,32.3z"/>
		<path class="st105" d="M66.2,31.3l0.6-2.2C67.2,29.9,66.9,30.8,66.2,31.3z"/>
		<path class="st94" d="M111.9,92.6c0.3,0.8,0,1.7-0.8,2.1L111.9,92.6z"/>
		<path class="st110" d="M79.6,90.8l0.7,0.9c0.1,0.1-0.2,0.4-0.3,0.7l-0.5-0.7C79.5,91.4,79.5,91.1,79.6,90.8z"/>
		<path class="st111" d="M115.9,87.1h2.1c-0.3,0.6-1.1,0.8-1.6,0.5C116.2,87.5,116,87.3,115.9,87.1z"/>
		<path class="st111" d="M118,87.2c0.1-0.1,0.1-0.4,0.2-0.4h0.9l-0.6,0.5l-0.2,0.2L118,87.2z"/>
		<path class="st82" d="M96.9,146.7c1-1.1,1-1.1,1.7,0.2L96.9,146.7z"/>
		<path class="st7" d="M30.6,144.4c-0.6,0.4-1.4,0.1-1.8-0.5c-0.1-0.1-0.1-0.2-0.1-0.3C29.5,143.4,30.3,143.5,30.6,144.4z"/>
		<path class="st7" d="M28.6,143.5c-0.7,0.3-1.5-0.1-1.8-0.8C27.6,142.5,28.3,142.6,28.6,143.5z"/>
		<path class="st112" d="M66.9,127.3H65c0.3-0.2,0.6-0.6,0.9-0.7S67,126.4,66.9,127.3z"/>
		<path class="st113" d="M41.1,123.6c0.8,0.3,0.8,0.8,0.6,1.5l-0.8-1C40.8,123.9,40.9,123.7,41.1,123.6z"/>
		<path class="st114" d="M111.9,83.8l-0.8,1.3h-0.8l1.1-1.1C111.5,83.8,111.7,83.7,111.9,83.8z"/>
		<path class="st96" d="M106.1,82.2l0.3,1.7l0,0l-1,0.3C105.6,83.4,105.9,82.8,106.1,82.2z"/>
		<path class="st96" d="M100.5,80.3l0.9-0.2c0.1,0.7,0.1,1.3,0.2,2L100.5,80.3z"/>
		<path class="st115" d="M116,79.3c-0.3,0.4-0.4,0.9-0.7,1s-1.1-0.2-1.1-1C114.7,78.8,115.5,78.8,116,79.3z"/>
		<path class="st116" d="M116,79.3h-1.8c0-0.5,0.4-0.9,0.9-0.9c0.1,0,0.1,0,0.2,0C115.6,78.5,115.7,79,116,79.3z"/>
		<path class="st111" d="M119.7,84.4c-0.6,0.4-0.7,0-0.7-0.5L119.7,84.4z"/>
		<path class="st96" d="M104.4,84.2h0.9c-0.1,0.3-0.2,0.5-0.4,0.7L104.4,84.2z"/>
		<path class="st83" d="M60.2,83.2v1c-0.1-0.3-0.3-0.5-0.3-0.8L60.2,83.2z"/>
		<path class="st114" d="M113.1,82.4l-0.9,0.8L113.1,82.4z"/>
		<path class="st109" d="M56.3,81.3l-0.7,1L56.3,81.3z"/>
		<path class="st109" d="M53.9,81.3l0.7-0.8L53.9,81.3z"/>
		<path class="st96" d="M105.3,79.5l-0.9,0.7L105.3,79.5z"/>
		<path class="st117" d="M106.4,79.2h-1C105.8,78.4,106.1,78.5,106.4,79.2z"/>
		<path class="st108" d="M91.3,77.5l0.7,0.7L91.3,77.5z"/>
		<path class="st108" d="M89,76.5h1.2l-1.1,0.7l-0.3-0.4L89,76.5z"/>
		<path class="st118" d="M89,76.5c0,0.3,0,0.5,0.1,0.8h-1L89,76.5z"/>
		<path class="st108" d="M89.9,74.1c-0.4,0.4-0.7,0.8-1,1.3C89.2,74.9,89.5,74.5,89.9,74.1z"/>
		<path class="st119" d="M44,71.7l1,0.9C44,73,43.8,72.5,44,71.7z"/>
		<path class="st108" d="M90.9,71.7H90C90.5,70.9,90.5,70.9,90.9,71.7z"/>
		<path class="st81" d="M112.2,55.2c0.3,0.3,0.5,0.7,0.7,1.1C112.7,55.9,112.5,55.5,112.2,55.2z"/>
		<path class="st81" d="M108.3,55.3l0.9-0.9L108.3,55.3z"/>
		<path class="st120" d="M92.8,147.2c0,0.4,0,0.9,0.1,1.3H92c0.1-0.4,0.1-0.8,0.2-1.2C92.4,147.1,92.6,147.1,92.8,147.2z"/>
		<path class="st120" d="M92.1,147.3c-0.3-0.4-0.6-0.7-1-1L92.1,147.3z"/>
		<path class="st120" d="M89.2,146.5l0.7,1.3L89.2,146.5z"/>
		<path class="st86" d="M105.6,115.9l0.8-0.9L105.6,115.9z"/>
		<path class="st120" d="M89.1,144.7c-0.1,0.4-0.1,0.7-0.1,1.1l-0.8-0.2L89.1,144.7z"/>
		<path class="st120" d="M90,143.5l-0.9,1.1c0.1-0.5,0.1-0.9,0.2-1.4C89.6,143.2,89.8,143.3,90,143.5z"/>
		<path class="st57" d="M89,104.9c-0.3,0.4-0.5,0.8-0.7,1.3C88.5,105.7,88.7,105.3,89,104.9z"/>
		<path class="st94" d="M108.5,103.4l0.7,0.9L108.5,103.4z"/>
		<path class="st94" d="M111.3,101.9l0.6-1.4L111.3,101.9z"/>
		<path class="st94" d="M113.2,94.9c0.1-0.4,0.3-0.7,0.4-1.1S113.3,94.5,113.2,94.9z"/>
		<path class="st98" d="M46.2,92.7l-1.2-1L46.2,92.7z"/>
		<path class="st111" d="M115,86.1l0.9,1C115.2,87.1,114.9,86.7,115,86.1z"/>
		<path class="st121" d="M130.4,131.2c-1.3,0-2.7-0.1-2.9,1.7s-0.2,1.7-1.2,1.7s-1.1-0.5-1.7-0.7h-0.5c-1.3,2.6-0.3,6.1-3.3,7.9
			c-0.4-0.5-0.6-1.2-0.5-1.9c-0.1-0.7,0.1-1.4,0.4-2h-0.1c1.2-0.9,0.4-2.3,1.1-3.2l0.4-1.8l0.5-0.9c0.2-1,0.5-2,0.8-3
			c2.4-3,2.6-6.6,2.5-10.3c0.2-0.9,0.5-1.9,0.7-2.9c0.4,0.8,0.7,1.7,0.9,2.6c0.1,1.7,0,3.5,0,5.4l3.8-1.2c-1.5,3-0.3,5.5,1.7,8.3
			L130.4,131.2z"/>
		<path class="st24" d="M138.1,87c-0.4,0.9-0.8,1.7-1.1,2.6c-0.4,0.6-0.6,1.4-0.7,2.1c0,0.9,0.7,2.1-0.5,2.5s-1.8-0.3-2.7-0.4
			s-1.7-1.1-1.9-2.3l1.2-8.3h1.9c2.1,0.1,2.1,0.1,2.8,2.2C137.3,86,137.7,86.5,138.1,87z"/>
		<path class="st122" d="M125.9,118.7c1.6,3.8,0.2,7.2-1.4,10.6l-1.1-0.3C124.2,125.6,125.1,122.2,125.9,118.7z"/>
		<path class="st123" d="M121.7,134.7c0,1.2,0.3,2.4-1.1,3.2C121,136.8,121.3,135.7,121.7,134.7z"/>
		<path class="st124" d="M117.1,147.4c0.2,0.2,0.5,0.4,0.5,0.7s-0.1,0.5-0.1,0.7l-0.8-0.4L117.1,147.4z"/>
		<path class="st125" d="M120.8,139.8v1.9l-1.1-0.9c0.1-0.3,0.1-0.6,0.2-1S120.5,139.4,120.8,139.8z"/>
		<path class="st123" d="M120.8,139.8h-0.9c0.3-0.6,0.5-1.3,0.8-2S120.8,139.1,120.8,139.8z"/>
		<path class="st7" d="M31.5,147.3l-1.2-0.6L31.5,147.3z"/>
		<path class="st7" d="M29.5,146.4l-1.2-0.6L29.5,146.4z"/>
		<path class="st26" d="M122.6,132l-0.5,0.9L122.6,132z"/>
		<path class="st12" d="M137.1,100.5c0.3-0.4,0.6-0.7,1-1C137.7,99.8,137.4,100.1,137.1,100.5z"/>
		<path class="st126" d="M31.8,112c-0.2-0.3-0.7-0.7-1-1.2c-0.4-0.7-0.3-1.6,0.4-2.1c0.9-0.7,2.2-0.7,3.1,0.1
			c0.3,0.2,0.5,0.5,0.5,0.8C34.7,110.5,33.1,111.9,31.8,112z"/>
		<path class="st0" d="M64.1,26c0,2.5-0.6,5-1.7,7.2c-0.5,1.4-1.5,1.3-2.7,0.6C60.5,31.1,61.9,28.9,64.1,26z"/>
		<path class="st127" d="M45.7,95v0.3H45l0.3-0.3C45.4,94.8,45.5,95,45.7,95z"/>
		<path class="st128" d="M69.7,135.9c0,0.8-0.4,1-1.1,0.8c0-0.2,0.1-0.5,0.2-0.7C69,135.7,69.4,135.7,69.7,135.9
			C69.7,135.9,69.7,135.9,69.7,135.9z"/>
		<path class="st129" d="M69.7,135.9h-0.9c0.1-0.3,0.3-0.5,0.5-0.7L69.7,135.9z"/>
		<path class="st130" d="M85.6,93.2c0.6,0.6,1.1,1,1,1.1c-0.3,0.4-0.7,0.8-1.1,1.1c0,0.1-0.6-0.3-0.5-0.5
			C85.2,94.3,85.4,93.8,85.6,93.2z"/>
		<polygon class="st131" points="91.4,114.4 91.6,114.3 91.6,114.5 		"/>
		<path class="st96" d="M100.3,78.4l-0.6,1.1L100.3,78.4z"/>
		<path class="st132" d="M72,106.2l-1-0.4l1.2-1.2c0.1,0.2,0.5,0.5,0.4,0.6C72.5,105.6,72.3,105.9,72,106.2z"/>
		<path class="st108" d="M92.7,74.6v1.8C92,75.8,91.8,75.2,92.7,74.6z"/>
		<path class="st108" d="M93.7,73.6L93,74.3L93.7,73.6z"/>
		<path class="st0" d="M35.7,88.1L35.7,88.1c1.7,0.6,1,1.7,0.7,2.7l-3,0.4c-1.2-1.7-1-2.2,0.7-2.5L35.7,88.1z"/>
		<path class="st53" d="M36.4,90.8l-0.6-2.7C37.6,89.1,37.6,89.1,36.4,90.8z"/>
		<path class="st133" d="M35.3,93.5L35,93.2l0.3-0.2l0.4,0.3L35.3,93.5z"/>
		<polygon class="st0" points="43.4,59.6 43.7,59.5 43.6,59.8 		"/>
		<path class="st134" d="M64.9,67.9l-0.7,0.6C64.3,68.2,64.6,68,64.9,67.9z"/>
		<path class="st31" d="M62.3,81.3L62,83.8c-0.3-0.5-0.6-1.1-0.8-1.7c-0.1-0.3,0-0.6,0.1-0.8H62.3z"/>
		<path class="st135" d="M79.8,133.5c0.2-0.1,0.4-0.1,0.5,0.1H80L79.8,133.5z"/>
	</g>
</g>
</svg>
