<?xml version="1.0" encoding="UTF-8" standalone="no"?>
<!-- Created with Inkscape (http://www.inkscape.org/) -->

<svg
   width="31.706892mm"
   height="25.906992mm"
   viewBox="0 0 31.706892 25.906992"
   version="1.1"
   id="svg1"
   inkscape:version="1.3.2 (091e20e, 2023-11-25, custom)"
   sodipodi:docname="outi.inkscape.svg"
   xmlns:inkscape="http://www.inkscape.org/namespaces/inkscape"
   xmlns:sodipodi="http://sodipodi.sourceforge.net/DTD/sodipodi-0.dtd"
   xmlns="http://www.w3.org/2000/svg"
   xmlns:svg="http://www.w3.org/2000/svg">
  <sodipodi:namedview
     id="namedview1"
     pagecolor="#ffffff"
     bordercolor="#666666"
     borderopacity="1.0"
     inkscape:showpageshadow="2"
     inkscape:pageopacity="0.0"
     inkscape:pagecheckerboard="0"
     inkscape:deskcolor="#d1d1d1"
     inkscape:document-units="mm"
     inkscape:zoom="0.74029882"
     inkscape:cx="60.786265"
     inkscape:cy="49.304415"
     inkscape:window-width="1920"
     inkscape:window-height="1009"
     inkscape:window-x="1912"
     inkscape:window-y="-8"
     inkscape:window-maximized="1"
     inkscape:current-layer="layer1" />
  <defs
     id="defs1" />
  <g
     inkscape:label="Calque 1"
     inkscape:groupmode="layer"
     id="layer1"
     transform="translate(-89.164588,-135.46667)">
    <path
       class="cls-2"
       d="m 106.90148,137.79926 0.3175,0.18521 c 0.37042,0.18521 0.87313,0.26458 1.08479,0.55563 a 3.7835416,3.7835416 0 0 0 0.79375,0.92604 c 0.50271,0.39687 0.47625,1.34937 -0.0264,1.79916 a 4.7889583,4.7889583 0 0 0 -0.55563,0.47625 0.396875,0.396875 0 0 0 0.26458,0.58209 c 0.3175,0.0529 0.68792,0.10583 0.89959,-0.23813 0.21166,-0.34396 0.58208,-0.39687 0.9525,-0.50271 0.92604,-0.26458 1.85208,-0.23812 2.77812,-0.23812 1.48167,0 2.96334,0.0265 4.445,0 a 0.68791666,0.68791666 0 0 1 0.76729,0.50271 c 0.10584,0.37041 0.39688,0.50271 0.7673,0.52916 h 1.03187 c -0.74083,1.00542 -1.61396,0.39688 -2.46062,0.23813 -0.84667,-0.15875 -0.97896,-0.34396 -1.45521,-0.55563 a 2.8045833,2.8045833 0 0 0 -1.79917,0 5.3710416,5.3710416 0 0 1 -1.29646,0.10584 3.3602083,3.3602083 0 0 0 -0.89958,0.10583 l -0.50271,0.10583 h -0.68792 a 3.9422916,3.9422916 0 0 0 -1.21708,0.3175 l -0.15875,0.0529 -0.3175,0.13229 a 10.715625,10.715625 0 0 1 -1.50812,0.635 c -0.47625,0.10584 -0.92605,0.10584 -1.24355,-0.34396 a 0.50270833,0.50270833 0 0 1 -0.0529,-0.34395 c 0.13229,-0.23813 0.34396,-0.42334 0.47625,-0.635 l 0.635,-0.87313 a 5.2387499,5.2387499 0 0 0 0.29104,-0.52917 l 0.0794,-0.3175 c 0.15875,-0.74083 -0.23812,-0.92604 -0.87312,-0.87312 a 0.74083332,0.74083332 0 0 1 -0.23813,-0.26458 c -0.0794,-0.50271 -0.47625,-0.92605 -0.39687,-1.45521 a 0.26458333,0.26458333 0 0 1 0.10583,-0.0794 z"
       id="path16"
       style="fill:#fefefe;stroke-width:0.264583" />
    <path
       class="cls-5"
       d="m 100.2869,157.61655 h 0.76729 a 1.5610416,1.5610416 0 0 1 1.16417,0.39688 2.2754166,2.2754166 0 0 0 2.35479,0.47625 1.0847917,1.0847917 0 0 1 0.9525,0.10583 1.6404166,1.6404166 0 0 0 1.56104,0.10584 1.666875,1.666875 0 0 1 0.635,-0.0794 h 7.62 c 0.29104,0.0265 0.39688,0.23813 0.47625,0.50271 l -0.13229,0.10583 c -0.44979,0.26459 -1.03188,0.0529 -1.45521,0.39688 l -0.29104,0.15875 c -0.23813,0.0794 -0.50271,0.10583 -0.76729,0.21166 l -0.29104,0.0794 -0.7673,0.13229 h -0.15875 a 0.396875,0.396875 0 0 1 -0.23812,-0.15875 v -0.34396 c -0.0265,-0.3175 -0.15875,-0.55562 -0.52917,-0.55562 h -0.635 c -0.92604,0 -1.85208,-0.0265 -2.77812,0.0265 -0.92604,0.0529 -1.16417,0.23812 -1.74625,0.1852 -0.58209,-0.0529 -1.05834,-0.23812 -1.61396,-0.21166 h -1.37583 a 1.0054167,1.0054167 0 0 1 -0.92605,-0.34396 2.0372916,2.0372916 0 0 0 -1.40229,-0.74083 c -0.15875,-0.0529 -0.29104,-0.3175 -0.42333,-0.4498 z"
       id="path19"
       style="fill:#ffffff;stroke-width:0.264583" />
    <path
       class="cls-2"
       d="m 101.26586,135.73551 c 0.84666,-0.42333 1.69333,-0.26458 2.54,-0.0794 a 0.52916666,0.52916666 0 0 1 0.44979,0.635 3.9158333,3.9158333 0 0 0 0.13229,1.08479 0.42333333,0.42333333 0 0 0 0.52917,0.39687 c 0.3175,-0.0529 0.635,-0.15875 0.9525,-0.23812 a 1.6933333,1.6933333 0 0 1 0.0529,0.18521 c -0.23812,0.635 -0.79375,0.68791 -1.34937,0.74083 -0.97896,-0.3175 -0.74083,-1.5875 -1.5875,-2.01083 -0.84667,-0.42334 -1.11125,-0.29104 -1.61396,-0.58209 z"
       id="path91"
       style="fill:#fefefe;stroke-width:0.264583" />
    <path
       class="cls-2"
       d="m 95.709607,146.42468 c -0.02646,-0.47625 0.02646,-0.89958 0.502708,-1.19063 a 1.6933333,1.6933333 0 0 0 0.555625,-0.66145 5.5562499,5.5562499 0 0 1 1.984375,-2.2225 l 0.105834,0.13229 c -0.608542,1.61396 -1.719792,2.88396 -2.989792,4.02166 z"
       id="path109"
       style="fill:#fefefe;stroke-width:0.264583" />
    <path
       class="cls-2"
       d="m 91.873149,147.9328 a 0.97895832,0.97895832 0 0 1 0.820208,-0.47625 h 0.132292 c 0.529167,-0.0264 1.11125,0.0794 1.5875,-0.10583 0.47625,-0.18521 0.873125,-0.60854 1.296458,-0.92604 l 0.07937,0.0794 c -0.07937,1.24355 -0.529166,1.74625 -1.613958,1.61396 -0.661458,-0.0794 -1.322917,0.0794 -1.984375,0.0265 a 0.52916666,0.52916666 0 0 1 -0.3175,-0.21167 z"
       id="path132"
       style="fill:#fefefe;stroke-width:0.264583" />
    <path
       class="cls-2"
       d="m 90.629607,153.54197 c -0.132291,0.0794 -0.291041,0.23813 -0.423333,0.21167 a 0.79374999,0.79374999 0 0 1 -0.47625,-0.34396 5.1858333,5.1858333 0 0 1 -0.343958,-1.08479 4.7889583,4.7889583 0 0 0 -0.07937,-0.60854 c -0.291042,-0.58209 -0.105834,-1.05834 0.291041,-1.50813 l 0.132292,0.0794 a 1.1377083,1.1377083 0 0 1 0.291042,1.05833 2.619375,2.619375 0 0 0 0.555625,2.14312 z"
       id="path146"
       style="fill:#fefefe;stroke-width:0.264583" />
    <path
       class="cls-2"
       d="m 89.597732,150.20822 c 0.02646,-0.89958 0.608542,-1.48167 1.217084,-2.03729 0.608541,-0.55563 0.714375,-0.18521 1.058333,-0.23813 l 0.05292,0.0529 a 8.4666666,8.4666666 0 0 1 -2.275417,2.27542 z"
       id="path163"
       style="fill:#fefefe;stroke-width:0.264583" />
    <path
       class="cls-5"
       d="m 106.90148,161.16197 a 7.4877082,7.4877082 0 0 1 0.60854,-0.74083 c 0.4498,-0.39688 0.60855,-0.34396 1.16417,0.23812 l 0.10583,0.13229 a 0.44979166,0.44979166 0 0 1 -0.1852,0.26459 c -0.23813,0.10583 -0.52917,0.13229 -0.79375,0.23812 l -0.3175,0.0794 c -0.21167,0 -0.4498,0 -0.58209,-0.21167 z"
       id="path175"
       style="fill:#ffffff;stroke-width:0.264583" />
    <path
       class="cls-2"
       d="m 98.752315,142.3501 a 2.8310416,2.8310416 0 0 0 -0.185208,-0.84667 3.0427083,3.0427083 0 0 1 -0.3175,-1.66688 h 0.185208 c 0.502709,0.47625 0.582084,1.19063 0.846667,1.79917 0.264583,0.60854 0.07937,0.74083 -0.449792,0.82021 z"
       id="path207"
       style="fill:#fefefe;stroke-width:0.264583" />
    <path
       class="cls-2"
       d="m 99.255024,136.76739 a 1.9314583,1.9314583 0 0 1 2.010836,-1.03188 l 0.0794,0.0794 c -0.47625,0.71437 -1.16416,0.97896 -1.957915,1.05833 z"
       id="path215"
       style="fill:#fefefe;stroke-width:0.264583" />
    <path
       class="cls-5"
       d="m 109.44148,160.60635 a 2.8575,2.8575 0 0 1 0.3175,-0.635 0.74083332,0.74083332 0 0 1 0.52917,-0.23813 c 0.15875,0.0529 0.26458,0.26458 0.42333,0.42333 0.15875,0.15875 -0.58208,0.50271 -0.97896,0.58209 a 0.34395833,0.34395833 0 0 1 -0.29104,-0.13229 z"
       id="path226"
       style="fill:#ffffff;stroke-width:0.264583" />
    <path
       class="cls-2"
       d="m 109.65315,160.6328 1.05833,-0.47625 1.00542,-0.0529 0.23812,0.0794 c -0.5027,0.92604 -1.32291,0.79375 -2.16958,0.60854 z"
       id="path230"
       style="fill:#fefefe;stroke-width:0.264583" />
    <path
       class="cls-2"
       d="m 98.249607,138.80468 c -0.07937,-0.68792 0.211667,-1.27 0.582083,-1.82563 0.07937,-0.10583 0.264584,-0.13229 0.423334,-0.21166 l 0.07937,0.0794 a 3.3602083,3.3602083 0 0 1 -0.899584,2.01084 z"
       id="path231"
       style="fill:#fefefe;stroke-width:0.264583" />
    <path
       class="cls-2"
       d="m 109.44148,160.60635 h 0.21167 l 0.0529,0.0794 c -0.21167,0.58208 -0.58209,0.47625 -1.00542,0.21167 v -0.26459 z"
       id="path354"
       style="fill:#fefefe;stroke-width:0.264583" />
    <path
       class="cls-2"
       d="m 98.249607,139.83655 c -0.343958,-0.5027 -0.343958,-0.52916 0,-1.03187 h 0.05292 a 0.76729166,0.76729166 0 0 1 0,0.97896 z"
       id="path356"
       style="fill:#fefefe;stroke-width:0.264583" />
    <path
       class="cls-2"
       d="m 106.39877,137.53468 0.50271,0.26458 -0.0794,0.0794 a 0.396875,0.396875 0 0 1 -0.47625,-0.15875 z"
       id="path445"
       style="fill:#fefefe;stroke-width:0.264583" />
    <path
       class="cls-2"
       d="m 105.86961,137.53468 c 0.18521,-0.26458 0.34396,-0.26458 0.52916,0 l -0.0529,0.0529 a 0.37041666,0.37041666 0 0 1 -0.44979,0 z"
       id="path446"
       style="fill:#fefefe;stroke-width:0.264583" />
    <path
       class="cls-53"
       d="m 105.89607,137.5876 h 0.44979 l 0.47625,0.29104 c 0.26458,0.44979 0.66146,0.87312 0.52916,1.48166 0.10584,1.93146 -0.8202,3.25438 -2.4077,4.23334 a 1.2964583,1.2964583 0 0 1 -0.60855,0.15875 c -1.87854,-0.26459 -2.61937,1.13771 -3.46604,2.35479 -0.37041,0.55562 -0.71437,1.13771 -1.111248,1.69333 -0.396875,0.55563 -0.846667,1.40229 -0.185208,2.35479 0.661456,0.9525 0.05292,1.95792 -0.343959,2.88396 -0.238125,0.44979 -0.502708,0.84667 -0.767291,1.27 -0.767292,1.11125 -1.957917,1.50813 -3.175,1.74625 -0.687917,-0.15875 -1.74625,0.66146 -1.984375,-0.71437 0.132292,-0.82021 0.926042,-1.00542 1.375833,-1.50813 0.635,-1.08479 0.396875,-1.74625 -0.767291,-2.01083 -1.164167,-0.26458 -1.5875,0.10583 -2.301875,0.47625 -0.714375,0.37042 -0.926042,0.58208 -1.031875,1.19062 -0.3175,0 -0.582084,-0.0264 -0.687917,-0.39687 a 3.65125,3.65125 0 0 1 -0.185208,-1.85208 4.2068749,4.2068749 0 0 0 -0.05292,-0.97896 c 0.529167,-1.00542 1.349375,-1.69334 2.275417,-2.27542 0.926041,-0.58208 1.799166,-0.37042 2.69875,-0.0265 a 0.50270833,0.50270833 0 0 0 0.396875,-0.18521 c 0.291041,-0.42333 0.502708,-0.84666 0.767291,-1.27 1.005417,-1.37583 2.010833,-2.7252 3.042708,-4.07458 0.264584,-0.15875 0.47625,-0.3175 0.3175,-0.68792 -0.15875,-0.37041 -0.582083,-1.29645 -0.846666,-1.93145 v -0.97896 a 6.7733332,6.7733332 0 0 1 1.031875,-1.98438 l 2.010834,-1.03187 0.71438,-0.0794 a 0.92604165,0.92604165 0 0 1 1.08479,0.58209 c 0.23812,0.55562 -0.21167,0.84666 -0.47625,1.19062 -0.26458,0.34396 -0.52917,0.9525 -0.0794,1.48167 0.4498,0.52916 0.89959,0.13229 1.27,-0.21167 a 1.2435417,1.2435417 0 0 1 0.66146,-0.34396 1.3758333,1.3758333 0 0 1 0.68792,-0.44979 3.0691666,3.0691666 0 0 0 0.68792,-0.39687 z"
       id="path553"
       style="fill:#030203;stroke-width:0.264583" />
    <path
       class="cls-56"
       d="m 95.418566,155.81739 0.105833,-0.0794 c 1.164166,-0.15875 2.037291,-0.79375 2.778125,-1.66687 0.899583,0.13229 1.746246,0.13229 2.116666,-0.92604 0.13229,-0.1323 0.29104,-0.21167 0.47625,-0.0529 0.37042,0.74083 0.0265,1.50812 0.15875,2.27542 0.13229,0.76729 -0.10583,0.97895 -0.76729,0.97895 l -1.45521,-0.92604 c -0.502708,0.18521 -1.005416,0.3175 -1.508125,0.55563 a 1.6404166,1.6404166 0 0 1 -1.058333,0.13229 0.74083332,0.74083332 0 0 1 -0.846666,-0.29104 z"
       id="path556"
       style="fill:#4b70a7;stroke-width:0.264583" />
    <path
       class="cls-61"
       d="m 100.2869,156.34655 a 1.3758333,1.3758333 0 0 0 0.50271,-1.03187 c 0.76729,0.0265 1.64041,-0.26458 2.03729,0.79375 l 0.34396,-0.10583 a 7.3818749,7.3818749 0 0 1 1.45521,0.52916 c 0.13229,0.52917 -0.29105,0.76729 -0.50271,1.08479 h -0.0265 a 0.89958332,0.89958332 0 0 1 -0.82021,0.0265 2.6722916,2.6722916 0 0 1 -1.87854,-0.52916 z"
       id="path561"
       style="fill:#5e7fb2;stroke-width:0.264583" />
    <path
       class="cls-62"
       d="m 91.608566,152.29843 c 1.058333,-1.03188 1.957916,-1.16417 3.148541,-0.47625 a 1.27,1.27 0 0 1 0.687917,1.00542 c 0.05292,0.47625 -0.02646,0.92604 -0.502708,1.16416 -1.481667,0.39688 -0.926042,-0.87312 -1.190625,-1.48166 a 1.7991666,1.7991666 0 0 0 -1.164167,-0.26459 z"
       id="path562"
       style="fill:#496fa4;stroke-width:0.264583" />
    <path
       class="cls-63"
       d="m 108.17148,158.0928 h -1.00541 a 0.95249999,0.95249999 0 0 1 -0.79375,-0.23812 0.79374999,0.79374999 0 0 1 0.92604,-0.29104 c -0.50271,-0.68792 -1.82563,0 -2.30188,-1.00542 a 0.76729166,0.76729166 0 0 1 0.34396,-0.635 1.984375,1.984375 0 0 1 1.29646,-0.10583 2.1166666,2.1166666 0 0 0 0.82021,0.0529 0.87312499,0.87312499 0 0 1 0.635,0.0794 0.29104166,0.29104166 0 0 1 0.15875,0.26458 c -0.0794,0.13229 -0.29104,0.13229 -0.29104,0.3175 0,0.18521 0.21166,-0.21166 0.3175,-0.3175 0.52916,-0.0794 0.74083,0.21167 0.8202,0.66146 l -0.0794,0.34396 a 2.0108333,2.0108333 0 0 1 -0.84667,0.87312 z"
       id="path563"
       style="fill:#7693bd;stroke-width:0.264583" />
    <path
       class="cls-65"
       d="m 116.02961,158.35739 h -3.54542 a 0.238125,0.238125 0 0 1 0.0265,-0.3175 0.60854166,0.60854166 0 0 1 0.3175,-0.15875 c 0.10583,-0.0265 0.26458,-0.0265 0.34396,-0.10584 0.0794,-0.0794 -0.0529,-0.23812 -0.15875,-0.26458 -0.10584,-0.0265 -0.55563,-0.15875 -0.79375,-0.34396 -0.23813,-0.18521 0.3175,-0.52916 0.52916,-0.76729 0.21167,-0.23812 0.3175,-0.635 0.74084,-0.60854 0.47625,0.47625 0.84666,1.19062 1.71979,0.92604 a 0.44979166,0.44979166 0 0 1 0.3175,0.13229 c 0.10583,0.52917 0.87312,0.82021 0.50271,1.50813 z"
       id="path565"
       style="fill:#809bc2;stroke-width:0.264583" />
    <path
       class="cls-67"
       d="m 105.07586,156.5053 c 0.15875,0.3175 0.44979,0.34396 0.74083,0.34396 a 2.9633333,2.9633333 0 0 1 1.64042,0.47625 0.26458333,0.26458333 0 0 1 0.10583,0.21167 c 0,0.0529 -0.0794,0.15875 -0.10583,0.15875 l -1.08479,0.18521 c -0.66146,0.18521 -1.29646,0.21166 -1.905,-0.18521 -0.0794,-0.0794 -0.23813,-0.0529 -0.34396,-0.0794 -0.13229,-0.47625 0.18521,-0.71437 0.47625,-1.00541 a 0.37041666,0.37041666 0 0 1 0.47625,-0.10584 z"
       id="path567"
       style="fill:#6a8cb9;stroke-width:0.264583" />
    <path
       class="cls-70"
       d="m 93.751691,152.5101 c 0.529166,0.21166 0.529166,0.21166 0.370416,0.58208 -0.15875,0.37042 -0.02646,0.68792 0.502709,0.76729 l 0.3175,0.13229 c -0.47625,0.37042 -0.9525,0.74084 -1.455209,1.08479 -0.105833,0.1323 -0.185208,0.1323 -0.264583,-0.0265 -0.07938,-0.15875 -0.555625,-0.50271 -0.291042,-0.92605 0.264584,-0.42333 0.396875,-0.68791 0.582084,-1.05833 a 3.5189583,3.5189583 0 0 0 0.238125,-0.55562 z"
       id="path570"
       style="fill:#607daf;stroke-width:0.264583" />
    <path
       class="cls-71"
       d="m 93.222524,155.0501 h 0.264583 c 0.02646,0.79375 0.07937,0.87312 0.687917,0.84666 l 1.243542,-0.10583 0.846666,0.3175 -2.328333,0.44979 a 2.38125,2.38125 0 0 1 -0.740833,-0.10583 c -0.423334,-0.10584 -0.47625,-0.3175 -0.264584,-0.71438 0.211667,-0.39687 0.185209,-0.44979 0.291042,-0.68791 z"
       id="path571"
       style="fill:#6f95b9;stroke-width:0.264583" />
    <path
       class="cls-63"
       d="m 112.72232,158.11926 h -0.23813 c -0.55562,0.3175 -1.21708,-0.0794 -1.77271,0.23813 h -0.26458 c -0.37042,-0.23813 -0.79375,-0.3175 -1.16417,-0.50271 -0.37041,-0.18521 -0.635,-0.3175 -0.37041,-0.74083 h 0.0265 a 0.97895832,0.97895832 0 0 1 0.9525,-0.29105 c 0.50271,0.29105 0.87313,0.92605 1.5875,0.50271 h 0.3175 c 0.29105,0.26459 0.9525,0.15875 0.92605,0.79375 z"
       id="path572"
       style="fill:#7693bd;stroke-width:0.264583" />
    <path
       class="cls-72"
       d="m 116.02961,158.35739 a 0.71437499,0.71437499 0 0 0 -0.39688,-0.68792 c -0.44979,-0.23812 -0.23812,-0.52917 -0.10583,-0.82021 l 0.10583,-0.10583 a 0.44979166,0.44979166 0 0 1 0.37042,0.0529 0.37041666,0.37041666 0 0 0 0.21167,0.13229 0.42333333,0.42333333 0 0 1 0.23812,0.0794 l 0.0794,0.10584 0.0794,0.0794 c 0.15875,0.15875 0.44979,0.29104 0.47625,0.47625 0.0265,0.18521 -0.18521,0.37042 -0.26458,0.58208 a 0.15875,0.15875 0 0 0 -0.0265,0.10584 z"
       id="path573"
       style="fill:#718eba;stroke-width:0.264583" />
    <path
       class="cls-73"
       d="m 108.91232,157.11385 c 0.0529,0.26458 0.15875,0.47625 0.47625,0.47625 0.3175,0 0.8202,0.34395 1.05833,0.76729 h -1.48167 a 4.6566666,4.6566666 0 0 1 -0.79375,-0.26459 c 0.0529,-0.47625 0.47625,-0.66145 0.74084,-0.97895 z"
       id="path574"
       style="fill:#7091bc;stroke-width:0.264583" />
    <path
       class="cls-76"
       d="m 110.71148,158.35739 a 2.8045833,2.8045833 0 0 1 0.66146,-0.23813 h 1.11125 v 0.23813 z"
       id="path578"
       style="fill:#90a7c9;stroke-width:0.264583" />
    <path
       class="cls-67"
       d="m 103.27669,157.64301 h 0.82021 c -0.26458,0.29104 -0.52917,0.18521 -0.82021,0 z"
       id="path584"
       style="fill:#6a8cb9;stroke-width:0.264583" />
    <path
       class="cls-114"
       d="m 118.30502,160.39468 h -0.23812 v -0.23813 z"
       id="path660"
       style="fill:#8ea6c9;stroke-width:0.264583" />
    <path
       class="cls-136"
       d="m 104.86419,143.38197 a 5.5297916,5.5297916 0 0 0 2.09021,-2.61937 c 0.15875,-0.4498 0.26458,-0.92605 0.39687,-1.4023 0.0794,0.0265 0.10584,0.0794 0.0794,0.1323 0.71437,0.1852 1.34937,0.44979 1.03187,1.37583 v 0 c -0.23812,0.10583 -0.15875,0.37042 -0.26458,0.52917 l -0.76729,0.97895 a 2.38125,2.38125 0 0 1 -0.52917,0.50271 v 0 c -0.55562,0.84667 -1.45521,1.27 -2.2225,1.82563 -0.76729,0.55562 -1.21708,0.79375 -1.64041,1.37583 a 10.424583,10.424583 0 0 0 -1.29646,2.06375 c -0.55563,1.08479 -0.82021,2.19604 -0.42334,3.38667 a 1.4022916,1.4022916 0 0 1 -0.1852,0.97896 0.37041666,0.37041666 0 0 1 -0.39688,0.0529 c -1.005416,-1.85208 -0.635,-3.65125 0.26458,-5.37104 0.39688,-0.82021 1.05834,-1.50812 1.45521,-2.35479 0.39688,-0.84667 1.66688,-0.84667 2.40771,-1.45521 z"
       id="path696"
       style="fill:#395e99;stroke-width:0.264583" />
    <path
       class="cls-87"
       d="m 102.85336,145.92197 a 5.4504166,5.4504166 0 0 1 0.74083,-0.82021 c 0.9525,-0.71437 1.95792,-1.40229 2.96333,-2.06375 a 1.984375,1.984375 0 0 1 0.34396,-0.15875 c 0.23813,0.635 0.76729,0.50271 1.27,0.50271 0.66146,1.03188 0.66146,1.08479 -0.58208,2.03729 a 2.2225,2.2225 0 0 0 -1.19063,0.82021 0.52916666,0.52916666 0 0 1 -0.34395,-0.0265 c -0.47625,-0.66146 -0.9525,-1.37583 -1.87855,-0.55562 a 1.8785416,1.8785416 0 0 0 -0.3175,0.34396 l -0.21166,0.23812 -0.3175,0.0529 a 0.82020832,0.82020832 0 0 1 -0.47625,-0.37042 z"
       id="path697"
       style="fill:#89a2c5;stroke-width:0.264583" />
    <path
       class="cls-137"
       d="m 107.40419,145.41926 a 0.74083332,0.74083332 0 0 1 0.39688,-0.58208 c 0.635,-0.39688 0.60854,-0.42333 0.39687,-1.21708 a 0.74083332,0.74083332 0 0 1 -0.0265,-0.23813 l 1.50813,-0.74083 c 0.58208,0.39687 1.13771,0.82021 1.85208,0.97896 0.71438,0.15875 0.82021,0.23812 0.71438,0.8202 -0.10584,0.58209 -1.13771,0.0794 -1.61396,0.50271 -0.47625,0.42334 -0.23813,0.37042 -0.37042,0.55563 a 0.95249999,0.95249999 0 0 1 -0.84667,0.23812 c -0.34395,-0.52916 -0.66145,-0.37041 -0.97895,0.0529 -0.3175,0.42333 -0.68792,0.34396 -1.0848,0.15875 a 0.396875,0.396875 0 0 1 0.0529,-0.52917 z"
       id="path698"
       style="fill:#a9b8d2;stroke-width:0.264583" />
    <path
       class="cls-138"
       d="m 112.19315,144.36093 a 0.68791666,0.68791666 0 0 0 -0.68792,-0.44979 c -0.68791,0.0529 -1.11125,-0.39688 -1.5875,-0.71438 -0.47625,-0.3175 -0.15875,-0.37041 -0.23812,-0.55562 a 0.396875,0.396875 0 0 1 0.23812,-0.0529 c 0.68792,0.10583 1.37584,0.55563 2.11667,0.26458 l 0.3175,0.10584 a 1.508125,1.508125 0 0 0 0.76729,0.0794 0.63499999,0.63499999 0 0 1 0.3175,0 1.349375,1.349375 0 0 1 0.42333,0.23813 l 0.23813,0.21166 0.13229,0.10584 0.21167,0.26458 c 0.10583,0.21167 0.23812,0.39688 0.0265,0.60854 a 0.71437499,0.71437499 0 0 1 -0.3175,0.0794 c -0.55563,-0.0794 -1.05834,-0.89959 -1.66688,-0.0794 a 0.3175,0.3175 0 0 1 -0.29104,-0.10583 z"
       id="path699"
       style="fill:#8ca3c8;stroke-width:0.264583" />
    <path
       class="cls-139"
       d="m 113.48961,143.1703 h -0.23813 a 1.031875,1.031875 0 0 1 -1.03187,-0.0265 v 0 c -0.15875,-0.3175 -0.60854,-0.55563 -0.26459,-1.03188 h 0.47625 a 1.984375,1.984375 0 0 1 0.7673,-0.10583 c 0.26458,0.0265 0.52916,0 0.79375,0.0529 0.76729,0.52917 1.03187,1.05834 0,1.61396 v 0 a 1.0847917,1.0847917 0 0 1 -0.1323,-0.23812 1.508125,1.508125 0 0 1 -0.10583,-0.37042 0.52916666,0.52916666 0 0 0 -0.10583,-0.21167 0.34395833,0.34395833 0 0 0 -0.21167,-0.0794 l -0.0529,-0.10583 v 0.10583 a 0.3175,0.3175 0 0 1 0.18521,0.13229 0.21166666,0.21166666 0 0 1 -0.0265,0.21167 z"
       id="path700"
       style="fill:#7d8db8;stroke-width:0.264583" />
    <path
       class="cls-140"
       d="m 111.95502,142.08551 c 0.10584,0.34396 0.18521,0.68792 0.26459,1.03188 0.0794,0.34396 -0.34396,-0.15875 -0.52917,0.10583 -0.18521,0.26458 -0.37042,0.50271 -0.71437,0.0265 -0.34396,-0.47625 -0.21167,-0.21167 -0.39688,-0.18521 -0.18521,0.0265 -0.52917,-0.21167 -0.66146,-0.47625 v 0 c 0.44979,-0.15875 0.92604,-0.13229 1.29646,-0.47625 z"
       id="path701"
       style="fill:#869ec4;stroke-width:0.264583" />
    <path
       class="cls-141"
       d="m 117.82877,142.3501 c -0.3175,0.0529 -0.66145,-0.0529 -0.66145,0.47625 0,0.52916 -0.0794,0.71437 -0.10584,1.05833 -0.635,0.3175 -0.68791,-0.23813 -0.92604,-0.58208 -0.23812,-0.34396 -0.37042,-1.05834 0.26458,-1.42875 l 0.18521,-0.0529 c 0.42334,0.13229 0.89959,0.21167 1.24354,0.52917 z"
       id="path702"
       style="fill:#8fa6c9;stroke-width:0.264583" />
    <path
       class="cls-142"
       d="m 108.46252,140.86843 c -0.0264,-0.52917 -0.15875,-1.00542 -0.8202,-1.08479 -0.0794,0 -0.1323,-0.18521 -0.21167,-0.29104 a 1.2435417,1.2435417 0 0 0 0.3175,-0.18521 0.34395833,0.34395833 0 0 1 0.52917,-0.0529 c 0.5027,0.52917 0.55562,0.87313 0.1852,1.61396 z"
       id="path703"
       style="fill:#677db0;stroke-width:0.264583" />
    <path
       class="cls-141"
       d="m 114.75961,141.82093 a 1.8785416,1.8785416 0 0 1 1.82562,0 l -0.0794,0.0794 a 1.825625,1.825625 0 0 1 -1.48167,0.15875 0.47624999,0.47624999 0 0 1 -0.26458,-0.23812 z"
       id="path704"
       style="fill:#8fa6c9;stroke-width:0.264583" />
    <path
       class="cls-143"
       d="m 113.99232,142.11197 h -0.74084 c -0.0794,-0.0265 -0.10583,-0.0794 -0.0794,-0.10583 0.0265,-0.0265 0.0529,-0.0794 0.0794,-0.0794 l 1.50813,-0.10583 v 0.0794 c -0.10584,0.52917 -0.42334,0.39688 -0.76729,0.21167 z"
       id="path705"
       style="fill:#8493be;stroke-width:0.264583" />
    <path
       class="cls-138"
       d="m 111.21419,142.13843 c -0.29104,0.58208 -0.79375,0.50271 -1.29646,0.47625 a 2.4870833,2.4870833 0 0 1 1.29646,-0.47625 z"
       id="path706"
       style="fill:#8ca3c8;stroke-width:0.264583" />
    <path
       class="cls-140"
       d="m 113.25148,141.92676 v 0.18521 h -0.82021 z"
       id="path707"
       style="fill:#869ec4;stroke-width:0.264583" />
    <path
       class="cls-87"
       d="m 106.90148,142.87926 a 0.68791666,0.68791666 0 0 1 0.52917,-0.50271 0.47624999,0.47624999 0 0 1 -0.52917,0.50271 z"
       id="path708"
       style="fill:#89a2c5;stroke-width:0.264583" />
    <path
       class="cls-142"
       d="m 108.19794,141.3976 a 0.396875,0.396875 0 0 1 0.26458,-0.52917 c -0.0794,0.18521 -0.1852,0.34396 -0.26458,0.52917 z"
       id="path709"
       style="fill:#677db0;stroke-width:0.264583" />
    <path
       class="cls-2"
       d="m 115.76502,159.15114 a 4.3127083,4.3127083 0 0 1 -1.74625,0.50271 c 0.0265,-0.26459 0.1323,-0.47625 0.42334,-0.50271 z"
       id="path720"
       style="fill:#fefefe;stroke-width:0.264583" />
    <path
       class="cls-2"
       d="m 113.99232,159.65385 a 1.3229166,1.3229166 0 0 1 -0.97896,0.26458 c 0.23812,-0.39688 0.635,-0.23813 0.97896,-0.26458 z"
       id="path721"
       style="fill:#fefefe;stroke-width:0.264583" />
    <path
       class="cls-2"
       d="m 112.9869,159.91843 a 1.2435417,1.2435417 0 0 1 -1.00542,0.23812 c 0.26459,-0.39687 0.66146,-0.23812 1.00542,-0.23812 z"
       id="path722"
       style="fill:#fefefe;stroke-width:0.264583" />
    <path
       class="cls-156"
       d="m 116.29419,143.11739 c 0.0794,0.13229 0.21167,0.23812 0.23813,0.39687 a 0.50270833,0.50270833 0 0 0 0.52916,0.37042 c 0.15875,0.29104 0.3175,0.0265 0.50271,0 1.34938,-0.0265 1.5875,0.13229 1.42875,0.9525 -1.56104,0.84667 -3.09562,0.13229 -4.63021,-0.10583 -0.13229,-0.0265 -0.10583,-0.21167 -0.10583,-0.34396 h 0.26458 a 0.82020832,0.82020832 0 0 1 0.23813,-0.18521 c 0.60854,-0.0265 0.55562,-0.37042 0.37041,-0.76729 a 0.95249999,0.95249999 0 0 1 0.0529,-0.29104 0.55562499,0.55562499 0 0 1 0.26458,-0.15875 0.42333333,0.42333333 0 0 1 0.26459,0.0529 c 0.13229,0.18521 0.23812,0 0.34396,0 a 0.21166666,0.21166666 0 0 1 0.23812,0.0794 z"
       id="path738"
       style="fill:#99b1d0;stroke-width:0.264583" />
    <path
       class="cls-158"
       d="m 119.07232,144.65197 c -0.0265,-0.18521 -0.0529,-0.50271 -0.3175,-0.39687 a 0.66145832,0.66145832 0 0 1 -0.84667,-0.26459 c -0.0794,-0.0794 -0.23813,-0.0529 -0.34396,-0.10583 0.39688,-0.44979 0.39688,-0.44979 0.84667,-0.26458 0.44979,0.1852 0.23812,0.15875 0.34396,0.13229 0.55562,-0.13229 0.58208,0.23812 0.60854,0.635 0.0265,0.39687 0.0265,0.23812 0.0265,0.37041 l -0.29105,0.42334 a 0.37041666,0.37041666 0 0 1 -0.0264,-0.52917 z"
       id="path740"
       style="fill:#89a3c6;stroke-width:0.264583" />
    <path
       class="cls-220"
       d="m 104.52023,138.43426 -0.82021,0.92604 c -0.60854,0.635 -0.8202,0.55563 -1.37583,-0.15875 -0.55562,-0.71437 -0.52917,-1.1377 0.0529,-1.905 l 0.76729,-0.97895 c 0.60854,0.1852 0.79375,0.74083 0.9525,1.27 0.15875,0.52916 0.13229,0.635 0.42333,0.84666 z"
       id="path896"
       style="fill:#3f5f9a;stroke-width:0.264583" />
    <path
       class="cls-2"
       d="m 108.67419,160.92385 c -0.29104,0.29104 -0.635,0.26458 -1.00542,0.23812 0.26459,-0.39687 0.66146,-0.21167 1.00542,-0.23812 z"
       id="path998"
       style="fill:#fefefe;stroke-width:0.264583" />
    <path
       class="cls-2"
       d="m 96.185857,153.99176 a 3.0691666,3.0691666 0 0 0 0.211667,-0.84666 c 0.02646,-0.84667 -0.264584,-1.5875 -1.058333,-2.0373 -0.79375,-0.44979 -2.354792,-0.87312 -3.545417,0 l -1.296458,0.84667 c 0,-2.16958 1.349375,-3.51896 3.360208,-3.38667 0.370417,0.0265 0.767292,-0.10583 1.11125,-0.0265 a 0.76729166,0.76729166 0 0 0 0.9525,-0.42334 47.122291,47.122291 0 0 1 3.783541,-5.3975 3.4925,3.4925 0 0 0 0.317505,-0.52916 c 0.10583,-0.3175 0.1852,-0.58209 -0.132296,-0.92605 -0.3175,-0.34395 -0.635,-1.27 -0.608542,-1.98437 0.02646,-1.21708 0.767288,-1.98438 2.222498,-2.40771 a 1.3229166,1.3229166 0 0 1 -0.10583,0.34396 c -0.58208,1.21708 -0.34396,2.43417 0.68792,3.28083 1.03187,0.84667 1.34937,0.50271 1.905,-0.15875 a 13.0175,13.0175 0 0 1 1.66687,-1.53458 0.66145832,0.66145832 0 0 1 0.42333,-0.18521 1.4022916,1.4022916 0 0 1 0.34396,0.50271 0.18520833,0.18520833 0 0 1 0.0265,0.13229 c -0.0529,1.16417 -0.635,2.06375 -1.48167,2.83104 -0.84666,0.76729 -1.5875,0.71438 -2.51354,0.50271 l -0.37041,-0.10583 c -1.19063,1.66687 -2.381255,3.28083 -3.545421,4.94771 a 4.5243749,4.5243749 0 0 0 -0.635,1.34937 c -0.211667,0.68792 -0.211667,1.21708 0.291041,1.74625 0.502709,0.52917 0.291042,0.66146 0.211667,1.05833 a 4.2333333,4.2333333 0 0 1 -1.957917,2.72521 c -0.264583,0.0529 -0.3175,-0.0529 -0.264583,-0.3175 z"
       id="path1158"
       style="fill:#fefefe;stroke-width:0.264583" />
    <path
       class="cls-289"
       d="m 104.86419,143.38197 c -0.34396,0.60854 -1.03187,0.71438 -1.56104,1.00542 -0.52917,0.29104 -0.39688,0.21166 -0.44979,0.37041 -0.37042,1.00542 -1.05834,1.82563 -1.66688,2.6723 a 2.4077083,2.4077083 0 0 0 -0.42333,1.00541 11.535833,11.535833 0 0 0 -0.23813,2.11667 6.2177083,6.2177083 0 0 0 0.29105,1.98437 0.37041666,0.37041666 0 0 1 -0.0265,0.50271 l -0.23813,0.26459 c -0.661456,0.68791 -1.08479,0.13229 -1.56104,-0.26459 l 0.396875,-1.21708 c 0.238125,-0.76729 0.238125,-1.50813 -0.449791,-2.06375 a 0.68791666,0.68791666 0 0 1 -0.15875,-0.92604 2.8045833,2.8045833 0 0 1 0.291041,-0.55563 l 3.148545,-4.60375 c 0.0794,-0.10583 0.29104,-0.23812 0.39687,-0.21166 0.76729,0.29104 1.50813,0.0264 2.24896,-0.0794 z"
       id="path1159"
       style="fill:#355896;stroke-width:0.264583" />
    <path
       class="cls-290"
       d="m 98.99044,153.03926 a 3.7570833,3.7570833 0 0 1 0.820209,0.29104 0.82020832,0.82020832 0 0 0 0.740831,-0.0264 c -0.13229,0.76729 -0.714373,1.1377 -1.375831,1.40229 a 0.26458333,0.26458333 0 0 1 -0.370417,-0.21167 0.50270833,0.50270833 0 0 0 -0.502708,-0.42333 z"
       id="path1160"
       style="fill:#375c99;stroke-width:0.264583" />
    <path
       class="cls-291"
       d="m 96.185857,153.99176 0.264583,0.3175 a 0.47624999,0.47624999 0 0 1 -0.132291,0.18521 l -0.449792,0.0529 c 0.05292,-0.13229 0.05292,-0.29104 0.105833,-0.42334 0.05292,-0.13229 0.132292,-0.0794 0.211667,-0.13229 z"
       id="path1161"
       style="fill:#828f9e;stroke-width:0.264583" />
    <path
       class="cls-308"
       d="m 100.78961,153.03926 c 0,-0.15875 0.0265,-0.3175 0.0265,-0.50271 h 0.21166 c 0.71438,0.3175 0.42334,1.24355 1.05834,1.61396 0.635,0.37042 0.55562,0.635 1.05833,0.37042 a 0.29104166,0.29104166 0 0 1 0.3175,0.13229 c 0.21167,0.52917 0.13229,1.00542 -0.34396,1.34938 a 3.8364583,3.8364583 0 0 1 -0.3175,0.66145 c -0.0794,0.1323 -0.37042,0.0794 -0.42333,-0.0794 -0.0529,-0.15875 -0.18521,-0.79375 -0.26459,-1.16417 h -0.1852 c -0.29105,0.0265 -0.26459,0.60854 -0.635,0.44979 -0.37042,-0.15875 -0.34396,-0.37041 -0.50271,-0.55562 -0.15875,-0.18521 -0.23813,-0.82021 -0.0529,-1.29646 0.18521,-0.47625 0.0529,-0.66146 0.0529,-0.97896 z"
       id="path1189"
       style="fill:#6886b4;stroke-width:0.264583" />
    <path
       class="cls-313"
       d="m 117.29961,156.08197 c -0.0529,0.18521 -0.21167,0.39688 -0.18521,0.55563 0.13229,0.58208 -0.26458,0.44979 -0.58208,0.47625 v 0 c -0.26459,-0.18521 -0.4498,-0.52917 -0.87313,-0.4498 a 0.29104166,0.29104166 0 0 1 -0.26458,-0.15875 0.74083332,0.74083332 0 0 1 -0.0265,-0.52916 c 0.74083,-1.00542 0.82021,-1.03188 1.71979,-0.15875 z"
       id="path1196"
       style="fill:#8aa6c7;stroke-width:0.264583" />
    <path
       class="cls-314"
       d="m 103.11794,156.0026 0.15875,-1.45521 a 0.87312499,0.87312499 0 0 1 -0.21167,-0.50271 v -0.37042 c 0.1323,-0.50271 0.18521,-1.00541 0.34396,-1.48166 a 0.44979166,0.44979166 0 0 1 0.26459,-0.26459 0.52916666,0.52916666 0 0 1 0.635,0.37042 c 0.1852,0.60854 0.10583,1.24354 0.10583,1.85208 a 3.9422916,3.9422916 0 0 1 -0.0529,0.55563 c -0.44979,1.13771 0.87313,0.635 1.11125,1.16416 a 0.34395833,0.34395833 0 0 1 -0.0529,0.3175 l -0.34396,0.3175 -0.47625,0.10584 a 1.4552083,1.4552083 0 0 0 -0.47625,0.0265 c -0.55563,0.13229 -0.84667,-0.1323 -1.00542,-0.635 z"
       id="path1197"
       style="fill:#0e0d11;stroke-width:0.264583" />
    <path
       class="cls-315"
       d="m 108.17148,156.13489 -0.74083,-0.10584 a 0.47624999,0.47624999 0 0 1 -0.18521,-0.55562 0.97895832,0.97895832 0 0 1 0.13229,-0.29104 0.42333333,0.42333333 0 0 0 0.13229,-0.42334 1.0847917,1.0847917 0 0 0 -0.13229,-0.23812 1.2170833,1.2170833 0 0 1 -0.39687,-0.68792 c 0.0794,-0.55562 0.39687,-0.92604 0.9525,-0.89958 0.55562,0.0265 0.52916,0.52917 0.60854,0.92604 a 2.06375,2.06375 0 0 0 0.23812,0.55563 1.7197916,1.7197916 0 0 1 0.10584,0.34395 1.2170833,1.2170833 0 0 1 0.0265,0.52917 1.3229166,1.3229166 0 0 1 -0.10584,0.34396 c -0.13229,0.23812 -0.23812,0.55562 -0.635,0.50271 z"
       id="path1198"
       style="fill:#1d1a1d;stroke-width:0.264583" />
    <path
       class="cls-316"
       d="m 105.41982,156.1878 -0.0529,-0.3175 a 5.6091666,5.6091666 0 0 1 -0.0529,-1.32291 1.666875,1.666875 0 0 1 0.39688,-1.08479 c 0.9525,-0.4498 1.00541,-0.42334 1.11125,0.76729 0.0529,0.44979 -0.3175,0.9525 0.15875,1.34937 a 0.396875,0.396875 0 0 1 -0.13229,0.44979 z"
       id="path1199"
       style="fill:#1d1a1f;stroke-width:0.264583" />
    <path
       class="cls-76"
       d="m 108.17148,156.13489 0.47625,-0.58209 c 0.58209,0.23813 0.9525,0.68792 1.32292,1.13771 0.37042,0.44979 -0.0265,0.10584 -0.0265,0.15875 l -1.00542,0.23813 a 0.74083332,0.74083332 0 0 0 -0.76729,-0.74084 v 0 z"
       id="path1200"
       style="fill:#90a7c9;stroke-width:0.264583" />
    <path
       class="cls-76"
       d="m 106.84857,156.02905 0.0794,-0.44979 a 0.396875,0.396875 0 0 1 0.23813,-0.34396 0.238125,0.238125 0 0 1 0.23812,0.1323 c 0,0.21166 0.0265,0.44979 0.0265,0.66145 0,0.21167 -0.29104,0.3175 -0.58208,0 z"
       id="path1201"
       style="fill:#90a7c9;stroke-width:0.264583" />
    <path
       class="cls-76"
       d="m 108.17148,156.34655 -0.15875,0.15875 c -0.0529,0.0265 -0.13229,-0.0529 -0.18521,-0.0529 l 0.10584,-0.0794 z"
       id="path1202"
       style="fill:#90a7c9;stroke-width:0.264583" />
    <path
       class="cls-317"
       d="m 113.46315,155.79093 -0.39688,0.76729 h -0.15875 a 0.50270833,0.50270833 0 0 1 -0.26458,-0.0794 l -0.13229,-0.0529 -0.42333,-0.15875 -0.26459,-0.13229 a 4.0216666,4.0216666 0 0 1 -0.58208,-0.58209 c -0.37042,-0.44979 -0.21167,-0.9525 -0.0529,-1.42875 a 1.4816666,1.4816666 0 0 1 0.10584,-0.3175 l 0.0794,-0.15875 a 3.730625,3.730625 0 0 1 0.71438,-0.97895 1.0583333,1.0583333 0 0 1 0.8202,-0.29105 0.74083332,0.74083332 0 0 1 0.29105,0.21167 c 0.34395,0.44979 0.0794,0.76729 -0.21167,1.08479 -0.29104,0.3175 -0.68792,0.50271 -0.74083,1.05834 0.34395,-0.74084 0.79375,-0.84667 1.37583,-0.39688 a 1.42875,1.42875 0 0 1 0.0794,1.13771 0.58208333,0.58208333 0 0 1 -0.23812,0.3175 z"
       id="path1203"
       style="fill:#1b181c;stroke-width:0.264583" />
    <path
       class="cls-318"
       d="m 113.46315,155.79093 a 0.21166666,0.21166666 0 0 1 0.0529,-0.21167 l 0.21166,-0.23812 c 0.29104,-0.23813 0.44979,-0.9525 0.97896,-0.26459 a 1.3758333,1.3758333 0 0 1 0.15875,0.42334 l 0.0794,0.26458 a 0.29104166,0.29104166 0 0 0 0.29104,0.18521 l 0.26458,0.0529 v 0.58208 c 0,0.15875 -0.18521,0.15875 -0.26458,0.26458 l -0.60854,0.3175 c -0.3175,-0.39687 -1.11125,-0.29104 -1.11125,-1.00541 a 1.5610416,1.5610416 0 0 0 -0.0529,-0.37042 z"
       id="path1204"
       style="fill:#9fb5cf;stroke-width:0.264583" />
    <path
       class="cls-319"
       d="m 112.72232,158.11926 a 2.4870833,2.4870833 0 0 0 -0.60855,-0.26458 0.50270833,0.50270833 0 0 1 -0.39687,-0.50271 0.238125,0.238125 0 0 1 0.0529,-0.29104 0.3175,0.3175 0 0 1 0.44979,0.0265 3.0427083,3.0427083 0 0 1 1.5875,0.37041 c 0.0794,0.0265 0.13229,0.21167 0.13229,0.3175 0,0.10584 -0.13229,0.26459 -0.21167,0.26459 -0.0794,0 -0.66146,0.0529 -1.00541,0.0794 z"
       id="path1205"
       style="fill:#6f8cba;stroke-width:0.264583" />
    <path
       class="cls-76"
       d="m 112.21961,157.08739 h -0.50271 a 0.66145832,0.66145832 0 0 0 -0.10583,-0.18521 c 0.10583,-0.68792 0.58208,-0.58208 1.03187,-0.50271 l 0.37042,0.13229 h 0.0529 z"
       id="path1206"
       style="fill:#90a7c9;stroke-width:0.264583" />
    <path
       class="cls-313"
       d="m 115.26232,156.84926 a 2.4870833,2.4870833 0 0 0 0.26458,-0.26458 v 0 c 0.0794,0.0794 0.10583,0.13229 0.0794,0.18521 -0.0264,0.0529 -0.0529,0.0794 -0.0794,0.0794 z"
       id="path1207"
       style="fill:#8aa6c7;stroke-width:0.264583" />
    <path
       class="cls-76"
       d="m 111.47877,157.35197 c -0.0529,0.34396 -0.21166,0.58208 -0.58208,0.44979 -0.37042,-0.13229 -0.9525,-0.3175 -0.9525,-0.9525 v 0 a 1.349375,1.349375 0 0 1 1.45521,0.34396 z"
       id="path1212"
       style="fill:#90a7c9;stroke-width:0.264583" />
    <path
       class="cls-76"
       d="m 111.7169,157.11385 v 0.23812 h -0.26458 c -0.0529,-0.23812 0.0264,-0.3175 0.26458,-0.26458 z"
       id="path1213"
       style="fill:#90a7c9;stroke-width:0.264583" />
    <path
       class="cls-65"
       d="m 115.5269,156.84926 v -0.26458 c 0.60854,-0.21167 0.60854,-0.21167 1.00542,0.52917 h -0.50271 z"
       id="path1214"
       style="fill:#809bc2;stroke-width:0.264583" />
    <path
       class="cls-65"
       d="m 116.02961,157.11385 -0.0529,0.10583 z"
       id="path1215"
       style="fill:#809bc2;stroke-width:0.264583" />
    <path
       class="cls-384"
       d="m 102.85336,145.92197 0.50271,0.29104 a 0.71437499,0.71437499 0 0 1 0.1852,0.37042 c -0.15875,0.97896 0.0794,1.98437 -0.39687,2.91042 -0.87313,-0.10584 -0.55563,-0.79375 -0.635,-1.27 -0.10583,-0.0529 0.29104,-0.39688 -0.13229,-0.26459 -0.42334,0.13229 -0.55563,0.23813 -0.82021,0 0.21167,-0.82021 0.74083,-1.42875 1.29646,-2.03729 z"
       id="path1334"
       style="fill:#93abcb;stroke-width:0.264583" />
    <path
       class="cls-385"
       d="m 103.09148,154.57385 a 2.9897916,2.9897916 0 0 1 -0.0794,0.47625 c -0.0265,0.0794 -0.26459,0.15875 -0.29104,0.10583 -0.0265,-0.0529 -0.55563,-0.58208 -0.84667,-0.87313 a 2.69875,2.69875 0 0 1 -0.635,-1.32291 1.7197916,1.7197916 0 0 0 -0.21167,-0.44979 v -0.97896 a 0.238125,0.238125 0 0 1 0.3175,-0.0529 c 0.21167,0.82021 1.24354,1.19063 1.16417,2.16958 a 1.8520833,1.8520833 0 0 0 0.50271,0.7673 z"
       id="path1335"
       style="fill:#859dc2;stroke-width:0.264583" />
    <path
       class="cls-386"
       d="m 101.29232,151.53114 h -0.26459 a 3.3072916,3.3072916 0 0 1 0.0794,-2.69875 c 0.13229,-0.29104 0.29104,-0.58209 0.44979,-0.87313 l 0.92604,-0.3175 c 0.3175,-0.0794 0.3175,0.13229 0.3175,0.34396 l -0.52917,0.50271 c -0.21166,0.26458 -0.1852,0.58208 -0.29104,0.87312 a 0.97895832,0.97895832 0 0 1 -0.13229,0.29105 c -0.42333,0.44979 -0.42333,1.00541 -0.39687,1.5875 a 0.63499999,0.63499999 0 0 1 -0.15875,0.29104 z"
       id="path1336"
       style="fill:#9db4d2;stroke-width:0.264583" />
    <path
       class="cls-387"
       d="m 103.03857,149.46739 c -0.0265,-1.03188 -0.0265,-2.06375 0.37041,-3.06917 a 0.42333333,0.42333333 0 0 1 0.10584,-0.18521 l 0.13229,-0.3175 0.13229,-0.18521 a 4.3920833,4.3920833 0 0 1 0.68792,-0.71437 c 0.52916,-0.34396 1.05833,-0.21167 1.37583,0.37042 a 7.0908332,7.0908332 0 0 1 0.3175,0.79375 1.7991666,1.7991666 0 0 1 0.26458,0.55562 c 0.13229,0.74083 -0.21166,1.42875 -0.23812,2.16958 -0.0265,0.74084 -0.66146,1.77271 -1.71979,2.0373 a 1.031875,1.031875 0 0 1 -0.635,-0.15875 0.82020832,0.82020832 0 0 1 -0.26459,-0.1323 l -0.23812,-0.21166 -0.10584,-0.0794 -0.1852,-0.21166 a 1.11125,1.11125 0 0 1 -0.10584,-0.26459 0.44979166,0.44979166 0 0 1 0.10584,-0.39687 z"
       id="path1337"
       style="fill:#050507;stroke-width:0.264583" />
    <path
       class="cls-388"
       d="m 108.40961,145.68385 a 7.4347916,7.4347916 0 0 1 0.26458,-0.82021 0.55562499,0.55562499 0 0 1 0.29104,-0.18521 0.42333333,0.42333333 0 0 1 0.29104,0.18521 7.4612499,7.4612499 0 0 1 0.18521,0.82021 0.92604165,0.92604165 0 0 1 0.21167,0.8202 c -0.21167,0.82021 -0.10583,1.66688 -0.37042,2.48709 a 3.2808333,3.2808333 0 0 1 -0.76729,1.42875 c -0.89958,0.9525 -1.79917,0.76729 -2.40771,-0.47625 -0.0529,-1.05834 0.18521,-2.09021 0.15875,-3.12209 0,-0.23812 -0.0529,-0.44979 0.10584,-0.66145 a 4.3920833,4.3920833 0 0 1 0.15875,-0.55563 c 0.1852,-0.52917 0.26458,-0.55562 0.87312,-0.18521 a 3.2014583,3.2014583 0 0 0 0.0265,0.50271 c 0.60854,1.11125 -0.18521,2.19604 0.10583,3.25438 a 7.8581249,7.8581249 0 0 0 0.50271,-2.19605 c 0.0794,-0.44979 0.0265,-0.92604 0.37042,-1.29645 z"
       id="path1338"
       style="fill:#070709;stroke-width:0.264583" />
    <path
       class="cls-389"
       d="m 106.37232,146.1601 v 0.5027 c -0.0794,0.1323 -0.15875,0.1323 -0.21167,0 v -0.5027 z"
       id="path1339"
       style="fill:#797a87;stroke-width:0.264583" />
    <path
       class="cls-289"
       d="m 103.51482,146.21301 -0.10584,0.18521 a 0.26458333,0.26458333 0 0 1 -0.0529,-0.18521 0.15875,0.15875 0 0 1 0.15875,0 z"
       id="path1340"
       style="fill:#355896;stroke-width:0.264583" />
    <path
       class="cls-289"
       d="m 103.7794,145.7103 -0.13229,0.18521 z"
       id="path1341"
       style="fill:#355896;stroke-width:0.264583" />
    <path
       class="cls-390"
       d="m 110.26169,145.36635 -0.0529,-0.66146 c 1.03188,-0.34396 2.09021,-0.0529 3.12209,-0.3175 a 0.63499999,0.63499999 0 0 1 0.55562,0.58208 0.97895832,0.97895832 0 0 1 -0.55562,0.79375 c -1.37584,0 -0.76729,1.08479 -0.9525,1.74625 -0.18521,0.66146 0,1.34938 -0.10584,2.03729 -0.10583,0.68792 -0.1852,0.84667 -0.71437,0.84667 -0.52917,0 -0.74083,-0.34396 -0.87313,-0.76729 -0.13229,-0.42334 0.0265,-1.34938 -0.1852,-2.01084 a 21.616458,21.616458 0 0 1 -0.23813,-2.24895 z"
       id="path1342"
       style="fill:#060608;stroke-width:0.264583" />
    <path
       class="cls-391"
       d="m 108.40961,145.68385 c 0.13229,1.00541 -0.13229,2.01083 -0.3175,2.98979 a 1.190625,1.190625 0 0 1 -0.58209,0.92604 c -0.37041,-0.76729 -0.39687,-1.45521 -0.0794,-3.67771 z"
       id="path1343"
       style="fill:#bbc5d4;stroke-width:0.264583" />
    <path
       class="cls-392"
       d="m 110.26169,145.36635 c 0.3175,0.0264 0.55563,0.13229 0.52917,0.52916 -0.0265,0.39688 -0.0529,1.00542 -0.0529,1.48167 a 1.3758333,1.3758333 0 0 1 0.0265,0.97896 c -0.10583,0.3175 -0.39688,0.39687 -0.68792,0.42333 a 0.52916666,0.52916666 0 0 1 -0.635,-0.47625 4.1010416,4.1010416 0 0 1 -0.0529,-1.95792 l 0.0529,-0.66145 z"
       id="path1344"
       style="fill:#d1dce9;stroke-width:0.264583" />
    <path
       class="cls-393"
       d="m 113.48961,144.59905 -3.28084,0.10584 a 0.63499999,0.63499999 0 0 1 0.635,-0.3175 h 1.69334 c 0.39687,-0.23813 0.76729,-0.39688 0.9525,0.21166 z"
       id="path1345"
       style="fill:#9ba5bf;stroke-width:0.264583" />
    <path
       class="cls-394"
       d="m 113.48961,144.59905 c -0.26459,-0.34395 -0.635,-0.1852 -0.9525,-0.23812 -0.3175,-0.0529 0,-0.47625 0.10583,-0.58208 a 0.68791666,0.68791666 0 0 1 0.55563,0 8.4137499,8.4137499 0 0 1 1.05833,0.60854 0.71437499,0.71437499 0 0 0 0.66146,0.26458 6.9585416,6.9585416 0 0 1 1.95791,0.21167 c 0.74084,0.18521 1.48167,0.0265 2.19605,-0.21167 a 3.5454166,3.5454166 0 0 1 0.0264,0.52917 l -0.23812,0.79375 c -0.60854,-0.34396 -1.21708,-1.05834 -1.71979,0.0794 a 1.984375,1.984375 0 0 1 -0.26459,0.87313 0.34395833,0.34395833 0 0 1 -0.3175,0.0794 c -0.42333,-0.34396 -0.21166,-0.89958 -0.47625,-1.29646 -0.52916,0.26459 0.0265,1.24355 -0.84666,1.24355 a 1.3229166,1.3229166 0 0 1 -0.26459,-0.82021 c 0.10584,-1.00542 -0.92604,-0.52917 -1.24354,-0.97896 z"
       id="path1346"
       style="fill:#adc0d7;stroke-width:0.264583" />
    <path
       class="cls-395"
       d="m 116.29419,143.11739 h -0.26458 c -0.0794,0.0794 -0.15875,0.0529 -0.23813,-0.0265 v 0 c -0.18521,-0.18521 -0.34396,-0.13229 -0.52916,0.0265 v 0 c -0.23813,0.21166 0.0529,0.635 -0.29105,0.84666 a 0.60854166,0.60854166 0 0 1 -0.71437,-0.10583 l -0.26458,-0.23812 c 0.52916,-0.50271 0.44979,-1.03188 0,-1.53459 0.29104,0 0.58208,0.0529 0.76729,-0.21166 h 1.74625 a 1.0847917,1.0847917 0 0 0 -0.21167,1.24354 z"
       id="path1347"
       style="fill:#7d98c0;stroke-width:0.264583" />
    <path
       class="cls-140"
       d="m 112.21961,143.11739 h 1.03187 c -0.50271,0.34396 -0.52916,0.34396 -1.03187,0 z"
       id="path1348"
       style="fill:#869ec4;stroke-width:0.264583" />
    <path
       class="cls-140"
       d="m 114.2569,143.88468 h 0.76729 c 0.13229,0.29104 -0.10583,0.37042 -0.26458,0.52917 h -0.23813 a 3.01625,3.01625 0 0 1 -0.26458,-0.52917 z"
       id="path1349"
       style="fill:#869ec4;stroke-width:0.264583" />
    <path
       class="cls-395"
       d="m 113.99232,143.32905 v 0.3175 l -0.29105,-0.26458 0.1323,-0.0794 z"
       id="path1350"
       style="fill:#7d98c0;stroke-width:0.264583" />
    <path
       class="cls-140"
       d="m 113.70127,143.38197 -0.21166,-0.21167 v -0.0529 a 0.21166666,0.21166666 0 0 1 0.26458,-0.0529 0.29104166,0.29104166 0 0 1 0,0.29104 z"
       id="path1351"
       style="fill:#869ec4;stroke-width:0.264583" />
    <path
       class="cls-396"
       d="m 113.72773,143.14385 h -0.21166 a 0.79374999,0.79374999 0 0 1 -0.0529,-0.26459 c -0.0794,-0.0794 -0.0529,-0.15875 0.0529,-0.21166 0.10583,-0.0529 0.42333,-0.0529 0.47625,0.23812 0.0529,0.29104 -0.10584,0.21167 -0.26459,0.23813 z"
       id="path1352"
       style="fill:#393140;stroke-width:0.264583" />
    <path
       class="cls-397"
       d="m 113.72773,143.14385 0.26459,-0.26459 v 0.44979 h -0.21167 a 0.50270833,0.50270833 0 0 0 -0.0529,-0.1852 z"
       id="path1353"
       style="fill:#09060d;stroke-width:0.264583" />
    <path
       class="cls-140"
       d="m 113.51607,142.64114 c -0.0265,0.0794 -0.0265,0.15875 -0.0529,0.21166 l -0.21167,-0.23812 z"
       id="path1354"
       style="fill:#869ec4;stroke-width:0.264583" />
    <polygon
       class="cls-140"
       points="116.2,27 115.8,26.8 115.9,26.6 "
       id="polygon1354"
       style="fill:#869ec4"
       transform="matrix(0.26458333,0,0,0.26458333,82.506899,135.47093)" />
    <path
       class="cls-401"
       d="m 116.55877,146.95385 h 0.23813 c 0.635,1.40229 0.82021,1.42875 1.82562,0.1852 a 0.71437499,0.71437499 0 0 1 0.26459,-0.21166 c 0.29104,0.635 0.68791,1.11125 1.48166,1.08479 a 0.37041666,0.37041666 0 0 1 0.23813,0.23812 3.9422916,3.9422916 0 0 1 -0.13229,0.9525 c -0.0265,0.0794 -0.26459,0.18521 -0.39688,0.18521 a 0.84666666,0.84666666 0 0 0 -0.74083,0.37042 c -0.29104,0.50271 -0.71438,0.3175 -1.11125,0.26458 -2.11667,-0.15875 -2.61938,-1.11125 -1.66688,-3.06916 z"
       id="path1362"
       style="fill:#c6d2e3;stroke-width:0.264583" />
    <path
       class="cls-403"
       d="m 116.82336,145.92197 c 0.10583,-0.71437 0.10583,-0.71437 0.55562,-0.74083 a 3.730625,3.730625 0 0 1 0.76729,0 c 0.52917,0.0265 0.52917,0.0265 0.71438,0.79375 0,0.29104 0,0.60854 0.0265,0.92604 l -0.10584,0.0529 c -0.68791,-0.23813 -1.05833,-1.16417 -1.95791,-1.03188 z"
       id="path1364"
       style="fill:#c6d6e6;stroke-width:0.264583" />
    <path
       class="cls-404"
       d="m 120.6069,146.18655 c -0.0794,-0.0794 -0.15875,-0.1852 -0.26458,-0.21166 -0.10584,-0.0265 -0.21167,0.0265 -0.21167,0.0794 0,0.0529 -0.0265,0.55563 -0.0265,0.82021 -0.52917,-0.44979 -0.3175,-0.9525 -0.0529,-1.42875 a 0.26458333,0.26458333 0 0 1 0.42334,0.0265 3.095625,3.095625 0 0 1 0.13229,0.71437 z"
       id="path1365"
       style="fill:#adbfcf;stroke-width:0.264583" />
    <path
       class="cls-141"
       d="m 114.75961,144.41385 c 0.0794,-0.18521 0.18521,-0.34396 0.26458,-0.52917 0.0794,-0.18521 -0.0529,-0.58208 0.23813,-0.74083 a 5.0006249,5.0006249 0 0 0 0.23812,0.55562 c 0.10583,0.18521 0.52917,0.23813 0.34396,0.55563 -0.18521,0.3175 -0.37042,0.10583 -0.58208,0.13229 z"
       id="path1368"
       style="fill:#8fa6c9;stroke-width:0.264583" />
    <path
       class="cls-141"
       d="m 115.26232,143.14385 a 1.4816666,1.4816666 0 0 1 0.13229,-0.21167 c 0.23812,-0.23813 0.26458,-0.21167 0.39687,0.18521 z"
       id="path1369"
       style="fill:#8fa6c9;stroke-width:0.264583" />
    <path
       class="cls-141"
       d="m 115.79148,143.11739 h 0.23813 c -0.0794,0.18521 -0.15875,0.18521 -0.23813,0 z"
       id="path1370"
       style="fill:#8fa6c9;stroke-width:0.264583" />
    <path
       class="cls-385"
       d="m 103.30315,154.07114 a 2.8839583,2.8839583 0 0 1 -0.0265,0.47625 h -0.21167 c -0.15875,-0.26459 -0.15875,-0.47625 0.23813,-0.47625 z"
       id="path1566"
       style="fill:#859dc2;stroke-width:0.264583" />
    <path
       class="cls-503"
       d="m 117.29961,154.81197 c 0.0794,-0.52917 0.13229,-1.05833 0.23812,-1.5875 0.0265,-0.10583 0.13229,-0.29104 0.18521,-0.29104 a 0.74083332,0.74083332 0 0 1 0.39688,0.21167 c 0.23812,0.3175 0.42333,0.66145 0.635,1.00541 0.37041,-0.15875 0.21166,-0.44979 0.26458,-0.66146 0.0529,-0.21166 0.0265,-0.42333 0.0794,-0.60854 0.0529,-0.18521 0.23813,-0.3175 0.4498,-0.29104 0.0264,0.97896 0.0264,1.98438 0.0264,2.96333 a 0.396875,0.396875 0 0 1 -0.34395,0.23813 c -0.29105,-0.3175 -0.55563,-0.66146 -0.87313,-0.97896 -0.3175,-0.3175 -0.15875,-0.10583 -0.23812,-0.15875 l -0.10584,0.3175 c -0.13229,0.44979 -0.15875,1.13771 -0.84666,0.42333 a 0.66145832,0.66145832 0 0 1 0.13229,-0.58208 z"
       id="path1573"
       style="fill:#1d1d20;stroke-width:0.264583" />
    <path
       class="cls-60"
       d="m 120.31586,153.06572 v 2.51354 h -0.23813 c 0,-0.60854 0,-1.24354 0.0265,-1.85208 a 3.2014583,3.2014583 0 0 1 0.21167,-0.66146 z"
       id="path1575"
       style="fill:#849dc4;stroke-width:0.264583" />
    <path
       class="cls-60"
       d="m 117.27315,155.31468 c 0.44979,0.34396 0.44979,0.34396 0.66146,-0.10583 l 0.0794,-0.23813 c 0.13229,0.50271 0,0.82021 -0.52916,0.9525 -0.0529,0 -0.10584,0.10583 -0.18521,0.15875 h -0.3175 a 0.84666666,0.84666666 0 0 1 -0.0265,-0.71437 0.29104166,0.29104166 0 0 1 0.3175,-0.0529 z"
       id="path1576"
       style="fill:#849dc4;stroke-width:0.264583" />
    <path
       class="cls-60"
       d="m 119.23107,155.79093 0.34395,-0.23813 z"
       id="path1579"
       style="fill:#849dc4;stroke-width:0.264583" />
    <path
       class="cls-505"
       d="m 117.1144,155.31468 c -0.0529,0.23812 -0.0794,0.47625 -0.13229,0.74083 l -0.635,-0.68791 -0.84667,0.635 a 0.29104166,0.29104166 0 0 0 -0.21167,0.0794 c -0.3175,0.15875 -0.39687,-0.0265 -0.44979,-0.29104 a 0.238125,0.238125 0 0 0 -0.10583,-0.21167 0.87312499,0.87312499 0 0 1 -0.18521,-0.34396 c -0.0529,-0.21166 -0.13229,-0.42333 -0.34396,-0.10583 -0.21166,0.3175 -0.13229,0.47625 -0.47625,0.44979 -0.34396,-0.0265 -0.0529,-0.84666 -0.10583,-1.24354 -0.0529,-0.39687 -0.10583,-1.11125 0.60854,-1.29646 h 0.0265 l 0.29104,-0.21166 v 0 a 0.29104166,0.29104166 0 0 1 0.21167,-0.1323 h 0.26458 a 0.34395833,0.34395833 0 0 1 0.23813,0.1323 h -0.0265 c 0.23812,0.23812 0.15875,0.47625 0.0794,0.74083 a 0.10583333,0.10583333 0 0 0 -0.0794,0.15875 0.47624999,0.47624999 0 0 1 -0.23813,0.34396 v 0 a 0.396875,0.396875 0 0 0 0,0.52916 v 0 c 0.15875,0.10584 0.21167,0.42334 0.50271,0.23813 a 2.06375,2.06375 0 0 0 0.0529,-0.37042 4.4714583,4.4714583 0 0 1 0.21166,-0.635 0.15875,0.15875 0 0 0 0.0265,-0.21166 c 0.13229,-0.15875 0.0794,-0.39688 0.26459,-0.55563 v 0 a 0.29104166,0.29104166 0 0 1 0.47625,0 c 0.15875,0.60854 0.34395,1.19063 0.52916,1.77271 a 0.396875,0.396875 0 0 1 0.0529,0.47625 z"
       id="path1580"
       style="fill:#100f12;stroke-width:0.264583" />
    <path
       class="cls-506"
       d="m 104.14982,150.73739 c 1.03187,-0.13229 1.50812,-0.82021 1.74625,-1.74625 0.68791,0.0265 0.1852,0.58208 0.34395,0.84666 0.15875,0.71438 -0.0529,1.32292 -0.5027,1.93146 0.55562,0.39688 1.11125,0.18521 1.64041,0.18521 0.52917,0 0.42334,-0.10583 0.34396,-0.26458 -0.635,-1.34938 0.74083,-1.05834 1.19063,-1.32292 0.44979,-0.26458 1.32291,0.21167 1.19062,0.9525 -0.13229,0.74083 -0.10583,1.66688 1.11125,1.74625 0.26458,0.0265 0.37042,0.42333 0.26458,0.74083 v 0 c -0.15875,0.10584 -0.13229,0.29105 -0.1852,0.4498 -0.74084,1.29645 -1.03188,1.40229 -2.14313,0.76729 a 1.0847917,1.0847917 0 0 1 -0.29104,-0.18521 1.6139583,1.6139583 0 0 0 -0.18521,-0.26458 1.825625,1.825625 0 0 0 -0.44979,-0.4498 c -0.21167,-0.13229 -0.21167,-0.29104 -0.0529,-0.47625 a 0.3175,0.3175 0 0 0 -0.0529,-0.44979 0.37041666,0.37041666 0 0 0 -0.55563,0.0794 4.8683333,4.8683333 0 0 0 -0.39687,0.74083 1.3229166,1.3229166 0 0 0 0.44979,0.55563 h 0.0265 c 0.29104,0.37041 0,0.52916 -0.23813,0.74083 v 0 l -0.26458,-0.0529 c -0.82021,0.0529 -0.0794,-0.82021 -0.55563,-0.9525 -0.47625,-0.13229 -0.21166,-0.29104 -0.0794,-0.50271 a 1.74625,1.74625 0 0 0 0.13229,-0.39687 h -0.42333 l -0.34396,0.10583 c -0.52917,0.10584 -1.08479,0.42334 -1.61396,-0.0529 -0.10583,-0.39688 0.0794,-0.82021 -0.13229,-1.21709 l -0.47625,-0.21166 c -0.37042,0.15875 -0.47625,-0.15875 -0.66146,-0.37042 -0.18521,-0.21167 -0.79375,-0.39688 -1.00542,-0.82021 a 0.87312499,0.87312499 0 0 1 0,-0.37042 c 0.21167,-0.55562 0.50271,-0.89958 1.13771,-0.52916 v 0 a 0.79374999,0.79374999 0 0 0 0.18521,0.29104 h 0.0265 l 0.23812,0.23812 h 0.0265 c 0.15875,0.18521 0.37042,0.1323 0.55563,0.26459 z"
       id="path1581"
       style="fill:#cfdae9;stroke-width:0.264583" />
    <path
       class="cls-507"
       d="m 103.09148,151.50468 0.55563,0.55562 -0.10584,0.23813 c -0.13229,0.47625 0,1.11125 -0.92604,0.44979 -0.92604,-0.66146 -1.19062,-0.68792 -1.32291,-1.48167 -0.1323,-0.79375 -0.1323,-1.16416 0.1852,-1.69333 0.0529,-0.0529 0.21167,-0.0529 0.34396,-0.10583 0.44979,0.37041 0.44979,0.79375 0.23813,1.29646 v 0 c 0,0.71437 0.87312,0.26458 1.03187,0.74083 z"
       id="path1582"
       style="fill:#b6c5db;stroke-width:0.264583" />
    <path
       class="cls-508"
       d="m 101.29232,151.26655 a 1.1641667,1.1641667 0 0 1 0.26458,0.39688 0.95249999,0.95249999 0 0 0 0.66146,0.68792 3.413125,3.413125 0 0 1 0.50271,0.10583 c 0.5027,0.23812 0.58208,0.23812 0.8202,-0.15875 -0.0794,0.50271 -0.13229,1.00542 -0.21166,1.50812 a 0.76729166,0.76729166 0 0 1 -1.00542,0 c -0.0794,-0.13229 -0.23812,-0.29104 -0.21167,-0.39687 0.0265,-0.10583 0.0265,-0.55563 -0.39687,-0.71438 -0.42333,-0.15875 -0.39688,-0.74083 -0.42333,-1.16416 z"
       id="path1583"
       style="fill:#a4b7d3;stroke-width:0.264583" />
    <path
       class="cls-509"
       d="m 104.36148,153.54197 c 0.50271,-0.0529 1.00542,-0.29104 1.50813,0 -0.0794,0.34396 -0.18521,0.68792 -0.26459,1.03188 -0.0794,0.34395 0.0265,0.79375 -0.47625,0.89958 -0.5027,0.10583 -0.84666,-0.21167 -1.05833,-0.66146 v -0.50271 c 0.26458,-0.21166 0.0529,-0.55562 0.29104,-0.76729 z"
       id="path1584"
       style="fill:#bbc7dd;stroke-width:0.264583" />
    <path
       class="cls-510"
       d="m 104.07044,154.81197 0.23813,0.0529 c 0.3175,0.0794 0.44979,0.60854 0.8202,0.37041 0.37042,-0.23812 0.3175,-0.44979 0.47625,-0.66145 -0.0264,0.42333 0.1323,0.89958 -0.23812,1.29645 a 2.460625,2.460625 0 0 0 -0.60854,-0.10583 c -0.89959,0 -0.89959,0.0265 -0.68792,-0.9525 z"
       id="path1585"
       style="fill:#99a6bf;stroke-width:0.264583" />
    <path
       class="cls-511"
       d="m 102.32419,153.80655 h 1.00542 v 0.26459 l -0.23813,0.47625 c -0.50271,0 -0.74083,-0.26459 -0.76729,-0.74084 z"
       id="path1586"
       style="fill:#94a7c6;stroke-width:0.264583" />
    <path
       class="cls-510"
       d="m 104.36148,153.54197 c -0.0265,0.29104 0.0265,0.58208 -0.26458,0.76729 0.0265,-0.68791 0.0265,-1.34937 0.0265,-2.03729 0.39687,0.37042 0.15875,0.84667 0.23812,1.27 z"
       id="path1587"
       style="fill:#99a6bf;stroke-width:0.264583" />
    <path
       class="cls-512"
       d="m 111.7169,157.08739 -0.26458,0.26458 -1.50813,-0.50271 a 3.0691666,3.0691666 0 0 1 -1.29646,-1.29646 0.396875,0.396875 0 0 1 0.0529,-0.23812 0.44979166,0.44979166 0 0 1 0.3175,-0.13229 c 0.58208,0.34396 1.32292,0.39687 1.82562,0.89958 0.50271,0.50271 0.55563,0.0794 0.79375,-0.0529 a 0.26458333,0.26458333 0 0 1 0.3175,0.0529 h 0.0265 c 0.21167,0.23813 0.55563,0.0529 0.76729,0.23813 h 0.0265 a 0.21166666,0.21166666 0 0 1 -0.0529,0.26458 h -0.47625 a 0.47624999,0.47624999 0 0 0 -0.52917,0.50271 z"
       id="path1588"
       style="fill:#9cafcf;stroke-width:0.264583" />
    <path
       class="cls-513"
       d="m 107.40419,155.34114 0.23813,-0.74084 c 0.3175,0.0529 0.44979,0.29105 0.3175,0.55563 -0.1323,0.26458 -0.34396,0.10583 -0.55563,0.18521 z"
       id="path1589"
       style="fill:#aebdd1;stroke-width:0.264583" />
    <path
       class="cls-513"
       d="m 107.61586,154.57385 c -0.37042,-0.0265 -0.50271,-0.21167 -0.44979,-0.55563 z"
       id="path1590"
       style="fill:#aebdd1;stroke-width:0.264583" />
    <path
       class="cls-76"
       d="m 108.91232,155.31468 h -0.21167 v -0.50271 l 0.0794,-0.0794 0.10584,0.0794 h 0.0265 a 0.34395833,0.34395833 0 0 1 0,0.50271 z"
       id="path1591"
       style="fill:#90a7c9;stroke-width:0.264583" />
    <path
       class="cls-514"
       d="m 108.91232,154.81197 h -0.18521 c -0.0265,-0.0794 -0.0265,-0.15875 -0.0529,-0.23812 z"
       id="path1592"
       style="fill:#c2cee2;stroke-width:0.264583" />
    <path
       class="cls-513"
       d="m 106.58398,154.36218 c 0.23813,0.0529 0.29104,0.21167 0.3175,0.42333 a 3.2014583,3.2014583 0 0 0 0.23813,0.52917 l -0.21167,0.26458 a 1.6139583,1.6139583 0 0 1 -0.34396,-0.0794 c -0.3175,-0.13229 -0.39687,-0.26459 -0.21166,-0.52917 0.1852,-0.26458 0.3175,-0.34396 0.21166,-0.60854 z"
       id="path1593"
       style="fill:#aebdd1;stroke-width:0.264583" />
    <path
       class="cls-515"
       d="m 111.47877,153.80655 a 1.984375,1.984375 0 0 0 -0.1852,-0.3175 c -0.10584,-0.1852 -0.18521,-0.34395 -0.47625,-0.21166 -0.29105,0.13229 -0.635,0.21166 -0.84667,-0.26459 a 2.143125,2.143125 0 0 0 -0.26458,-0.55562 c -0.26459,-0.3175 -0.23813,-0.58208 0.0264,-0.89958 a 0.58208333,0.58208333 0 0 0 0.0265,-0.79375 0.74083332,0.74083332 0 0 0 -0.92604,-0.18521 c -0.39687,0.15875 -0.79375,0.37041 -1.21708,0.58208 l 0.58208,0.18521 a 3.8629166,3.8629166 0 0 1 -0.18521,0.79375 c -0.0529,0.10583 -0.26458,0.26458 -0.37041,0.23812 a 3.4925,3.4925 0 0 0 -1.48167,-0.0265 0.68791666,0.68791666 0 0 1 -0.82021,-0.42334 1.42875,1.42875 0 0 1 0,-0.34396 c 0.55563,-0.0794 0.37042,-0.68791 0.68792,-0.9525 0.3175,-0.26458 0.10583,-0.47625 0.15875,-0.74083 a 0.15875,0.15875 0 0 1 0.18521,0.10583 0.92604165,0.92604165 0 0 0 0.74083,0.7673 1.11125,1.11125 0 0 0 1.11125,-0.47625 4.5508333,4.5508333 0 0 0 0.66146,-1.21709 13.81125,13.81125 0 0 0 0.29104,-1.50812 c 0.0794,-0.39688 0.15875,-0.82021 0.21167,-1.21709 0.0794,0.74084 -0.0529,1.50813 0.42333,2.16959 0.82021,-0.15875 0.82021,-0.15875 0.92604,-1.13771 a 1.190625,1.190625 0 0 1 0.26458,0.82021 c 0,0.39687 0,0.76729 0.0265,1.13771 a 2.936875,2.936875 0 0 0 0.0529,0.5027 c 0.0529,0.3175 0.26458,0.50271 0.50271,0.47625 a 0.47624999,0.47624999 0 0 0 0.39687,-0.44979 c 0.0265,-0.29104 0.0529,-0.58208 0.0529,-0.87312 0,-0.29104 0.10583,-1.27 0.13229,-1.87854 0.50271,0.39687 0.34396,0.9525 0.39688,1.48166 0.0529,0.52917 -0.1323,0.97896 0.21166,1.40229 a 2.69875,2.69875 0 0 0 0.74084,0.34396 c 0.34395,0.23813 0.89958,0.66146 0.15875,0.79375 -0.74084,0.13229 -1.0848,1.00542 -1.42875,1.66688 -0.34396,0.66146 -0.50271,0.68791 -0.7673,1.00541 z"
       id="path1594"
       style="fill:#c4d2e4;stroke-width:0.264583" />
    <path
       class="cls-516"
       d="m 112.24607,152.80114 a 1.031875,1.031875 0 0 1 -0.10584,-0.47625 c 0.0265,-0.15875 0.21167,-0.26459 0.23813,-0.42334 0.0265,-0.15875 -0.13229,-0.66145 0.23812,-0.89958 0.37042,-0.23812 0.66146,0.0794 0.97896,0 l 0.29104,-0.15875 -0.42333,-0.3175 0.10583,-0.13229 a 0.79374999,0.79374999 0 0 1 0.68792,-0.0265 2.5664583,2.5664583 0 0 1 0.92604,0.47625 l 0.0794,0.15875 c 0.10583,0.42333 0.1852,0.84667 0.26458,1.27 l -1.11125,-0.74083 c -0.37042,0.29104 -0.84667,0.29104 -1.24354,0.39687 -0.39688,0.10584 -0.29104,0.34396 -0.18521,0.60854 z"
       id="path1595"
       style="fill:#bccade;stroke-width:0.264583" />
    <path
       class="cls-514"
       d="m 108.91232,155.31468 a 3.2014583,3.2014583 0 0 0 0.0265,-0.50271 c 0.26459,-0.10583 0.58209,-0.39687 0.7673,0.15875 0.1852,0.55563 0.29104,0.3175 0.55562,0.15875 a 2.38125,2.38125 0 0 0 0.9525,-1.08479 0.15875,0.15875 0 0 1 0.21167,0 c -0.13229,0.52917 -0.23813,1.05833 0.0265,1.56104 a 0.74083332,0.74083332 0 0 1 0.23812,0.50271 c -0.0794,0.13229 -0.13229,0.29104 -0.23812,0.44979 a 0.29104166,0.29104166 0 0 1 -0.50271,0.10583 1.4022916,1.4022916 0 0 1 -0.34396,-0.34395 1.1641667,1.1641667 0 0 0 -0.82021,-0.52917 4.7360416,4.7360416 0 0 1 -0.87312,-0.47625 z"
       id="path1596"
       style="fill:#c2cee2;stroke-width:0.264583" />
    <path
       class="cls-517"
       d="m 114.23044,153.03926 c -0.52917,0.26459 -0.39687,0.82021 -0.50271,1.24354 -0.10583,0.42334 -0.15875,0.15875 -0.26458,0.0529 h -0.635 c -0.26458,0.0265 -0.37042,0.21167 -0.15875,0.39688 0.21167,0.1852 0.26458,0.3175 0.0794,0.47625 -0.1852,0.15875 -0.29104,0.23812 -0.42333,0.21166 -0.13229,-0.0265 -0.26458,-0.21166 -0.3175,-0.34396 a 1.6933333,1.6933333 0 0 1 0.79375,-1.69333 c 0.50271,-0.29104 0.50271,-0.29104 0.21167,-0.84667 z"
       id="path1597"
       style="fill:#c0cddd;stroke-width:0.264583" />
    <path
       class="cls-518"
       d="m 113.46315,154.33572 0.26458,-0.0529 v 1.29646 h -0.21166 c -0.0265,-0.42333 -0.0529,-0.82021 -0.0529,-1.24354 z"
       id="path1598"
       style="fill:#93909c;stroke-width:0.264583" />
    <path
       class="cls-76"
       d="m 111.69044,156.10843 -0.23812,-0.50271 0.5027,0.47625 z"
       id="path1599"
       style="fill:#90a7c9;stroke-width:0.264583" />
    <path
       class="cls-76"
       d="m 112.74877,156.3201 c -0.26458,0 -0.58208,0.0794 -0.76729,-0.23813 0.26459,0.0794 0.60854,-0.13229 0.76729,0.23813 z"
       id="path1600"
       style="fill:#90a7c9;stroke-width:0.264583" />
    <path
       class="cls-65"
       d="m 112.72232,156.58468 c 0.0264,-0.0794 0.0264,-0.18521 0.0529,-0.26458 l 0.23813,0.23812 z"
       id="path1601"
       style="fill:#809bc2;stroke-width:0.264583" />
    <path
       class="cls-515"
       d="m 111.42586,154.04468 h -0.21167 l 0.26458,-0.23813 c -0.0264,0.0794 -0.0264,0.15875 -0.0529,0.23813 z"
       id="path1602"
       style="fill:#c4d2e4;stroke-width:0.264583" />
    <path
       class="cls-313"
       d="m 114.83898,155.79093 0.44979,0.29104 c -0.10583,0.0794 -0.1852,0.18521 -0.26458,0.21167 a 1.1641667,1.1641667 0 0 1 -0.39687,-0.13229 z"
       id="path1603"
       style="fill:#8aa6c7;stroke-width:0.264583" />
    <path
       class="cls-313"
       d="m 114.54794,155.2353 0.18521,0.34396 z"
       id="path1604"
       style="fill:#8aa6c7;stroke-width:0.264583" />
    <path
       class="cls-560"
       d="m 102.05961,150.76385 -0.23813,-1.29646 v 0 c 0.23813,-0.37042 0.0794,-0.84667 0.23813,-1.24354 l 0.74083,-0.23813 a 4.5243749,4.5243749 0 0 0 0.0265,0.84667 2.9897916,2.9897916 0 0 0 0.21167,0.635 l 0.0794,0.50271 c -0.635,-0.1323 -0.76729,0.44979 -1.05833,0.79375 z"
       id="path1694"
       style="fill:#bacadc;stroke-width:0.264583" />
    <path
       class="cls-507"
       d="m 102.05961,148.22385 a 1.0847917,1.0847917 0 0 1 -0.23813,1.24354 c 0.0529,-0.42334 -0.18521,-0.89959 0.23813,-1.24354 z"
       id="path1695"
       style="fill:#b6c5db;stroke-width:0.264583" />
    <path
       class="cls-561"
       d="m 105.15523,147.77405 a 2.3283333,2.3283333 0 0 1 -0.47625,1.61396 0.34395833,0.34395833 0 0 1 -0.3175,0.13229 c -0.0794,0 -0.21166,-0.13229 -0.23812,-0.21166 v -1.34938 c 0.18521,-0.26458 0.0529,-0.58208 0.18521,-0.84666 0.13229,-0.26459 0,-0.10584 0.0529,-0.15875 0.0529,-0.0529 0.10584,-0.37042 0.21167,-0.55563 v 0 c 0.15875,-0.10583 0.23812,-0.39687 0.50271,-0.23812 l 0.0794,0.66145 a 1.4022916,1.4022916 0 0 1 0,0.9525 z"
       id="path1696"
       style="fill:#bbc6d4;stroke-width:0.264583" />
    <path
       class="cls-562"
       d="m 106.37232,149.99655 -0.18521,-0.10583 c -0.0794,-0.3175 0.0529,-0.68792 -0.29104,-0.89958 a 2.301875,2.301875 0 0 1 0.0265,-0.74084 c 0.21167,-0.5027 0.18521,-1.05833 0.23813,-1.5875 a 0.29104166,0.29104166 0 0 0 0.21167,0 z"
       id="path1697"
       style="fill:#41464b;stroke-width:0.264583" />
    <path
       class="cls-563"
       d="m 105.07586,146.18655 -0.50271,0.23813 c 0.0794,-0.13229 0.10583,-0.3175 0.21167,-0.39688 0.10583,-0.0794 0.29104,-0.0529 0.29104,0.15875 z"
       id="path1698"
       style="fill:#a0b2c4;stroke-width:0.264583" />
    <path
       class="cls-563"
       d="m 105.15523,147.77405 v -0.92604 a 0.89958332,0.89958332 0 0 1 0,0.92604 z"
       id="path1699"
       style="fill:#a0b2c4;stroke-width:0.264583" />
    <path
       class="cls-563"
       d="m 104.30857,147.1126 c 0.0794,0.3175 0.10583,0.60854 -0.18521,0.84666 a 1.0847917,1.0847917 0 0 1 0.18521,-0.84666 z"
       id="path1700"
       style="fill:#a0b2c4;stroke-width:0.264583" />
    <path
       class="cls-560"
       d="m 104.14982,150.73739 a 0.50270833,0.50270833 0 0 1 -0.55563,-0.21167 z"
       id="path1701"
       style="fill:#bacadc;stroke-width:0.264583" />
    <path
       class="cls-563"
       d="m 104.57315,146.39822 a 0.50270833,0.50270833 0 0 1 -0.21167,0.55563 0.50270833,0.50270833 0 0 1 0.21167,-0.55563 z"
       id="path1702"
       style="fill:#a0b2c4;stroke-width:0.264583" />
    <path
       class="cls-560"
       d="m 103.56773,150.49926 -0.23812,-0.23812 z"
       id="path1703"
       style="fill:#bacadc;stroke-width:0.264583" />
    <path
       class="cls-560"
       d="m 103.30315,150.23468 -0.18521,-0.29104 z"
       id="path1704"
       style="fill:#bacadc;stroke-width:0.264583" />
    <path
       class="cls-564"
       d="m 112.72232,150.23468 c -0.23813,0.0794 -0.50271,0.18521 -0.50271,-0.23813 0,-0.42333 0.0265,-1.00541 0.0265,-1.50812 l -0.0794,-1.37583 a 2.06375,2.06375 0 0 1 -0.0529,-0.37042 c 0,-0.37042 -0.13229,-0.82021 0.0265,-1.08479 0.15875,-0.26459 0.68792,0.18521 1.03188,-0.0265 a 1.5610416,1.5610416 0 0 1 2.06375,0.3175 l 0.0794,1.05833 a 0.87312499,0.87312499 0 0 1 0.13229,0.55563 c -0.21166,0.47625 0.0529,1.27 -0.87312,1.27 -0.50271,-0.3175 -0.29104,-1.00542 -0.71438,-1.37584 a 1.7197916,1.7197916 0 0 0 -0.15875,0.60855 c -0.23812,0.76729 0.0529,1.7727 -0.97895,2.16958 z"
       id="path1705"
       style="fill:#d1dae6;stroke-width:0.264583" />
    <path
       class="cls-565"
       d="m 115.23586,145.94843 c -0.66146,-0.23813 -1.32292,-0.50271 -2.06375,-0.3175 l 0.55562,-0.47625 c 0.21167,0 0.44979,-0.10583 0.58209,-0.0265 a 0.52916666,0.52916666 0 0 0 0.635,0.0265 c 0.21166,-0.15875 0.29104,0 0.3175,0.18521 0.0264,0.18521 -0.0265,0.39687 -0.0265,0.60854 z"
       id="path1706"
       style="fill:#c4d1e0;stroke-width:0.264583" />
    <path
       class="cls-566"
       d="m 115.28877,147.45655 c 0,-0.15875 0.0265,-0.29104 0.0265,-0.44979 0,-0.15875 0.13229,-0.82021 0.18521,-1.24354 a 1.3758333,1.3758333 0 0 1 0.0794,-0.47625 0.52916666,0.52916666 0 0 1 0.34395,-0.29104 0.26458333,0.26458333 0 0 1 0.3175,0.13229 1.6933333,1.6933333 0 0 1 0.26459,0.68792 7.9904166,7.9904166 0 0 1 0.0529,1.13771 12.3825,12.3825 0 0 0 -0.0264,2.80458 l 1.08479,-0.23813 a 0.92604165,0.92604165 0 0 1 0.92604,0.23813 0.71437499,0.71437499 0 0 1 -0.50271,0.74083 l -1.27,0.47625 -0.23812,0.0529 c -0.34396,0.10583 -0.66146,0.23812 -0.9525,-0.10583 v 0 a 1.349375,1.349375 0 0 1 -0.55563,-0.89959 c -0.18521,-0.87312 0.15875,-1.71979 0.26458,-2.56646 z"
       id="path1707"
       style="fill:#0a0a0b;stroke-width:0.264583" />
    <path
       class="cls-567"
       d="m 116.82336,145.92197 c 0.21166,-0.0794 0.26458,-0.39687 0.68791,-0.23812 0.42334,0.15875 0.92605,0.79375 1.27,1.27 a 3.571875,3.571875 0 0 1 -0.10583,0.74083 c -0.0265,0.13229 -0.21167,0.34396 -0.29104,0.3175 -0.0794,-0.0265 -0.50271,0.21167 -0.71438,0.42333 a 0.52916666,0.52916666 0 0 1 -0.84666,-0.37041 c -0.0265,-0.37042 -0.0265,-0.74084 -0.0265,-1.13771 0,-0.39688 0,-0.66146 0.0265,-1.00542 z"
       id="path1708"
       style="fill:#d5dfec;stroke-width:0.264583" />
    <path
       class="cls-516"
       d="m 115.57982,150.9226 0.9525,0.10583 c -0.52917,0.3175 -0.60855,0.3175 -0.9525,-0.10583 z"
       id="path1767"
       style="fill:#bccade;stroke-width:0.264583" />
    <path
       class="cls-516"
       d="m 115.50044,154.81197 -0.0794,0.3175 c -0.0794,-0.0265 -0.21167,-0.0529 -0.23813,-0.10583 a 1.349375,1.349375 0 0 1 -0.18521,-0.44979 z"
       id="path1768"
       style="fill:#bccade;stroke-width:0.264583" />
    <path
       class="cls-516"
       d="m 115.31523,150.1553 c 0.0794,0.26459 0.18521,0.52917 0.26459,0.79375 l -0.3175,0.0529 v 0 c -0.18521,-0.29104 -0.23813,-0.55562 0.0529,-0.84667 z"
       id="path1769"
       style="fill:#bccade;stroke-width:0.264583" />
    <path
       class="cls-516"
       d="m 115.31523,153.54197 -0.0794,-0.74083 c 0.37041,0.3175 0.37041,0.3175 0.0794,0.74083 z"
       id="path1770"
       style="fill:#bccade;stroke-width:0.264583" />
    <path
       class="cls-585"
       d="m 117.1144,155.31468 -0.0529,-0.50271 h 0.23813 a 3.2014583,3.2014583 0 0 1 -0.0265,0.50271 z"
       id="path1771"
       style="fill:#9ba5bd;stroke-width:0.264583" />
    <path
       class="cls-516"
       d="m 114.99773,154.57385 c -0.26458,-0.18521 -0.29104,-0.37042 0,-0.52917 z"
       id="path1772"
       style="fill:#bccade;stroke-width:0.264583" />
    <path
       class="cls-516"
       d="m 115.76502,153.80655 -0.21166,0.635 a 0.58208333,0.58208333 0 0 1 0.21166,-0.635 z"
       id="path1773"
       style="fill:#bccade;stroke-width:0.264583" />
    <path
       class="cls-516"
       d="m 116.05607,153.03926 -0.26459,0.55563 c 0,-0.23813 0.0265,-0.44979 0.26459,-0.55563 z"
       id="path1774"
       style="fill:#bccade;stroke-width:0.264583" />
    <path
       class="cls-516"
       d="m 116.53232,153.03926 h -0.47625 q 0.23812,-0.39687 0.47625,0 z"
       id="path1775"
       style="fill:#bccade;stroke-width:0.264583" />
    <path
       class="cls-516"
       d="m 115.87086,152.3778 c -0.0265,0.0265 -0.0529,0.0794 -0.0794,0.0794 -0.0265,0 -0.15875,-0.0265 -0.21166,-0.0794 -0.0529,-0.0529 -0.0794,-0.13229 0.0529,-0.10583 z"
       id="path1776"
       style="fill:#bccade;stroke-width:0.264583" />
    <path
       class="cls-402"
       d="m 120.87148,151.76926 v 0.26459 l -0.34396,-0.1323 z"
       id="path1777"
       style="fill:#bbcadf;stroke-width:0.264583" />
    <path
       class="cls-516"
       d="m 114.99773,154.04468 0.23813,-0.34396 z"
       id="path1778"
       style="fill:#bccade;stroke-width:0.264583" />
    <path
       class="cls-517"
       d="m 114.54794,152.80114 -0.29104,0.21166 z"
       id="path1779"
       style="fill:#c0cddd;stroke-width:0.264583" />
    <path
       class="cls-517"
       d="m 115.26232,152.80114 a 0.238125,0.238125 0 0 1 -0.23813,-0.0529 q -0.13229,-0.0794 -0.0794,-0.15875 l 0.0794,-0.0529 z"
       id="path1780"
       style="fill:#c0cddd;stroke-width:0.264583" />
    <path
       class="cls-516"
       d="m 115.02419,152.53655 v 0.21167 h -0.26458 a 0.18520833,0.18520833 0 0 1 -0.0529,-0.15875 l 0.0529,-0.0529 z"
       id="path1781"
       style="fill:#bccade;stroke-width:0.264583" />
    <path
       class="cls-517"
       d="m 114.75961,152.53655 v 0.21167 a 0.21166666,0.21166666 0 0 1 -0.21167,0.0529 z"
       id="path1782"
       style="fill:#c0cddd;stroke-width:0.264583" />
    <path
       class="cls-587"
       d="m 116.29419,154.75905 -0.10583,-0.0529 0.10583,-0.10584 0.0794,0.0794 z"
       id="path1785"
       style="fill:#495e6a;stroke-width:0.264583" />
    <path
       class="cls-560"
       d="m 103.09148,151.50468 a 6.6145832,6.6145832 0 0 1 -1.03187,-0.29104 c -0.26459,-0.13229 -0.18521,-0.3175 0,-0.44979 a 4.4979166,4.4979166 0 0 0 0.635,0.23812 0.52916666,0.52916666 0 0 1 0.39687,0.50271 z"
       id="path1786"
       style="fill:#bacadc;stroke-width:0.264583" />
    <path
       class="cls-516"
       d="m 112.72232,150.23468 c 0.37041,-0.60854 0.635,-1.24354 0.55562,-1.95792 0,-0.10583 0.13229,-0.21166 0.18521,-0.3175 0.60854,0.82021 0.55562,1.66688 0.0529,2.51354 l -0.0529,0.0529 c -0.26458,-0.0529 -0.55563,0 -0.74083,-0.29104 z"
       id="path1787"
       style="fill:#bccade;stroke-width:0.264583" />
    <path
       class="cls-588"
       d="m 113.51607,150.4728 -0.0529,-2.51354 a 6.0854166,6.0854166 0 0 1 0.0529,-0.97896 c 0.0264,-0.13229 0.1852,-0.29104 0.29104,-0.29104 0.10583,0 0.29104,0.10584 0.39687,0.21167 a 0.97895832,0.97895832 0 0 1 0.10584,0.47625 c 0.0794,0.44979 0.13229,0.89958 0.1852,1.34937 a 0.34395833,0.34395833 0 0 1 0.1323,0.29105 c -0.0794,0.44979 -0.0265,0.92604 -0.26459,1.34937 l -0.15875,0.10583 z"
       id="path1788"
       style="fill:#131315;stroke-width:0.264583" />
    <path
       class="cls-565"
       d="m 114.49502,148.8853 c -0.0794,-0.0529 -0.0529,-0.10583 0,-0.15875 a 0.50270833,0.50270833 0 0 0 0.52917,-0.52916 c 0,-0.26459 -0.0265,-0.55563 0.26458,-0.74084 0,0.89959 0,1.79917 0.0265,2.69875 -0.0265,0.29105 -0.0265,0.58209 -0.0529,0.84667 a 1.42875,1.42875 0 0 1 -1.05834,-0.52917 v 0 c 0.39688,-0.47625 0.0265,-1.08479 0.29104,-1.5875 z"
       id="path1789"
       style="fill:#c4d1e0;stroke-width:0.264583" />
    <path
       class="cls-516"
       d="m 114.49502,148.8853 c 0,0.37042 0.0265,0.74084 0,1.11125 a 1.5345833,1.5345833 0 0 1 -0.29104,0.47625 c 0.10584,-0.52916 0.18521,-1.05833 0.29104,-1.5875 z"
       id="path1795"
       style="fill:#bccade;stroke-width:0.264583" />
  </g>
</svg>
